<svg width="30" height="30" viewBox="0 0 30 30" fill="none" xmlns="http://www.w3.org/2000/svg">
<path fill-rule="evenodd" clip-rule="evenodd" d="M13.9934 5.65768C15.3715 3.27062 17.7639 1.37031 20.6956 1.53268C30.5701 2.07912 27.3979 17.102 13.9934 22.58C0.588898 17.102 -2.58337 2.07912 7.29114 1.53256C10.2228 1.37031 12.6153 3.27062 13.9934 5.65768Z" fill="#8AC9FE"/>
<path fill-rule="evenodd" clip-rule="evenodd" d="M16.5738 26.9393C18.4802 28.0424 18.9886 28.476 25.0317 28.476C26.67 28.476 26.5852 26.808 26.1229 26.6611C27.3331 26.6558 27.9686 24.8712 27.1331 24.3844C28.6272 24.0835 28.5335 22.126 27.7801 21.7774C28.6841 21.5352 28.9215 19.2233 27.175 19.2233H23.7727C23.9107 17.33 25.5891 13.5374 22.17 13.0486C22.0953 13.0376 22.0193 13.0421 21.9465 13.0618C21.8737 13.0815 21.8057 13.116 21.7468 13.1631C21.6879 13.2103 21.6394 13.269 21.6042 13.3357C21.569 13.4025 21.548 13.4757 21.5424 13.5509C21.2499 17.2408 18.8656 19.6403 16.5736 20.5617L16.5738 26.9393Z" fill="#D8ECFE"/>
<path d="M16.1712 19.6497H13.4458C13.2235 19.6497 13.0432 19.8299 13.0432 20.0523V27.4074C13.0432 27.6298 13.2235 27.81 13.4458 27.81H16.1712C16.3935 27.81 16.5738 27.6298 16.5738 27.4074V20.0523C16.5738 19.8299 16.3935 19.6497 16.1712 19.6497Z" fill="#3A91D8"/>
<path fill-rule="evenodd" clip-rule="evenodd" d="M12.5742 22.4648C7.39759 20.0121 3.8781 16.1349 2.19868 12.3735C1.39009 10.5624 1.00448 8.77153 1.06155 7.16958C1.18982 3.56923 3.48769 1.27475 7.26564 1.06563C8.74642 0.983601 10.0957 1.38919 11.2624 2.10714C12.3453 2.77364 13.2699 3.71196 13.9928 4.77831C14.7155 3.71272 15.6404 2.7744 16.7246 2.10708C17.8911 1.38919 19.2406 0.983718 20.7213 1.06563C24.8387 1.2935 27.1382 3.99655 26.9167 7.9978C26.805 10.0179 26.0405 12.2802 24.6595 14.4779C25.0061 15.8079 24.5204 17.4368 24.3034 18.7546H27.175C29.0538 18.7546 29.3304 20.8655 28.5005 21.8366C29.0242 22.6795 28.8152 24.0184 27.8831 24.5896C28.2077 25.4327 27.6878 26.5574 26.8474 26.962C26.8936 27.1901 26.8911 27.4254 26.84 27.6525C26.789 27.8795 26.6905 28.0933 26.5512 28.2797C26.2633 28.658 25.7792 28.9431 25.0317 28.9432V28.9451C19.5873 28.9451 18.5274 28.5923 16.9855 27.7177C16.9225 27.8827 16.8109 28.0246 16.6655 28.1248C16.52 28.2251 16.3477 28.2788 16.1711 28.279H13.4458C13.2147 28.2788 12.9932 28.1868 12.8298 28.0234C12.6664 27.86 12.5745 27.6385 12.5742 27.4074V22.4648ZM16.1048 26.9395V20.1184H13.5117V27.3412H16.1048V26.9393V26.9395ZM17.0168 19.8419C19.2965 18.6443 20.8556 16.305 21.0754 13.5143C21.0867 13.3756 21.1263 13.2406 21.1916 13.1177C21.2569 12.9948 21.3467 12.8866 21.4553 12.7996C21.564 12.7126 21.6893 12.6487 21.8235 12.6119C21.9577 12.5751 22.098 12.566 22.2359 12.5853C23.1595 12.7174 23.7702 13.0448 24.161 13.4972C25.2715 11.5929 25.8876 9.66825 25.9829 7.94653C26.0942 5.93524 25.4949 4.01841 23.7983 2.91919C22.9915 2.39653 21.9516 2.07034 20.67 1.99927C19.396 1.92895 18.2288 2.28139 17.2152 2.90518C16.0534 3.62003 15.0917 4.6903 14.398 5.89177L14.3973 5.89136C14.3561 5.96216 14.297 6.02089 14.226 6.06167C14.155 6.10244 14.0745 6.12383 13.9926 6.12369C13.9107 6.12355 13.8302 6.10188 13.7593 6.06085C13.6884 6.01983 13.6296 5.96089 13.5887 5.88995C12.896 4.69042 11.9345 3.62108 10.7715 2.90548C9.75786 2.28163 8.59073 1.92901 7.31673 1.9995C4.03648 2.18114 2.10669 4.07852 1.99542 7.20262C1.94333 8.66395 2.30157 10.3123 3.05192 11.9927C4.60759 15.4769 7.83405 19.0708 12.5745 21.4263V20.0522C12.5748 19.8212 12.6667 19.5998 12.8301 19.4365C12.9934 19.2731 13.2148 19.1812 13.4458 19.1809H16.1712C16.3656 19.1812 16.5544 19.2463 16.7076 19.3661C16.8608 19.4858 16.9696 19.6533 17.0168 19.8419ZM17.0425 26.6707C18.6883 27.6276 19.3687 28.0073 25.0317 28.0073V28.0091C25.5382 28.0091 25.8603 27.8071 25.9321 27.4251C25.9506 27.332 25.9499 27.2361 25.9303 27.1432C25.9223 27.1081 26.0235 27.1193 25.9818 27.106C25.4765 26.9457 25.5939 26.1964 26.121 26.1943C26.8896 26.191 27.2816 25.0114 26.8987 24.789C26.8149 24.7404 26.7482 24.667 26.7079 24.5789C26.6676 24.4908 26.6556 24.3923 26.6737 24.2971C26.6918 24.2019 26.739 24.1147 26.8088 24.0474C26.8785 23.9802 26.9675 23.9363 27.0633 23.9218C27.6844 23.8065 27.93 23.1724 27.8206 22.6288C27.7783 22.4184 27.6932 22.2525 27.5842 22.202C27.4971 22.1615 27.4246 22.0952 27.3765 22.0121C27.3284 21.929 27.307 21.8331 27.3152 21.7374C27.3234 21.6417 27.3608 21.5508 27.4224 21.4771C27.4839 21.4034 27.5667 21.3504 27.6594 21.3253V21.3249C27.9513 21.2467 28.1619 20.4418 27.8631 19.9956C27.7435 19.817 27.524 19.6919 27.175 19.6919H23.7727C23.706 19.692 23.6399 19.6778 23.5791 19.6503C23.5182 19.6228 23.464 19.5826 23.42 19.5324C23.376 19.4822 23.3432 19.4231 23.3239 19.3592C23.3046 19.2953 23.2992 19.228 23.308 19.1618C23.3412 18.7416 23.4365 18.2657 23.5385 17.7555C23.6182 17.3566 23.7025 16.9359 23.7587 16.5419C23.9579 15.1474 23.8611 13.763 22.104 13.5119C22.0927 13.5094 22.0809 13.5095 22.0696 13.5121C22.0583 13.5148 22.0477 13.5199 22.0386 13.5271C22.0295 13.5344 22.0222 13.5436 22.0171 13.554C22.012 13.5645 22.0093 13.5759 22.0092 13.5875C21.8683 15.367 21.2632 16.8646 20.416 18.06C19.5577 19.2764 18.3942 20.2454 17.0425 20.8695V26.6707Z" fill="#1C519C"/>
</svg>
