<svg width="29" height="28" viewBox="0 0 29 28" fill="none" xmlns="http://www.w3.org/2000/svg">
<g clip-path="url(#clip0_7335_527)">
<path d="M25.8534 11.5705L21.7094 9.17798C21.212 8.89076 20.7717 8.26733 20.6199 7.63503L19.352 2.36721C19.1156 1.3853 18.4778 0.594247 17.8388 0.22538C17.425 -0.0135492 17.0107 -0.0754553 16.7046 0.102443L11.3649 3.20552L9.78633 2.29415C9.31908 2.02438 8.93381 2.0101 8.65819 2.17028L2.69551 5.63539C2.7141 5.62461 2.73319 5.61477 2.75271 5.60564C2.06376 5.92922 1.98195 7.26611 2.87713 8.53322L6.22137 13.2672C6.62338 13.8357 6.79023 14.5288 6.63475 14.9842L5.34118 18.7731C4.97379 19.8491 5.85994 21.4836 6.85689 22.0592C7.16867 22.2392 7.49132 22.3156 7.78981 22.239L11.1499 21.3751C11.3515 21.3233 11.5888 21.3762 11.8257 21.5131C12.0627 21.6499 12.2995 21.8707 12.5002 22.1547L15.8449 26.8896C16.1419 27.3101 16.4637 27.6056 16.7754 27.7856C17.2105 28.0368 17.6256 28.0624 17.9254 27.8872C17.9249 27.8875 17.9244 27.888 17.9238 27.8882L23.8864 24.4231C24.2744 24.1976 24.4702 23.6363 24.2672 22.7924L23.0282 17.6447L26.9927 15.3408C27.9516 14.7837 27.3024 12.4071 25.8534 11.5705Z" fill="#FED322"/>
<path d="M2.69556 5.63526L8.65812 2.17015C8.9338 2.00997 9.31902 2.02425 9.78627 2.29402L3.8237 5.75912C3.35645 5.48935 2.97118 5.47508 2.69556 5.63526Z" fill="#FFE577"/>
<path d="M23.8865 24.4232L17.9239 27.8883C18.312 27.6628 18.5077 27.1015 18.3047 26.2576L24.2672 22.7925C24.4701 23.6365 24.2745 24.1977 23.8865 24.4232Z" fill="#DDB201"/>
<path d="M3.82367 5.75929L9.78624 2.29419L13.9302 4.68671L7.96766 8.15181L3.82367 5.75929Z" fill="#FFEB9A"/>
<path d="M14.748 4.76645L8.7854 8.23155C8.57366 8.35465 8.28162 8.3331 7.96777 8.15182L13.9303 4.68677C14.2442 4.86806 14.5361 4.88955 14.748 4.76645Z" fill="#FFE577"/>
<path d="M17.0368 20.9898L22.9994 17.5247L24.2672 22.7925L18.3046 26.2576L17.0368 20.9898Z" fill="#EEBF00"/>
<path d="M17.3161 19.8128L23.2787 16.3477C22.9791 16.5217 22.8663 16.9719 22.9994 17.5246L17.0368 20.9897C16.9037 20.437 17.0166 19.9868 17.3161 19.8128Z" fill="#FED322"/>
<path d="M14.6572 11.1001L20.6197 7.63501C20.7716 8.26731 21.2118 8.89074 21.7093 9.17796L15.7468 12.6431C15.2494 12.3558 14.8091 11.7324 14.6572 11.1001Z" fill="#FFE577"/>
<path d="M10.7419 3.56755L16.7045 0.102443C17.0106 -0.0754553 17.425 -0.0135492 17.8388 0.22538L11.8762 3.69048C11.4624 3.45155 11.0481 3.3897 10.7419 3.56755Z" fill="#FFEB9A"/>
<path d="M13.3894 5.83224L19.352 2.36719L20.6198 7.63495L14.6572 11.1001L13.3894 5.83224Z" fill="#FFDE56"/>
<path d="M11.8762 3.69044L17.8388 0.225342C18.4778 0.594263 19.1156 1.38526 19.3519 2.36717L13.3894 5.83228C13.1531 4.85036 12.5152 4.05937 11.8762 3.69044Z" fill="#FFE577"/>
<path d="M15.7468 12.6431L21.7094 9.17798L25.8534 11.5705L19.8908 15.0356L15.7468 12.6431Z" fill="#FFEB9A"/>
<path d="M26.9928 15.3409L21.0303 18.806C21.9891 18.2488 21.3398 15.8722 19.8909 15.0357L25.8534 11.5706C27.3024 12.4071 27.9516 14.7837 26.9928 15.3409Z" fill="#FFDE56"/>
<path d="M11.8762 3.69045C12.5152 4.05937 13.153 4.85037 13.3893 5.83228L14.6572 11.1001C14.8091 11.7324 15.2493 12.3558 15.7468 12.643L19.8908 15.0356C21.4356 15.9275 22.0714 18.5699 20.8185 18.8916L17.4585 19.7549C17.0546 19.858 16.8844 20.3566 17.0368 20.9898L18.3047 26.2576C18.6644 27.7533 17.772 28.361 16.7755 27.7857C16.4638 27.6057 16.142 27.3102 15.845 26.8897L12.5003 22.1548C12.2995 21.8707 12.0628 21.6499 11.8258 21.5131C11.5888 21.3764 11.3516 21.3234 11.1499 21.3751L7.78987 22.239C7.49144 22.3157 7.16873 22.2393 6.85696 22.0593C5.86001 21.4837 4.97386 19.8493 5.34125 18.7732L6.63477 14.9842C6.79024 14.5288 6.62339 13.8356 6.22138 13.2672L2.87714 8.53329C1.63021 6.76836 2.27886 4.86748 3.82367 5.75938L7.96766 8.1519C8.46515 8.43912 8.90747 8.3252 9.06294 7.87042L10.356 4.08113C10.597 3.37468 11.2373 3.32153 11.8762 3.69045Z" fill="#FED322"/>
</g>
<defs>
<clipPath id="clip0_7335_527">
<rect width="28" height="28" fill="white" transform="translate(0.833313)"/>
</clipPath>
</defs>
</svg>
