<svg width="335" height="100" viewBox="0 0 335 100" fill="none" xmlns="http://www.w3.org/2000/svg">
<g clip-path="url(#clip0_9_5515)">
<g clip-path="url(#clip1_9_5515)">
<mask id="mask0_9_5515" style="mask-type:luminance" maskUnits="userSpaceOnUse" x="61" y="21" width="212" height="58">
<path d="M272.331 21H61V78.9745H272.331V21Z" fill="white"/>
</mask>
<g mask="url(#mask0_9_5515)">
<path d="M110.902 70.9097C121.628 60.156 121.628 42.7217 110.902 31.9683C100.176 21.215 82.7869 21.215 72.0617 31.9683C61.3362 42.7217 61.3362 60.156 72.0617 70.9097C82.7869 81.6628 100.176 81.6628 110.902 70.9097Z" fill="#E94E58"/>
<path d="M126.388 48.5423C124.466 48.0633 122.814 46.9189 121.743 45.2405C120.698 43.6084 119.983 41.8027 118.864 40.2102C116.997 37.5499 113.98 35.1226 110.542 35.5224C110.441 35.3357 110.214 34.949 110.205 34.9402C110.314 34.7865 110.389 34.5954 110.384 34.4394C110.367 33.7189 108.535 33.664 108.509 33.664C107.911 32.7216 107.203 31.8583 106.415 31.0741L106.423 31.0653C106.438 31.0653 106.454 31.0653 106.469 31.0587C106.614 30.9906 106.605 30.7556 106.574 30.6259C106.544 30.4898 106.463 30.3184 106.316 30.2811C106.441 29.7648 106.281 29.2113 105.827 28.8839C105.372 28.5523 104.747 28.5852 104.256 28.8378C104.175 28.6819 103.882 28.6929 103.75 28.761C103.715 28.7785 103.674 28.8136 103.634 28.8554C102.554 28.1634 101.399 27.5857 100.208 27.1354C100.072 27.0849 99.9358 27.0365 99.7999 26.9904C99.8174 26.9728 99.8369 26.9553 99.8545 26.9377C99.8657 26.9311 99.8744 26.9245 99.8832 26.9179L99.8788 26.9157C100.479 26.3929 101.38 26.3929 102.138 26.0722C102.709 25.8306 103.089 25.4066 103.321 24.8332C103.845 23.5394 103.367 22.0237 102.468 21C102.959 22.0039 103.143 22.8035 103.084 23.7195C102.997 25.0705 102.236 25.6965 100.948 25.8591C100.212 25.9514 99.3177 26.1051 98.9453 26.74C98.803 26.7048 98.6582 26.6719 98.5161 26.6477C98.5223 26.6258 98.5205 26.6016 98.5072 26.5752C97.3328 24.4796 92.907 27.7549 94.1713 29.7626C94.1624 29.8395 94.1163 30.0153 94.0968 30.0241C93.7944 30.1317 93.5446 30.3514 93.3364 30.6105C92.6419 31.4673 92.5477 32.5612 91.1343 32.436C89.4102 32.2822 88.0124 30.4634 87.7689 29.0861C87.7582 29.0268 87.6792 29.0268 87.6768 29.0861C87.6178 30.7292 88.6236 32.8336 90.2843 33.3498C91.0533 33.5893 91.9013 33.4839 92.5869 33.0555C92.8762 32.8732 93.1349 32.6381 93.3429 32.3657C93.6716 31.933 93.7856 31.3926 94.1514 31.0016C94.1908 31.6869 94.4298 33.3916 94.4558 33.5673C94.3923 33.6046 94.3354 33.653 94.3003 33.6947C94.1624 33.8617 94.1318 34.0989 94.1801 34.3054C93.906 34.6108 93.8556 35.1534 93.9126 35.529C93.974 35.9398 94.2194 36.3659 94.5852 36.5614C94.4626 36.724 94.5303 36.9722 94.6685 37.1128C94.7495 37.1941 95.0957 37.2709 95.1177 37.2688C95.3719 38.4066 95.6719 39.5336 96.0488 40.6407C96.0401 40.6407 96.0292 40.6407 96.0182 40.6452C95.5998 40.8537 95.1966 41.3985 95.4551 41.8775C95.6085 42.1651 96.0926 42.2026 96.1146 42.2465C96.1233 42.2642 96.1321 42.2817 96.1408 42.2992C94.2896 44.6299 95.2996 47.8437 95.1877 50.5478C95.0542 53.7968 92.6177 56.5163 89.3158 56.7051C89.2042 56.7116 89.1867 56.8589 89.2894 56.8939C90.6853 57.4013 92.2036 57.2389 93.5031 56.5908C95.3367 57.474 97.5037 56.5073 98.5423 54.8512C98.6739 54.6403 98.7878 54.425 98.8883 54.2032C99.7473 53.7022 100.376 52.2414 100.534 51.286C100.547 51.286 100.562 51.286 100.573 51.2727C101.143 50.7257 101.406 49.9218 101.362 49.1397C102.538 50.7895 103.496 52.615 103.866 54.6162C104.37 57.3532 103.661 59.9913 101.781 62.0452C100.731 63.1922 99.4756 64.0134 98.139 64.7076H98.1348C95.4376 65.5599 92.7317 64.5715 90.3457 63.2973C88.2665 62.1859 86.2572 60.9579 84.0771 60.0464C79.658 58.1967 74.7083 57.9355 70.2081 59.6774C70.0743 59.73 70.0831 59.9387 70.2432 59.9407C72.5152 59.9476 74.7808 60.4242 76.8141 61.4589C77.57 61.8433 78.2908 62.2869 79.0049 62.7418C80.0061 63.9015 79.9121 65.5054 80.6306 66.8078C81.0689 67.603 81.8534 68.1766 82.7164 68.4795C82.5435 68.4664 82.3704 68.4554 82.1972 68.4485C80.1927 68.3785 78.306 69.2614 76.6759 70.3753C76.6607 70.3817 76.6452 70.3885 76.6321 70.395C76.6146 70.4036 76.6038 70.4147 76.597 70.428C76.5862 70.4366 76.5751 70.4435 76.5643 70.4499C76.1304 70.426 75.6989 70.4105 75.2694 70.406C70.7537 70.371 64.6824 72.8291 61.1768 68.7253C61.1003 68.6377 60.9532 68.752 61.0146 68.8508C63.7906 73.2023 68.602 75.7548 73.6544 76.302C79.5308 76.9388 85.3392 75.0387 90.3851 72.1305C93.3539 70.4191 96.0381 68.2796 98.9388 66.4628C99.2521 66.4258 99.5567 66.3771 99.8524 66.3245C101.482 66.0347 103.069 65.4766 104.609 64.8768C103.518 67.1175 101.877 69.0376 99.8349 70.463C99.7034 70.5554 99.7868 70.7422 99.9422 70.7178C102.319 70.3247 104.418 68.7452 105.978 66.8978C105.99 66.9002 106 66.9022 106.011 66.8978C106.154 66.8432 106.294 66.7838 106.432 66.722L106.447 66.7156C108.656 65.7248 110.31 63.8534 111.169 61.674C111.23 61.6433 111.289 61.6058 111.349 61.5732C111.377 61.582 111.41 61.5752 111.434 61.5466C111.445 61.5334 111.456 61.5203 111.465 61.5072C113.009 60.5361 113.537 58.4361 113.531 56.6834C113.549 56.7116 113.601 56.714 113.619 56.6721C114.475 54.5832 114.263 52.2128 113.329 50.1436C113.36 50.1392 113.386 50.115 113.386 50.0734C113.373 48.1885 113.296 46.2291 113.068 44.2829C113.367 44.5838 113.719 44.8189 114.127 44.9507C114.635 45.6732 115.325 46.2313 116.206 46.4071C117.413 47.5954 119.008 48.3117 120.79 48.0699L120.803 48.0611C122.172 48.841 123.743 49.1968 125.443 48.9135C125.601 48.8959 125.759 48.8696 125.915 48.8257L125.928 48.8168C126.076 48.7816 126.225 48.7422 126.377 48.6983C126.451 48.6762 126.458 48.5598 126.377 48.5401L126.388 48.5423Z" fill="#F4EFEF"/>
<path d="M126.388 48.5423C124.466 48.0633 122.814 46.9189 121.743 45.2405C120.698 43.6084 119.983 41.8027 118.864 40.2102C116.997 37.5499 113.98 35.1226 110.542 35.5224C110.441 35.3357 110.214 34.949 110.205 34.9402C110.314 34.7865 110.389 34.5954 110.384 34.4394C110.367 33.7189 108.535 33.664 108.509 33.664C107.911 32.7216 107.203 31.8583 106.415 31.0741C106.419 31.0719 106.423 31.0653 106.423 31.0653C106.438 31.0653 106.454 31.0653 106.469 31.0587C106.614 30.9906 106.605 30.7556 106.574 30.6259C106.544 30.4898 106.463 30.3184 106.316 30.2811C106.441 29.7648 106.281 29.2113 105.827 28.8839C105.372 28.5523 104.747 28.5852 104.256 28.8378C104.175 28.6819 103.882 28.6929 103.75 28.761C103.715 28.7785 103.674 28.8136 103.634 28.8554C102.554 28.1634 101.399 27.5857 100.208 27.1354C100.072 27.0849 99.9358 27.0365 99.7999 26.9904C99.8174 26.9728 99.8369 26.9553 99.8545 26.9377C99.8657 26.9311 99.8744 26.9245 99.8832 26.9179L99.8788 26.9157C100.479 26.3929 101.38 26.3929 102.138 26.0722C102.709 25.8306 103.089 25.4066 103.321 24.8332C103.845 23.5394 103.367 22.0237 102.468 21C102.959 22.0039 103.143 22.8035 103.084 23.7195C102.997 25.0705 102.236 25.6965 100.948 25.8591C100.212 25.9514 99.3177 26.1051 98.9453 26.74C98.803 26.7048 98.6582 26.6719 98.5161 26.6477C98.5223 26.6258 98.5205 26.6016 98.5072 26.5752C97.3328 24.4796 92.907 27.7549 94.1713 29.7626C94.1624 29.8395 94.1163 30.0153 94.0968 30.024C93.7944 30.1317 93.5446 30.3514 93.3364 30.6105C92.6419 31.4673 92.5477 32.5612 91.1343 32.436C89.4102 32.2822 88.0124 30.4634 87.7689 29.0861C87.7582 29.0268 87.6792 29.0268 87.6768 29.0861C87.6178 30.7292 88.6236 32.8336 90.2843 33.3498C91.0533 33.5893 91.9013 33.4839 92.5869 33.0555C92.8762 32.8732 93.1349 32.6381 93.3429 32.3657C93.6716 31.933 93.7856 31.3926 94.1514 31.0016C94.1908 31.6869 94.4298 33.3916 94.4558 33.5673C94.3923 33.6046 94.3354 33.653 94.3003 33.6947C94.1624 33.8617 94.1318 34.0989 94.1801 34.3054C93.906 34.6108 93.8556 35.1534 93.9126 35.529C93.974 35.9398 94.2194 36.3659 94.5852 36.5614C94.4626 36.724 94.5303 36.9722 94.6685 37.1128C94.7495 37.1941 95.0957 37.2709 95.1177 37.2688C95.3719 38.4066 95.6719 39.5336 96.0488 40.6407C96.0401 40.6407 96.0292 40.6407 96.0182 40.6452C95.5998 40.8537 95.1966 41.3985 95.4551 41.8775C95.6085 42.1651 96.0926 42.2026 96.1146 42.2465C96.1233 42.2642 96.1321 42.2817 96.1408 42.2992C94.2896 44.6299 95.2996 47.8437 95.1877 50.5478C95.0542 53.7968 92.6177 56.5163 89.3158 56.7051C89.2042 56.7116 89.1867 56.8589 89.2894 56.8939C90.6853 57.4013 92.2036 57.2389 93.5031 56.5908C95.3367 57.474 97.5037 56.5073 98.5423 54.8512C98.6739 54.6403 98.7878 54.425 98.8883 54.2032C99.7473 53.7022 100.376 52.2414 100.534 51.286C100.547 51.286 100.562 51.286 100.573 51.2727C101.143 50.7257 101.406 49.9218 101.362 49.1397C102.538 50.7895 103.496 52.615 103.866 54.6162C104.37 57.3532 103.661 59.9913 101.781 62.0452C100.731 63.1922 99.4756 64.0134 98.139 64.7076H98.1348C95.4376 65.5599 92.7317 64.5715 90.3457 63.2973C88.2665 62.1859 86.2572 60.9579 84.0771 60.0464C79.658 58.1967 74.7083 57.9355 70.2081 59.6774C70.0743 59.73 70.0831 59.9387 70.2432 59.9407C72.5152 59.9476 74.7808 60.4242 76.8141 61.4589C77.57 61.8433 78.2908 62.2869 79.0049 62.7418C80.0061 63.9015 79.9121 65.5054 80.6306 66.8078C81.0689 67.603 81.8534 68.1766 82.7164 68.4795C82.5435 68.4664 82.3704 68.4554 82.1972 68.4485C80.1927 68.3785 78.306 69.2614 76.6759 70.3753C76.6607 70.3817 76.6452 70.3885 76.6321 70.395C76.6146 70.4036 76.6038 70.4147 76.597 70.428C76.5862 70.4366 76.5751 70.4435 76.5643 70.4499C76.1304 70.426 75.6989 70.4105 75.2694 70.406C70.7537 70.371 64.6824 72.8291 61.1768 68.7253C61.1003 68.6377 60.9532 68.752 61.0146 68.8508C63.7906 73.2023 68.602 75.7548 73.6544 76.302C79.5308 76.9388 85.3392 75.0387 90.3851 72.1305C93.3539 70.4191 96.0381 68.2796 98.9388 66.4628C99.2521 66.4258 99.5567 66.3771 99.8524 66.3245C101.482 66.0347 103.069 65.4766 104.609 64.8768C103.518 67.1175 101.877 69.0376 99.8349 70.463C99.7034 70.5554 99.7868 70.7422 99.9422 70.7178C102.319 70.3247 104.418 68.7452 105.978 66.8978C105.99 66.9002 106 66.9022 106.011 66.8978C106.154 66.8432 106.294 66.7838 106.432 66.722C106.436 66.722 106.443 66.7176 106.447 66.7156C108.656 65.7248 110.31 63.8534 111.169 61.674C111.23 61.6433 111.289 61.6058 111.349 61.5732C111.377 61.582 111.41 61.5752 111.434 61.5466C111.445 61.5334 111.456 61.5203 111.465 61.5072C113.009 60.5361 113.537 58.4361 113.531 56.6834C113.549 56.7116 113.601 56.714 113.619 56.6721C114.475 54.5832 114.263 52.2128 113.329 50.1436C113.36 50.1392 113.386 50.115 113.386 50.0734C113.373 48.1885 113.296 46.2291 113.068 44.2829C113.367 44.5838 113.719 44.8189 114.127 44.9507C114.635 45.6732 115.325 46.2313 116.206 46.4071C117.413 47.5954 119.008 48.3117 120.79 48.0699C120.796 48.0699 120.799 48.0655 120.803 48.0611C122.172 48.841 123.743 49.1968 125.443 48.9135C125.601 48.8959 125.759 48.8696 125.915 48.8257C125.921 48.8257 125.923 48.8191 125.928 48.8168C126.076 48.7816 126.225 48.7422 126.377 48.6983C126.451 48.6762 126.458 48.5598 126.377 48.5401L126.388 48.5423ZM110.503 36.0166C110.678 36.3747 110.84 36.7371 110.989 37.0996C110.913 37.1809 110.84 37.2534 110.726 37.2973C110.509 37.3786 110.288 37.3171 110.109 37.1831C109.826 36.97 109.751 36.6537 109.64 36.3439C109.975 36.4187 110.323 36.2868 110.503 36.0166ZM112.736 44.5047C112.803 45.089 112.862 45.6777 112.917 46.2686C112.51 46.3499 112.214 46.0754 112.142 45.6821C112.593 45.5261 112.709 44.9352 112.736 44.5047ZM112.725 44.4564L112.729 44.4497V44.4739C112.729 44.4739 112.729 44.4608 112.725 44.4564ZM111.215 46.2116C111.049 46.0379 110.983 45.8051 110.897 45.5855C111.112 45.5481 111.215 45.3812 111.257 45.1835C111.384 45.4933 111.638 45.7568 111.993 45.7173H111.999C111.999 45.726 111.999 45.7348 111.999 45.7437C112.113 46.2291 111.579 46.5894 111.215 46.2116ZM111.701 47.1604C111.555 46.9014 111.388 46.6508 111.204 46.4093C111.276 46.462 111.359 46.5037 111.454 46.5212C111.526 46.5345 111.594 46.5345 111.662 46.5234C111.686 46.7343 111.693 46.9497 111.701 47.1604ZM106.033 43.5513C106.375 44.1883 106.693 44.8408 106.975 45.5064C106.686 45.447 106.432 45.3218 106.219 45.1109C106.149 45.0407 106.092 44.9682 106.042 44.8913C106.005 44.81 105.963 44.7353 105.915 44.6651C105.889 44.6124 105.862 44.5574 105.836 44.5047C106.077 44.2368 106.103 43.8918 106.033 43.5513ZM102.392 64.7231C102.258 64.743 102.118 64.78 101.98 64.8374C101.689 64.8901 101.364 64.8967 101.386 64.5166C101.404 64.1981 101.697 64.1058 101.919 63.9564C101.943 63.9852 101.971 64.0134 102.004 64.0377C102.166 64.1607 102.352 64.1607 102.541 64.1015C102.451 64.2334 102.392 64.3827 102.381 64.5451C102.376 64.6045 102.381 64.6618 102.392 64.7231ZM102.455 63.9323C102.175 64.0047 101.938 63.7916 101.989 63.5018C102.019 63.3305 102.153 63.1922 102.234 63.0425C102.238 63.0336 102.241 63.025 102.238 63.0185C102.506 63.0998 102.839 63.0381 103.086 62.9086C103.027 63.1149 103.082 63.3415 103.229 63.506C102.988 63.6642 102.729 63.864 102.455 63.9323ZM104.418 61.8477C104.418 61.8477 104.412 61.852 104.41 61.8564C104.401 61.8739 104.392 61.8958 104.383 61.9134C104.162 62.2408 103.779 62.7329 103.411 62.5244C102.983 62.2825 103.266 61.6412 103.391 61.2697C103.411 61.2459 103.428 61.2216 103.443 61.2017C103.448 61.2017 103.455 61.2017 103.455 61.2017C103.698 61.1866 103.923 61.0304 104.103 60.8261C103.987 61.2172 104.022 61.6456 104.418 61.8477ZM104.37 59.1721C104.37 59.1721 104.377 59.1501 104.379 59.1391C104.41 59.1391 104.438 59.1391 104.469 59.1391C104.738 59.1083 104.966 58.9283 105.12 58.6977C105.107 58.9348 105.152 59.1721 105.301 59.3588C105.354 59.4247 105.415 59.4818 105.483 59.5257C105.472 59.5521 105.461 59.5807 105.448 59.6094C105.275 59.8969 105.113 60.2418 104.712 60.2088C104.333 60.178 104.272 59.8332 104.304 59.5102C104.359 59.4072 104.386 59.2928 104.37 59.1721ZM104.445 60.3122C104.493 60.3386 104.548 60.3606 104.614 60.3736C104.879 60.4286 105.133 60.3122 105.308 60.1188C105.291 60.2837 105.304 60.4505 105.372 60.6067C105.442 60.7667 105.582 60.9316 105.751 60.9974C105.525 61.3908 105.102 61.8739 104.596 61.7139C103.963 61.5138 104.3 60.7428 104.445 60.3298C104.447 60.3231 104.445 60.3167 104.445 60.3122ZM103.235 62.6518C103.213 62.6758 103.196 62.7023 103.178 62.7263C102.905 62.8207 102.578 62.9285 102.291 62.8338C101.805 62.6758 102.118 62.2233 102.348 61.9816C102.613 62.0212 102.946 61.7533 103.189 61.4983C103.023 61.8828 102.905 62.3992 103.235 62.6518ZM103.327 62.7394C103.327 62.7394 103.336 62.7242 103.338 62.7174C103.671 62.878 104 62.6474 104.247 62.3594C104.208 62.6319 104.243 62.911 104.414 63.1348C104.453 63.1878 104.502 63.2337 104.554 63.2755C104.548 63.2822 104.543 63.2886 104.537 63.2973C104.272 63.4623 103.994 63.6422 103.665 63.5633C103.301 63.4754 103.071 63.06 103.327 62.7394ZM104.462 62.843C104.375 62.6031 104.401 62.3442 104.445 62.0937C104.489 62.0277 104.526 61.9619 104.559 61.9047C105.041 62.0452 105.556 61.6851 105.814 61.261C105.808 61.3029 105.801 61.3446 105.795 61.384C105.672 62.0013 105.507 62.612 105.304 63.2073C105.295 63.2073 105.288 63.2097 105.28 63.2141C104.955 63.3721 104.583 63.1699 104.462 62.843ZM105.597 59.5851C105.72 59.6356 105.854 59.6489 105.987 59.607C105.965 60.0267 105.937 60.4485 105.88 60.868C105.365 60.6285 105.47 60.0993 105.597 59.5851ZM105.332 59.0117C105.253 58.7371 105.31 58.456 105.326 58.1768C105.326 58.1704 105.328 58.1617 105.33 58.1549C105.348 58.1593 105.365 58.1637 105.385 58.1661C105.768 58.2098 105.981 57.92 106.132 57.5949C106.051 58.2098 106.027 58.8271 105.996 59.4446C105.705 59.5191 105.413 59.2928 105.332 59.0117ZM105.606 57.9506C105.321 58.0717 105.085 57.8693 104.997 57.6038C104.927 57.3838 104.959 57.1445 104.944 56.9183C104.944 56.9008 104.931 56.8897 104.918 56.8853C104.957 56.8808 104.997 56.8722 105.032 56.8589C105.295 56.7621 105.466 56.5447 105.558 56.2899C105.58 56.4527 105.637 56.6065 105.755 56.7339C105.886 56.8722 106.082 56.9622 106.257 56.9247C106.241 56.9292 106.228 56.9426 106.217 56.9622C106.038 57.2852 105.983 57.7902 105.606 57.9506ZM104.204 50.4556C104.397 50.6687 104.659 50.8203 104.914 50.7609C104.968 51.1167 105.056 51.5056 104.968 51.8592C104.848 52.3402 104.318 52.3624 104.116 51.923C104.107 51.9053 104.092 51.9011 104.077 51.9011C104.199 51.7032 104.243 51.4287 104.263 51.22C104.289 50.963 104.267 50.7015 104.204 50.4556ZM103.932 49.032C104.199 49.3659 104.609 49.6471 104.999 49.4275C105.128 49.7702 105.367 50.2513 104.988 50.5214C104.629 50.7784 104.281 50.2885 104.063 50.0162C104.164 49.7395 104.064 49.3528 103.932 49.032ZM101.467 46.5806C101.721 46.7871 102.037 46.8925 102.293 46.6816C102.438 46.9672 102.595 47.3472 102.506 47.6702C102.438 47.9162 102.184 47.9492 101.989 47.8349C101.838 47.7449 101.737 47.5889 101.618 47.4615C101.684 47.189 101.594 46.8706 101.467 46.5806ZM104.828 44.6277C105.104 44.7925 105.426 44.8386 105.709 44.6277C105.731 44.7442 105.777 44.8561 105.838 44.9593C105.972 45.346 106.147 45.7348 106.057 46.15C105.858 47.0837 104.971 46.0335 104.708 45.6646C104.962 45.4009 104.958 44.9901 104.828 44.6277ZM106.307 47.3186C106.458 47.4416 106.638 47.5251 106.835 47.5384C106.995 47.5493 107.153 47.5142 107.289 47.4416C107.46 47.8481 107.672 48.3445 107.407 48.753C107.019 49.3484 106.552 48.8257 106.281 48.4632C106.279 48.4588 106.272 48.4588 106.268 48.4544C106.263 48.4435 106.259 48.4324 106.254 48.4236C106.25 48.4149 106.246 48.4061 106.239 48.3994C106.555 48.1227 106.462 47.7097 106.307 47.3186ZM106.811 52.9533C106.811 53.1817 106.826 53.4146 106.776 53.6342C106.702 53.9548 106.434 54.2118 106.106 54.023C105.884 53.8956 105.867 53.5398 105.827 53.3113C106.035 53.2059 106.121 52.973 106.149 52.751C106.169 52.593 106.182 52.4107 106.182 52.2283C106.311 52.4501 106.52 52.5908 106.822 52.5029C106.794 52.6478 106.792 52.8016 106.811 52.9533ZM106.318 54.2954C106.316 54.6425 106.241 54.9851 106.049 55.2794C105.968 55.4049 105.83 55.6312 105.619 55.4881C105.549 55.44 105.499 55.3126 105.47 55.2377C105.453 55.1918 105.44 55.1475 105.431 55.1014C105.45 54.972 105.459 54.8444 105.455 54.7259C105.733 54.5721 105.847 54.2823 105.869 53.9725C105.965 54.1613 106.114 54.302 106.318 54.2998V54.2954ZM105.354 49.9107C105.547 50.0909 105.805 50.1831 106.068 50.0623C106.073 50.0623 106.077 50.0581 106.077 50.0581C106.07 50.0734 106.068 50.0909 106.075 50.1106C106.167 50.4731 106.333 51.0179 105.954 51.2794C105.582 51.5342 105.328 51.1695 105.131 50.8752C105.115 50.8092 105.098 50.7478 105.082 50.6906C105.354 50.5149 105.409 50.2138 105.354 49.9152V49.9107ZM105.273 48.2895C105.507 48.5224 105.808 48.6586 106.112 48.4896C106.195 48.876 106.403 49.5549 106.044 49.8383C105.654 50.148 105.369 49.6867 105.159 49.3792C105.148 49.3617 105.139 49.344 105.128 49.3287C105.376 49.0936 105.376 48.6719 105.273 48.2895ZM105.201 51.2749C105.385 51.4858 105.648 51.6133 105.93 51.5122C105.935 51.5122 105.937 51.5078 105.941 51.5056C105.893 51.9339 106.038 52.3777 105.946 52.806C105.869 53.1596 105.518 53.2892 105.244 53.03C105.047 52.8412 105.01 52.549 104.934 52.3008C105.199 52.0746 105.24 51.6638 105.201 51.2749ZM106.226 51.9361C106.162 51.7714 106.139 51.5847 106.106 51.4112C106.375 51.2091 106.412 50.8488 106.36 50.5061C106.529 50.7192 106.745 50.8708 106.993 50.8026C106.993 51.0026 107.03 51.2025 107.032 51.4045C107.035 51.6066 107.065 51.9295 106.969 52.1096C106.752 52.5073 106.346 52.2481 106.226 51.9361ZM106.52 50.4117C106.393 50.2843 106.298 50.1194 106.204 49.9635C106.469 49.7197 106.465 49.2407 106.382 48.8432C106.566 49.1024 106.835 49.287 107.14 49.199C107.225 49.5549 107.313 50.0273 107.172 50.3765C107.045 50.6973 106.717 50.6093 106.52 50.4117ZM105.372 48.1863C105.284 48.1138 105.212 48.0261 105.144 47.9359C105.098 47.8371 105.05 47.7491 104.999 47.6767C105.356 47.3913 105.293 46.8992 105.117 46.4509C105.352 46.6597 105.632 46.7848 105.891 46.6882C105.948 47.099 106.244 47.446 106.248 47.8656C106.252 48.3863 105.716 48.4741 105.372 48.1863ZM105.008 47.2769C104.855 47.7075 104.386 47.6964 104.081 47.411C103.908 47.2484 103.796 47.0221 103.678 46.8178C103.904 46.4268 103.77 45.9458 103.555 45.5394C103.845 45.803 104.228 45.9918 104.567 45.7853C104.791 46.2116 105.185 46.7782 105.008 47.2769ZM104.618 45.4384C104.287 45.9941 103.682 45.4625 103.362 45.1813C103.577 44.8408 103.443 44.296 103.213 43.8808C103.551 44.1774 104.002 44.397 104.326 44.1599C104.329 44.1663 104.331 44.173 104.335 44.1796C104.581 44.5091 104.859 45.034 104.618 45.4384ZM101.866 43.4502C102.16 43.6195 102.51 43.7028 102.769 43.5468C102.983 43.9401 103.347 44.3926 103.255 44.8649C103.117 45.5788 102.442 45.1153 102.057 44.7836C102.035 44.7464 102.013 44.709 101.995 44.676C101.978 44.6454 101.952 44.6343 101.925 44.6321C101.934 44.619 101.945 44.6057 101.952 44.5926C102.153 44.2609 102.065 43.8149 101.866 43.4502ZM99.85 44.4652C100.096 44.6607 100.427 44.7331 100.694 44.518C100.841 44.8319 101.079 45.1858 101.114 45.5261C101.145 45.825 100.926 46.0621 100.61 45.9743C100.405 45.9172 100.251 45.7503 100.098 45.6096C100.205 45.2582 100.041 44.8255 99.85 44.4652ZM98.2443 42.7275C98.4917 42.8682 98.779 42.9231 98.9958 42.721L98.9978 42.7255C99.2169 42.9978 99.9138 43.5513 99.5174 43.9423C99.2412 44.2147 98.9145 43.984 98.6695 43.7469C98.6344 43.7095 98.5992 43.6743 98.5642 43.6436C98.5268 43.6062 98.4941 43.5712 98.4635 43.5382L98.4547 43.5338C98.5048 43.2437 98.3997 42.9736 98.2443 42.7275ZM97.5936 41.247C97.8435 41.3876 98.1149 41.3898 98.3297 41.2228L98.3339 41.2317C98.5487 41.4688 98.93 41.8753 98.9584 42.2157C98.989 42.5673 98.746 42.7693 98.4172 42.6617C98.2814 42.6178 98.161 42.532 98.0426 42.4485C98.0229 42.4222 98.0009 42.3958 97.9814 42.3694C97.957 42.3409 97.9287 42.3344 97.9025 42.3409C97.955 41.9939 97.7797 41.5764 97.5936 41.247ZM98.3339 39.5424C98.5793 39.6368 98.838 39.6215 99.0548 39.4456C99.3376 39.7884 99.6114 40.2014 99.7186 40.6363C99.8458 41.1526 99.6314 41.6797 98.9234 41.3963C98.781 41.3393 98.652 41.2339 98.5181 41.1503C98.5028 41.1328 98.4873 41.1151 98.4722 41.0976L98.4635 41.091C98.5137 41.0229 98.5598 40.9438 98.597 40.8494C98.779 40.3904 98.63 39.9069 98.3339 39.5424ZM99.0065 37.6268C99.3703 37.8641 99.7868 38.0244 100.069 37.6642C100.398 38.0574 100.772 38.6197 100.764 39.1535C100.759 39.3425 100.648 39.6257 100.477 39.7225C100.337 39.8015 100.032 39.7511 99.8788 39.7048C99.6245 39.6302 99.4033 39.4545 99.1863 39.3095C99.2018 39.2897 99.2193 39.2722 99.2344 39.2502C99.57 38.7494 99.3329 38.0991 99.0065 37.6268ZM99.9114 35.8101C100.243 36.0672 100.663 36.1792 101.027 35.9441C101.235 36.3132 101.491 36.6581 101.526 37.0952C101.557 37.4753 101.426 37.897 100.992 37.9124C100.696 37.9234 100.464 37.7103 100.247 37.5324C100.231 37.5214 100.216 37.5192 100.203 37.5214C100.199 37.5148 100.192 37.5082 100.188 37.5016C100.183 37.4972 100.179 37.495 100.172 37.4906L100.177 37.484C100.431 36.9436 100.242 36.2978 99.9114 35.8101ZM101.502 34.5756C101.71 34.8304 102.002 35.0018 102.35 34.9842C102.446 35.373 102.594 35.9222 102.392 36.2978C102.146 36.7503 101.739 36.5131 101.43 36.2407C101.349 36.0979 101.257 35.9639 101.169 35.8453L101.165 35.8409C101.526 35.5004 101.572 35.0347 101.506 34.5778L101.502 34.5756ZM101.984 38.4133C102.21 38.5187 102.46 38.5231 102.657 38.3254C102.749 38.5385 102.81 38.7581 102.823 38.9954C102.83 39.1008 102.83 39.2084 102.802 39.3117C102.747 39.5203 102.53 39.7511 102.293 39.5643C102.285 39.5577 102.278 39.5533 102.269 39.5511C102.315 39.1821 102.188 38.7625 101.984 38.4133ZM101.355 41.8687C101.651 42.0663 102.035 42.1674 102.282 41.8818C102.525 42.2553 102.861 42.5409 102.845 43.0394C102.832 43.4613 102.385 43.4613 102.089 43.3734C101.914 43.3206 101.765 43.2284 101.629 43.1141C101.585 43.0658 101.539 43.0197 101.491 42.9803C101.769 42.6264 101.572 42.2223 101.355 41.8687ZM100.313 41.7324C100.562 41.8423 100.825 41.8489 101.016 41.6336C101.149 41.8884 101.382 42.1388 101.439 42.4244C101.555 43.0153 100.865 43.312 100.51 42.8221C100.503 42.8132 100.494 42.8066 100.486 42.8044L100.479 42.7979C100.67 42.4288 100.536 42.0554 100.313 41.7324ZM98.7591 41.4446C99.1184 41.6666 99.5305 41.7896 99.7931 41.3985C100.12 41.728 100.527 42.1565 100.341 42.6595C100.094 43.3295 99.4887 42.8374 99.1184 42.5518C99.2652 42.2245 99.0133 41.7829 98.7591 41.4446ZM99.458 39.6654C99.8218 39.918 100.295 40.0826 100.63 39.8433C100.851 40.1772 101.038 40.5814 101.04 40.9899C101.04 41.1789 100.992 41.504 100.79 41.5941C100.499 41.7215 100.229 41.5326 100.003 41.3613C99.9708 41.3261 99.9378 41.293 99.907 41.2623C99.8983 41.2536 99.8875 41.247 99.8788 41.2425C100.087 40.744 99.7868 40.1333 99.458 39.6654ZM101.655 41.8818C101.493 41.8401 101.353 41.7413 101.215 41.6469C101.193 41.6094 101.171 41.5742 101.152 41.5392C101.141 41.5195 101.123 41.5084 101.108 41.5018C101.112 41.4931 101.119 41.4842 101.126 41.4754C101.34 41.0471 101.209 40.522 100.99 40.0893C101.255 40.265 101.557 40.3551 101.811 40.2497C101.811 40.2607 101.811 40.2738 101.818 40.2871C101.987 40.6407 102.225 40.9394 102.252 41.3524C102.271 41.6952 102.015 41.9697 101.658 41.8775L101.655 41.8818ZM101.36 40.1267C101.167 40.0893 100.99 39.9466 100.832 39.8236C100.81 39.7906 100.788 39.7576 100.766 39.7248L100.762 39.7203C100.781 39.694 100.803 39.6676 100.821 39.639C101.163 39.0986 100.834 38.3869 100.466 37.8641C100.772 38.0925 101.152 38.2221 101.441 37.9585C101.664 38.3649 101.969 38.6966 102.061 39.1733C102.146 39.6149 101.98 40.2475 101.36 40.1267ZM101.706 36.959C102.013 37.3171 102.308 37.6818 102.595 38.0596C102.532 38.1914 102.409 38.2792 102.219 38.2902C102.041 38.299 101.901 38.2133 101.769 38.1079C101.691 38.0156 101.61 37.9344 101.524 37.8685C101.539 37.8487 101.555 37.8267 101.57 37.8047C101.737 37.5456 101.761 37.249 101.706 36.959ZM101.594 36.579C101.805 36.713 102.044 36.7657 102.28 36.6449C102.424 36.9876 102.617 37.35 102.648 37.7235C102.655 37.8047 102.648 37.8817 102.635 37.9519C102.219 37.4379 101.897 37.0293 101.66 36.7657C101.64 36.702 101.62 36.6405 101.594 36.579ZM102.786 38.1408C102.876 37.9475 102.87 37.7147 102.813 37.4796C102.975 37.662 103.174 37.7894 103.402 37.7982C103.47 37.8004 103.527 37.7894 103.579 37.7718C103.687 38.0266 103.873 38.5604 103.595 38.7208C103.465 38.7955 103.334 38.7406 103.215 38.6637C103.062 38.4813 102.92 38.3056 102.786 38.1408ZM103.207 37.5543C102.815 37.3434 102.585 36.9283 102.451 36.5219L102.449 36.5175C102.617 36.3462 102.677 36.0957 102.672 35.8321C102.87 36.1462 103.176 36.3967 103.505 36.4384C103.575 36.4472 103.639 36.4472 103.698 36.4406C103.726 36.8558 103.845 37.8948 103.207 37.5543ZM99.64 44.0675C99.9114 43.8083 99.791 43.3844 99.5589 43.0549C99.8458 43.2109 100.155 43.2459 100.392 42.9384C100.525 43.2834 100.772 43.6215 100.766 43.9973C100.759 44.3684 100.424 44.5727 100.087 44.4564C99.8875 44.3883 99.7648 44.2279 99.629 44.0764C99.6334 44.0742 99.6356 44.0719 99.64 44.0675ZM100.667 43.1296C100.88 43.2614 101.158 43.257 101.371 43.0966C101.645 43.3931 101.875 43.7336 101.873 44.1577C101.873 44.4958 101.629 44.7748 101.268 44.6848C101.084 44.6387 100.95 44.5113 100.816 44.3861C101.051 44.0434 100.869 43.5293 100.667 43.1296ZM104.298 43.8721C103.958 44.3531 103.253 43.7006 102.922 43.4064C103.108 43.1604 103.069 42.7738 102.918 42.4332C103.187 42.6089 103.494 42.6792 103.739 42.4683C103.776 42.4354 103.809 42.4002 103.838 42.3652C103.838 42.3716 103.838 42.3761 103.842 42.3827C104.024 42.7716 104.6 43.4416 104.298 43.8721ZM103.704 42.2026C103.362 42.778 102.659 41.9631 102.394 41.6775C102.49 41.4029 102.424 41.0318 102.28 40.7198C102.569 40.9636 102.92 41.0998 103.246 40.8253C103.257 40.8142 103.268 40.8033 103.279 40.7945C103.485 41.1876 103.963 41.7676 103.704 42.2026ZM103.281 40.5001C103.078 40.9 102.635 40.7989 102.352 40.5725C102.203 40.4517 102.065 40.3177 101.921 40.1903C102.019 40.1223 102.111 40.019 102.184 39.8675C102.212 39.8081 102.232 39.7467 102.247 39.6851C102.468 39.8763 102.791 39.7312 102.909 39.4786C102.99 39.3051 103.007 39.1052 102.988 38.9053C103.224 39.3666 103.527 40.0234 103.281 40.5001ZM103.255 39.0327C103.218 38.958 103.181 38.8855 103.141 38.8196C103.146 38.8218 103.152 38.8262 103.156 38.8284C103.297 39.0261 103.433 39.2282 103.569 39.4303C103.452 39.3117 103.351 39.1667 103.255 39.0327ZM103.448 38.9361C103.518 38.9449 103.588 38.9404 103.649 38.9185C103.917 38.8174 103.945 38.5209 103.888 38.2309C104.031 38.3605 104.228 38.433 104.423 38.3935C104.5 38.3781 104.57 38.3473 104.635 38.3056C104.644 38.3737 104.659 38.444 104.679 38.5143C104.749 38.9536 104.782 39.5688 104.259 39.6829C104.206 39.694 104.155 39.6984 104.11 39.6984C103.873 39.4325 103.652 39.1777 103.448 38.9361ZM104.447 38.209C104.096 38.332 103.803 38.0156 103.748 37.6949C103.748 37.6839 103.739 37.6795 103.731 37.6752C103.86 37.5456 103.904 37.3259 103.906 37.0908C104.068 37.3808 104.326 37.6137 104.659 37.6488C104.706 37.6532 104.751 37.6532 104.793 37.6488C104.793 37.886 104.688 38.1233 104.447 38.209ZM103.84 36.4099C104.151 36.3 104.298 35.9595 104.348 35.6059C104.497 36.0694 104.846 36.5373 105.273 36.6383C105.273 36.6427 105.266 36.6449 105.266 36.6493C105.221 36.7987 105.231 36.9568 105.188 37.1062C105.091 37.4335 104.784 37.5346 104.484 37.4181C104.158 37.2907 104.035 36.992 103.884 36.7086C103.871 36.5966 103.853 36.4955 103.84 36.4099ZM104.938 37.6202C105.161 37.5456 105.319 37.3478 105.387 37.115C105.501 37.4511 105.733 37.7476 106.079 37.8201C106.077 37.8289 106.075 37.8377 106.073 37.8465C106.06 38.277 106.09 38.8723 105.604 39.0635C105.251 39.1997 105.012 38.9141 104.861 38.5956C104.843 38.4857 104.817 38.3781 104.791 38.2814C104.782 38.2463 104.758 38.2309 104.732 38.2287C104.898 38.075 104.99 37.8443 104.938 37.6202ZM109.848 41.5809C109.425 41.4029 109.357 40.7637 109.337 40.3507C109.337 40.3463 109.337 40.3441 109.337 40.3398C109.589 40.2408 109.734 39.9773 109.813 39.7071C109.9 40.0542 110.098 40.3771 110.457 40.4825C110.45 40.4936 110.444 40.5067 110.446 40.522C110.468 40.8758 110.487 41.8467 109.848 41.5809ZM109.705 39.3622C109.648 39.6324 109.589 39.9949 109.326 40.1464C109.109 40.2716 108.862 40.1639 108.726 39.9796C108.597 39.8039 108.586 39.5994 108.586 39.3908C108.586 39.3864 108.583 39.3842 108.581 39.3798C108.855 39.3293 109.118 39.1272 109.248 38.8702C109.324 39.081 109.497 39.2612 109.716 39.3359C109.712 39.3446 109.707 39.3512 109.705 39.3622ZM109.066 38.7933C108.95 39.0261 108.728 39.2194 108.454 39.2172C107.904 39.215 107.841 38.6131 107.797 38.2024C108.13 38.1892 108.4 37.9409 108.531 37.6334C108.599 37.9717 108.868 38.2748 109.215 38.3452C109.149 38.4923 109.138 38.6483 109.066 38.7933ZM107.841 38.0266C107.219 38.1035 107.043 37.4511 106.997 36.9744C106.997 36.9458 106.997 36.9173 106.997 36.8887C107.442 36.9195 107.791 36.5065 107.9 36.0869C107.924 36.5109 108.121 36.9876 108.507 37.1699C108.343 37.5126 108.303 37.9695 107.841 38.0266ZM107.626 38.187C107.635 38.3957 107.626 38.6021 107.51 38.7845C107.352 39.0349 107.01 39.1623 106.741 39.0173C106.323 38.7933 106.34 38.2814 106.281 37.875C106.276 37.8443 106.237 37.8377 106.213 37.8509V37.8465C106.213 37.8421 106.211 37.8377 106.211 37.8377C106.526 37.8509 106.767 37.6444 106.894 37.3742C106.958 37.7608 107.223 38.1079 107.626 38.187ZM106.169 37.6444C105.674 37.5873 105.542 37.0821 105.405 36.6844C105.405 36.6757 105.402 36.6691 105.4 36.6603C105.795 36.6866 106.099 36.3923 106.209 36.0342C106.27 36.3989 106.493 36.7503 106.846 36.8558C106.759 37.2204 106.649 37.7015 106.169 37.6444ZM106.209 38.4155C106.279 38.8152 106.498 39.1909 106.927 39.237C106.956 39.2392 106.982 39.237 107.01 39.237V39.2436C106.991 39.628 106.857 40.298 106.307 40.1684C105.994 40.0937 105.817 39.7554 105.726 39.4414C105.726 39.3644 105.726 39.2853 105.722 39.2084C106.025 39.0745 106.165 38.7537 106.209 38.4155ZM107.14 39.7048C107.284 40.0365 107.58 40.3177 107.931 40.3354C107.95 40.7748 107.946 41.7038 107.26 41.4951C106.752 41.3393 106.704 40.7748 106.592 40.3376C106.881 40.2607 107.063 39.9993 107.14 39.7048ZM107.806 40.1245C107.462 40.0146 107.286 39.6962 107.181 39.3732C107.181 39.3293 107.179 39.2875 107.175 39.2458C107.175 39.237 107.17 39.2326 107.168 39.2238C107.42 39.1689 107.611 38.9822 107.712 38.7471C107.797 39.0678 108.02 39.3446 108.371 39.3886C108.389 39.3908 108.409 39.3886 108.428 39.3886C108.419 39.3996 108.413 39.4149 108.413 39.4303C108.406 39.7775 108.264 40.265 107.808 40.1201L107.806 40.1245ZM108.516 39.9113C108.608 40.1816 108.836 40.3968 109.158 40.3815C109.109 40.7615 109.199 41.4404 108.739 41.4732C108.139 41.5172 108.191 40.7418 108.112 40.3618C108.112 40.3485 108.112 40.3376 108.11 40.3243C108.11 40.3243 108.11 40.3199 108.108 40.3155C108.31 40.2628 108.444 40.107 108.516 39.9113ZM109.267 41.0054C109.355 41.4029 109.565 41.7743 109.953 41.8093C109.962 41.8093 109.97 41.8093 109.979 41.8093C109.975 41.8731 109.979 41.9389 109.986 42.0049C109.973 42.1476 109.955 42.2905 109.883 42.4179C109.729 42.6947 109.438 42.7255 109.191 42.5343C108.901 42.3102 108.824 41.983 108.827 41.6402C109.127 41.5941 109.223 41.315 109.267 41.0054ZM110.087 42.3541C110.212 42.6242 110.437 42.8484 110.729 42.8945C110.733 42.8945 110.737 42.8945 110.742 42.8945C110.639 43.1515 110.661 43.6348 110.314 43.6545C109.865 43.6809 109.769 43.1604 109.664 42.8265C109.865 42.7671 110.008 42.5781 110.087 42.3541ZM110.843 44.4475C110.661 44.2829 110.54 44.0697 110.45 43.8435C110.45 43.8324 110.45 43.8216 110.448 43.8105C110.687 43.7403 110.77 43.4877 110.83 43.2329C110.915 43.5732 111.143 43.9226 111.451 43.9401C111.443 44.085 111.447 44.2368 111.388 44.3706C111.274 44.6299 111.038 44.6234 110.843 44.4475ZM110.792 45.4581C110.593 45.4537 110.444 45.2932 110.363 45.1264C110.31 45.0209 110.292 44.8935 110.238 44.7903C110.236 44.7748 110.233 44.7573 110.229 44.742C110.398 44.654 110.453 44.4322 110.463 44.2082C110.586 44.4805 110.792 44.7287 111.059 44.7705C111.081 44.775 111.101 44.7705 111.123 44.7728C111.147 45.0429 111.145 45.4647 110.792 45.4581ZM111.572 44.241C111.673 44.4717 111.862 44.6584 112.124 44.6981C112.275 44.7222 112.429 44.6848 112.554 44.6101C112.508 44.9682 112.427 45.4339 112.026 45.5305C111.601 45.6316 111.436 45.1966 111.281 44.8802C111.281 44.8386 111.276 44.7969 111.272 44.7551C111.465 44.687 111.552 44.4652 111.572 44.241ZM111.423 43.6942C111.095 43.6084 110.987 43.2306 110.904 42.9209C110.906 42.912 110.906 42.9034 110.906 42.8945C111.228 42.8396 111.392 42.4793 111.456 42.1301C111.528 42.3827 111.66 42.6242 111.855 42.7869C111.894 42.8199 111.942 42.8484 111.993 42.8726C111.988 42.8792 111.984 42.8813 111.982 42.8901C111.942 43.0264 111.949 43.1691 111.897 43.3053C111.859 43.3997 111.807 43.4899 111.739 43.5668C111.631 43.6897 111.579 43.738 111.423 43.6986V43.6942ZM110.599 42.6528C110.371 42.532 110.231 42.3189 110.155 42.084C110.17 41.9808 110.174 41.8795 110.168 41.7896C110.444 41.7193 110.575 41.4579 110.619 41.1634C110.755 41.4424 111.007 41.6666 111.305 41.7237C111.294 42.106 111.154 42.945 110.599 42.6528ZM110.369 40.2408C110.074 40.0717 109.986 39.7312 109.878 39.4303C109.878 39.4237 109.881 39.4171 109.881 39.4106C109.883 39.3952 109.881 39.3798 109.876 39.3666C110.271 39.4128 110.549 39.1799 110.709 38.857C110.698 39.1931 110.788 39.5446 111.09 39.729C111.125 39.7511 111.16 39.7664 111.195 39.7795C111.191 39.7928 111.189 39.8059 111.184 39.8169C111.108 39.9027 111.079 40.0059 111.011 40.1003C110.856 40.3199 110.599 40.3727 110.369 40.2408ZM109.903 39.1909C109.466 39.1579 109.302 38.7339 109.364 38.3517C109.725 38.3517 110.08 38.0991 110.192 37.763C110.255 38.0684 110.391 38.3605 110.654 38.5231C110.523 38.8768 110.349 39.226 109.903 39.1909ZM109.144 38.1387C108.765 37.9959 108.621 37.5939 108.643 37.216C109.039 37.3193 109.427 37.093 109.561 36.7371C109.655 37.0161 109.837 37.2709 110.084 37.4181C110.043 37.8772 109.642 38.3254 109.144 38.1387ZM109.493 36.3264C109.471 36.3374 109.453 36.3593 109.453 36.3923C109.438 36.9722 108.789 37.3083 108.365 36.8514C108.119 36.5878 108.102 36.2056 107.981 35.8827C107.972 35.8607 107.955 35.8519 107.937 35.8541C107.937 35.8497 107.937 35.8475 107.937 35.8431C108.301 35.8804 108.654 35.674 108.796 35.3576C108.844 35.7596 109.118 36.1397 109.493 36.2956C109.493 36.3066 109.493 36.3154 109.493 36.3264ZM107.814 35.6476C107.58 35.5751 107.398 35.395 107.324 35.1599C107.271 34.9974 107.291 34.8414 107.295 34.681C107.762 34.7931 108.231 34.9007 108.7 35.0062C108.654 35.4521 108.288 35.7948 107.814 35.6476ZM107.817 35.8233C107.644 36.1792 107.519 36.7371 107.013 36.7108C106.485 36.6822 106.307 36.0166 106.292 35.5949C106.292 35.5817 106.283 35.5729 106.274 35.5663C106.634 35.5663 106.938 35.3115 107.116 34.9798C107.14 35.3532 107.471 35.7311 107.817 35.8233ZM105.845 35.25C105.466 35.015 105.33 34.6173 105.299 34.1978C105.895 34.3428 106.489 34.4877 107.085 34.6327C106.866 35.1577 106.428 35.6124 105.845 35.25ZM105.956 35.5048C106.011 35.5268 106.066 35.5422 106.119 35.5531C106.11 35.5641 106.101 35.5773 106.099 35.5927C106.07 35.8299 106.053 36.0408 105.902 36.2341C105.637 36.5724 105.231 36.5065 104.947 36.2385C104.633 35.9463 104.508 35.5839 104.368 35.2017C104.366 35.1467 104.361 35.094 104.355 35.0435C104.677 34.9996 105.028 34.8041 105.168 34.5207C105.24 34.949 105.56 35.3444 105.956 35.5048ZM104.863 34.5515C104.659 34.8041 104.322 34.9029 104.009 34.8151C103.476 34.6635 103.281 34.1978 103.207 33.7013C103.654 33.7804 104.096 33.91 104.522 34.011C104.703 34.055 104.887 34.0989 105.069 34.1429C105.003 34.2835 104.964 34.4262 104.863 34.5515ZM104.129 35.0501C104.153 35.0523 104.177 35.0501 104.202 35.0501C104.206 35.5422 104.114 36.4933 103.369 36.2034C102.87 36.0101 102.607 35.4455 102.547 34.9469C102.97 34.826 103.06 34.4131 103.111 33.9979C103.167 34.5251 103.577 34.9886 104.129 35.0501ZM102.276 34.8041C101.84 34.7975 101.596 34.4702 101.404 34.1253C101.388 34.0704 101.373 34.0176 101.358 33.9649C101.349 33.9342 101.329 33.9188 101.307 33.91C101.478 33.8221 101.66 33.7519 101.853 33.7035C102.219 33.6113 102.591 33.6135 102.966 33.664C102.885 34.1341 102.931 34.8128 102.276 34.8041ZM101.154 35.5553C100.74 36.1528 100.208 35.7926 99.7385 35.5158C99.7254 35.5092 99.7141 35.5092 99.7034 35.5136C99.7318 35.4675 99.758 35.4191 99.7888 35.3752C100.151 34.8282 100.606 34.3142 101.174 33.9869C101.174 33.9979 101.174 34.0067 101.176 34.0198C101.325 34.5163 101.474 35.094 101.154 35.5553ZM100.05 37.2424C100.001 37.4401 99.9509 37.4884 99.7693 37.5983C99.537 37.7389 99.421 37.6861 99.1907 37.5697C99.0635 37.5038 98.9495 37.4335 98.8205 37.383C98.8184 37.3786 98.814 37.3764 98.8116 37.372C98.7965 37.3544 98.779 37.35 98.7615 37.35C99.0045 36.7833 99.2718 36.2297 99.5851 35.7069C99.9313 36.1155 100.186 36.7042 100.05 37.2424ZM99.2082 38.7274C99.1973 39.0459 99.0178 39.3754 98.6826 39.4456C98.4042 39.505 98.2093 39.3403 98.0076 39.1997C98.2355 38.6329 98.4567 38.0552 98.6977 37.4862C98.9169 37.8817 99.2237 38.2463 99.2082 38.7274ZM98.4941 40.4562C98.4897 40.6868 98.3713 41.0537 98.1368 41.1548C97.8566 41.2755 97.6373 41.1306 97.427 40.9746C97.4139 40.9549 97.3984 40.9328 97.3877 40.9131C97.372 40.8889 97.3503 40.878 97.3283 40.8714C97.5343 40.4431 97.6833 39.9882 97.826 39.6521C97.861 39.5666 97.896 39.4808 97.931 39.393C98.2375 39.6785 98.5006 40.0059 98.4941 40.4562ZM97.6702 42.3916C97.5429 42.778 97.1004 42.7913 96.7916 42.6134C96.7258 42.5737 96.6668 42.5276 96.6098 42.4771C96.4015 42.2134 96.2787 42.0577 96.2744 42.0554C96.6952 41.8862 96.9955 41.4995 97.2299 41.0624C97.4685 41.4249 97.8127 41.9544 97.6702 42.3916ZM97.6593 42.7671C97.7515 42.6947 97.8127 42.6089 97.8542 42.5167C98.0446 42.7516 98.2487 43.0044 98.2858 43.314C98.3319 43.7117 98.0996 43.9071 97.747 43.9379C97.4227 43.5205 97.131 43.1449 96.8947 42.8418C97.1421 42.9539 97.4139 42.9626 97.6593 42.7671ZM98.3909 43.7358C98.803 44.0719 99.3507 44.9265 98.8575 45.379C98.5116 44.9286 98.1698 44.4894 97.8566 44.0828C98.069 44.105 98.2878 43.9313 98.3909 43.7358ZM98.9671 44.1422C99.138 44.2301 99.3222 44.2587 99.4975 44.1663C99.7079 44.5069 99.9402 44.8847 99.9577 45.2955C99.9621 45.3812 99.9728 45.535 99.9313 45.6074C99.848 45.7546 99.6181 45.893 99.4492 45.8447C99.2456 45.7876 99.0943 45.6141 98.9453 45.469C99.3727 45.1505 99.2432 44.5948 98.9671 44.1422ZM99.9708 45.8491C99.9839 45.8337 99.9948 45.8183 100.006 45.803C100.284 46.2336 100.569 46.7607 100.278 47.2286C99.9465 46.7959 99.5961 46.339 99.2456 45.882C99.48 46.0402 99.756 46.1017 99.9708 45.8491ZM100.295 45.948C100.514 46.1237 100.79 46.238 101.02 46.1082C101.02 46.117 101.025 46.1259 101.029 46.1368C101.222 46.4839 101.449 46.8728 101.454 47.2836C101.456 47.5756 101.246 47.8107 100.937 47.7471C100.718 47.7008 100.549 47.5207 100.396 47.3713C100.392 47.3669 100.385 47.3627 100.38 47.3605C100.374 47.3516 100.367 47.3428 100.361 47.3363C100.715 46.9386 100.538 46.3918 100.295 45.948ZM101.25 46.1478C101.231 46.1106 101.209 46.0732 101.191 46.0402C101.18 46.0204 101.165 46.0094 101.147 46.0007C101.158 45.9896 101.169 45.9765 101.18 45.9633C101.445 45.6207 101.204 45.1109 100.99 44.7134C101.25 44.8891 101.588 44.944 101.824 44.742C101.824 44.7508 101.829 44.7595 101.833 44.7683C102.068 45.1835 102.328 45.6249 102.322 46.117C102.322 46.2841 102.232 46.5103 102.074 46.5938C101.958 46.6552 101.748 46.5586 101.64 46.4992C101.482 46.4115 101.362 46.2841 101.25 46.1478ZM102.528 46.7518C102.493 46.686 102.458 46.6266 102.42 46.5761C102.416 46.5695 102.411 46.5675 102.407 46.563C102.668 46.2006 102.49 45.6426 102.271 45.1878C102.569 45.4142 102.946 45.5372 103.22 45.3351C103.452 45.7503 103.766 46.2555 103.498 46.7255C103.224 47.2089 102.835 47.0199 102.528 46.7518ZM102.659 47.066C102.909 47.2506 103.213 47.3033 103.5 47.0374C103.512 47.0266 103.522 47.0155 103.533 47.0046C103.533 47.0155 103.538 47.0243 103.544 47.0352C103.75 47.3933 103.982 47.9975 103.761 48.3994C103.481 48.909 103.097 48.5906 102.815 48.2632C102.751 48.1249 102.681 47.9997 102.609 47.8964C102.771 47.6767 102.751 47.356 102.659 47.066ZM102.887 49.6845C103.073 49.4144 103.06 49.0233 102.957 48.6542C103.15 48.8191 103.384 48.9024 103.625 48.7993C103.698 48.9551 103.763 49.1111 103.809 49.2781C103.851 49.4275 103.952 49.7087 103.908 49.8602C103.866 50.0009 103.717 50.1611 103.566 50.1633C103.437 50.1655 103.336 50.1172 103.233 50.0492C103.093 49.9568 102.986 49.823 102.87 49.7042C102.874 49.6978 102.883 49.6911 102.887 49.6845ZM103.796 48.6916C104.103 48.4302 104.096 47.9556 103.976 47.5362C104.226 47.7888 104.543 47.9403 104.881 47.758C105.01 48.1535 105.306 48.7247 105.072 49.1133C104.708 49.7131 104.059 48.9706 103.796 48.6916ZM104.988 52.9006C105.115 53.1904 105.341 53.4211 105.663 53.3641C105.685 53.755 105.773 54.2229 105.433 54.5041C105.016 54.8512 104.71 54.4008 104.565 54.0406C104.565 54.0186 104.561 53.9967 104.559 53.9747C104.602 53.9548 104.649 53.9264 104.692 53.8868C104.94 53.6672 105.008 53.2739 104.986 52.8961L104.988 52.9006ZM105.291 54.7875C105.266 55.0795 105.207 55.3893 105.032 55.6243C104.929 55.763 104.784 55.8725 104.605 55.8616C104.482 55.855 104.368 55.7956 104.298 55.7036C104.296 55.6594 104.294 55.6179 104.289 55.5738C104.269 55.3518 104.241 55.1324 104.206 54.9126C104.405 54.8426 104.51 54.6293 104.55 54.3964C104.688 54.6711 104.981 54.8643 105.291 54.7832V54.7875ZM104.318 56.657C104.421 56.7796 104.596 56.8609 104.767 56.8808C104.719 57.3093 104.618 57.7948 104.177 57.9242C104.256 57.5156 104.302 57.092 104.318 56.657ZM104.657 56.6876C104.46 56.6065 104.434 56.4459 104.338 56.2811C104.333 56.2746 104.326 56.2704 104.322 56.266C104.322 56.1472 104.318 56.0265 104.311 55.9055C104.46 56.0222 104.688 56.0617 104.865 55.9868C105.12 55.8815 105.277 55.6463 105.365 55.3806C105.411 55.4837 105.485 55.6024 105.584 55.6704C105.481 55.978 105.45 56.3253 105.199 56.5558C105.05 56.692 104.852 56.7689 104.657 56.6876ZM105.814 56.5073C105.687 56.2724 105.709 55.9848 105.72 55.7256C105.746 55.7276 105.773 55.7276 105.799 55.7232C106.035 55.6793 106.206 55.3675 106.301 55.1739C106.331 55.1081 106.36 55.0424 106.382 54.9742C106.445 55.2113 106.574 55.4311 106.759 55.5913C106.581 55.978 106.421 56.369 106.301 56.7778C106.105 56.7798 105.911 56.6854 105.814 56.5073ZM106.513 54.2515C106.531 54.2448 106.546 54.2404 106.564 54.2317C106.816 54.1066 106.927 53.8407 106.965 53.577C106.969 53.5398 106.975 53.5024 106.98 53.4629C107.102 53.6736 107.282 53.8429 107.514 53.9176C107.434 54.1263 107.35 54.3328 107.254 54.5371C107.111 54.8444 106.962 55.1475 106.82 55.453C106.552 55.0906 106.472 54.6975 106.513 54.2515ZM106.962 52.4413C107.133 52.3294 107.181 52.1162 107.205 51.9097C107.221 51.7868 107.232 51.6505 107.236 51.5144C107.282 51.611 107.335 51.701 107.403 51.7868C107.543 51.958 107.773 52.136 108.007 52.1537C107.915 52.6896 107.773 53.2146 107.585 53.7286C107.03 53.5682 107.085 52.9114 106.962 52.4413ZM107.85 51.9011C107.683 51.8242 107.554 51.6924 107.457 51.5386C107.302 51.2947 107.234 51.0068 107.137 50.7389C107.449 50.5478 107.482 50.1064 107.435 49.6998C107.606 49.946 107.867 50.1414 108.13 50.2402C108.134 50.3479 108.139 50.4556 108.141 50.5655C108.145 51.0398 108.108 51.5034 108.04 51.958C107.977 51.9449 107.911 51.9295 107.85 51.9011ZM107.655 49.6889C107.499 49.5132 107.427 49.3111 107.339 49.1024C107.343 49.1002 107.35 49.0958 107.35 49.0958C107.681 48.8651 107.755 48.5246 107.714 48.1754C107.773 48.2632 107.836 48.3489 107.906 48.4302C108.014 48.9573 108.086 49.4891 108.119 50.0317C107.942 49.9526 107.786 49.8383 107.655 49.6889ZM107.587 47.6636C107.543 47.547 107.495 47.4329 107.447 47.3297C107.501 47.2814 107.547 47.222 107.585 47.1584C107.674 47.4549 107.755 47.7513 107.826 48.0524C107.738 47.9272 107.661 47.7976 107.587 47.6636ZM106.656 47.2967C106.377 47.1956 106.209 46.9672 106.057 46.7277C106.044 46.6904 106.031 46.6552 106.02 46.6222C106.031 46.6158 106.042 46.6113 106.053 46.6025C106.318 46.396 106.285 45.9985 106.25 45.704C106.237 45.5943 106.217 45.4756 106.193 45.357C106.428 45.5458 106.715 45.6755 106.973 45.7151C107.008 45.7195 107.037 45.7085 107.057 45.6909C107.221 46.0862 107.368 46.4884 107.501 46.8947C107.39 47.2484 107.006 47.4219 106.656 47.2967ZM105.65 44.3905C105.334 44.7245 104.968 44.518 104.659 44.2873C104.605 44.2038 104.546 44.1269 104.482 44.0653C104.471 44.0544 104.458 44.0478 104.445 44.0456C104.741 43.6875 104.532 43.1801 104.278 42.7649C104.688 43.0769 105.247 43.2592 105.589 42.9626C105.79 43.3911 106.033 43.984 105.65 44.3905ZM104.616 42.7716C104.346 42.6309 104.164 42.3849 103.923 42.2114C104.039 41.9236 103.932 41.5764 103.768 41.2602C104.059 41.449 104.456 41.4865 104.784 41.3524C105.047 41.794 105.301 42.2378 105.553 42.6836C105.291 42.912 104.948 42.9473 104.616 42.7716ZM103.437 40.6319C103.437 40.6319 103.426 40.621 103.419 40.6166C103.601 40.3113 103.571 39.9069 103.452 39.5227C103.56 39.639 103.684 39.7378 103.818 39.7994C104.12 40.2607 104.41 40.7285 104.692 41.2009C104.145 41.3941 103.713 41.1196 103.437 40.6319ZM104.259 39.863C104.307 39.8542 104.355 39.8411 104.405 39.8214C104.513 39.7775 104.596 39.7181 104.664 39.6457C104.944 39.951 105.045 40.3068 105.043 40.7066C104.765 40.4167 104.504 40.1354 104.259 39.863ZM104.771 39.5006C104.859 39.3446 104.892 39.1557 104.892 38.9624C105.041 39.1667 105.251 39.3051 105.514 39.2722C105.529 39.2722 105.542 39.2656 105.556 39.2634C105.562 39.4633 105.564 39.6632 105.556 39.863C105.549 40.0059 105.512 40.2366 105.319 40.1881C105.223 40.1639 105.157 40.0826 105.098 40.0015C105.023 39.8169 104.912 39.6457 104.771 39.505V39.5006ZM105.174 40.2585C105.284 40.3463 105.415 40.3837 105.558 40.2936C105.681 40.2145 105.705 40.0695 105.716 39.9333C105.72 39.8938 105.718 39.8542 105.72 39.8147C105.847 40.109 106.075 40.3573 106.397 40.3662C106.445 40.5836 106.666 41.917 106.27 41.9258C105.869 41.5479 105.497 41.1789 105.15 40.8209C105.205 40.6363 105.209 40.4473 105.174 40.2629V40.2585ZM106.669 41.1789C106.804 41.4601 107.028 41.6775 107.374 41.7083C107.435 41.7149 107.492 41.7105 107.545 41.7038V41.7083C107.479 41.9522 107.598 42.8285 107.164 42.7319C106.903 42.5035 106.651 42.275 106.41 42.0488C106.636 42.0027 106.682 41.5919 106.669 41.1789ZM107.565 42.6991C107.648 42.5892 107.677 42.4618 107.685 42.33C107.784 42.5365 107.953 42.6947 108.204 42.7275C108.261 42.7341 108.314 42.7341 108.367 42.7255C108.454 43.0658 108.441 43.3997 108.365 43.738C107.996 43.4438 107.644 43.1515 107.308 42.8593C107.407 42.8396 107.501 42.7824 107.565 42.6991ZM108.15 42.521C107.808 42.4199 107.773 42.0685 107.718 41.761C107.727 41.7302 107.718 41.7016 107.703 41.6819C107.703 41.6753 107.701 41.6666 107.698 41.66C107.898 41.57 108.01 41.3677 108.067 41.1349C108.163 41.3963 108.352 41.6072 108.647 41.6424C108.581 41.9808 108.678 42.6748 108.15 42.521ZM108.579 43.2878C108.693 43.5623 108.879 43.8017 109.136 43.8457C109.178 43.8524 109.219 43.8524 109.258 43.8457C109.285 44.0434 109.267 44.2346 109.232 44.4278C109.039 44.2696 108.846 44.1158 108.656 43.9665C108.581 43.9071 108.507 43.8501 108.432 43.7908C108.513 43.6304 108.564 43.4613 108.579 43.2878ZM108.934 43.5074C108.722 43.2701 108.612 42.967 108.531 42.6617C108.612 42.6111 108.68 42.5343 108.722 42.4354C108.744 42.3827 108.763 42.3233 108.781 42.2597C108.884 42.5057 109.074 42.7166 109.315 42.8066C109.359 42.8243 109.403 42.8329 109.443 42.8396C109.443 42.844 109.443 42.8462 109.443 42.8506C109.486 43.0505 109.558 43.2878 109.458 43.4832C109.333 43.727 109.098 43.692 108.934 43.5074ZM109.414 44.1686C109.513 44.4739 109.723 44.7661 110.036 44.7792C110.065 44.7792 110.089 44.7772 110.113 44.7728C110.098 44.8496 110.109 44.931 110.111 45.0099C110.111 45.0781 110.115 45.1461 110.122 45.2121C109.865 44.9682 109.6 44.7353 109.335 44.5135C109.379 44.4014 109.403 44.2873 109.414 44.1686ZM110.098 44.5991C109.892 44.654 109.701 44.397 109.613 44.2521C109.526 44.1072 109.466 43.9468 109.416 43.7864C109.482 43.7469 109.541 43.692 109.585 43.6282C109.642 43.5426 109.672 43.4502 109.683 43.3536C109.778 43.6018 109.96 43.8061 110.251 43.8324C110.271 43.8324 110.284 43.8324 110.301 43.8324C110.233 44.0764 110.376 44.5244 110.093 44.6013L110.098 44.5991ZM110.233 45.1395C110.269 45.2164 110.31 45.2888 110.352 45.3438C110.457 45.4822 110.621 45.5877 110.796 45.5921C110.814 45.7481 110.858 45.915 110.932 46.0643C110.709 45.7986 110.468 45.5438 110.218 45.3021C110.227 45.2472 110.229 45.1944 110.233 45.1395ZM112.326 47.2154C111.988 47.1276 111.855 46.7937 111.82 46.4773C111.975 46.4048 112.096 46.2708 112.148 46.1082C112.277 46.3213 112.527 46.4554 112.788 46.4576C112.806 46.4839 112.825 46.5103 112.843 46.5389C112.832 46.5608 112.827 46.5872 112.843 46.618C113.016 46.9694 112.694 47.3122 112.326 47.2154ZM112.341 47.411C112.337 47.6922 112.26 47.9425 112.181 48.204C112.168 48.1863 112.157 48.1688 112.142 48.1512C112.054 47.8765 111.94 47.6153 111.807 47.3582C111.826 47.2594 111.837 47.1562 111.84 47.0551C111.945 47.2353 112.118 47.3713 112.337 47.411H112.341ZM112.681 44.1356C112.641 44.4103 112.359 44.5882 112.089 44.5135C111.822 44.4411 111.664 44.173 111.577 43.9248C111.809 43.861 112.017 43.5996 112.107 43.3317C112.183 43.6523 112.383 43.9576 112.657 44.0961C112.668 44.1005 112.676 44.1027 112.688 44.1027V44.1092C112.683 44.1158 112.681 44.1247 112.681 44.1356ZM112.35 43.481C112.264 43.3097 112.225 43.1274 112.199 42.9428C112.313 42.9648 112.429 42.9604 112.523 42.912C112.571 43.2329 112.617 43.5535 112.659 43.8765C112.541 43.7578 112.431 43.6414 112.35 43.481ZM112.258 42.7539C112.089 42.743 111.954 42.6287 111.855 42.5013C111.68 42.2772 111.587 42.0027 111.495 41.7391C111.885 41.7302 112.102 41.4424 112.197 41.091C112.308 41.6247 112.407 42.1607 112.492 42.7011C112.418 42.7297 112.344 42.7583 112.258 42.7539ZM111.243 41.504C110.77 41.3613 110.735 40.9044 110.661 40.5001C110.875 40.4825 111.097 40.3551 111.208 40.1728C111.259 40.3135 111.353 40.4409 111.467 40.5308C111.622 40.6516 111.875 40.7351 112.085 40.6957C112.01 41.1548 111.833 41.6797 111.243 41.504ZM111.947 40.5133C111.828 40.5045 111.71 40.4628 111.614 40.3946C111.416 40.2563 111.359 40.0365 111.329 39.8125C111.522 39.8322 111.697 39.7312 111.835 39.5797C111.918 39.8872 111.997 40.1969 112.069 40.5067C112.03 40.5111 111.988 40.5178 111.947 40.5133ZM111.079 39.4742C110.849 39.2458 110.875 38.9009 110.838 38.6022C111.075 38.6725 111.333 38.6022 111.48 38.4198C111.583 38.7317 111.682 39.0459 111.769 39.36C111.59 39.5929 111.34 39.7334 111.079 39.4742ZM110.814 38.3935C110.803 38.3847 110.79 38.3781 110.775 38.3759C110.718 38.3473 110.665 38.31 110.619 38.2639C110.415 38.0618 110.349 37.7762 110.279 37.506C110.54 37.5829 110.904 37.5192 111.071 37.2995C111.191 37.5983 111.302 37.8992 111.408 38.2024C111.307 38.4528 111.04 38.4879 110.814 38.3935ZM110.396 35.8058C110.198 36.166 109.751 36.2473 109.394 36.0057C109.064 35.7816 109.011 35.4082 108.914 35.0523C109.131 35.0984 109.346 35.1489 109.563 35.1929C109.567 35.1929 109.572 35.1929 109.576 35.1929C109.712 35.2324 109.846 35.2434 109.986 35.1534C110.001 35.1445 110.017 35.1314 110.03 35.1182C110.157 35.3444 110.28 35.5751 110.396 35.8058ZM106.055 30.4612C105.674 30.3404 105.295 30.2547 104.944 30.0482C104.541 29.8132 104.247 29.4771 104.022 29.0729C104.031 29.0729 104.039 29.0729 104.048 29.0663C105.069 28.3414 106.552 29.1827 106.055 30.4612ZM103.75 29.0355C103.776 28.9894 103.805 28.9455 103.866 28.9213C103.952 28.8862 104.051 28.9081 104.14 28.9037C104.094 28.9323 103.989 29.018 103.989 29.0311C103.972 29.0245 103.945 29.0399 103.954 29.0619C104.256 29.9296 105.192 30.6062 106.114 30.615C106.132 30.615 106.145 30.6084 106.156 30.5996C106.184 30.5996 106.268 30.4524 106.283 30.4019C106.34 30.4809 106.574 30.6282 106.368 30.8961C105.904 31.129 105.019 30.8171 104.646 30.5996C104.059 30.2591 103.689 29.7121 103.75 29.0355ZM98.9038 27.3287C98.9695 27.0849 99.0768 26.8937 99.2126 26.74C99.2521 26.6983 99.2914 26.6565 99.3353 26.6192C100.26 25.8108 102.199 26.2633 102.896 24.9694C103.496 23.8557 103.242 22.3246 102.622 21.2614C103.678 22.7134 103.895 25.3099 101.848 25.9975C101.163 26.2281 100.256 26.3138 99.7473 26.8454C99.7405 26.8432 99.7361 26.8388 99.7298 26.8366C99.5325 26.9794 99.4011 27.1881 99.3815 27.4495C99.2958 27.4539 99.2082 27.4583 99.1273 27.4429C99.0417 27.4254 98.9628 27.3946 98.8839 27.3616C98.8926 27.3551 98.9014 27.3419 98.9038 27.3287ZM98.2968 26.6103C97.2011 26.4632 96.1408 26.6565 95.2121 27.5615C94.6136 28.1437 94.3223 28.8334 94.2039 29.5715C93.5293 27.7395 97.1904 24.8486 98.2968 26.6103ZM98.1654 26.7993C97.5343 26.9992 97.1705 27.6714 97.1792 28.3546C97.188 29.0509 97.4773 29.7912 97.8654 30.459C97.3634 29.8637 96.7783 29.3211 96.1432 29.0641C95.5316 28.8159 94.7845 28.9191 94.4602 29.4793C94.4866 29.3519 94.5172 29.2245 94.5546 29.0992C94.9423 27.8581 96.119 26.9355 97.3964 26.7993C97.6482 26.7729 97.9071 26.7729 98.1654 26.7993ZM94.0398 30.8478C93.7745 31.0829 93.6541 31.4212 93.4832 31.7572C93.0165 32.6799 92.0941 33.3367 91.0334 33.2905C89.2042 33.2115 88.1481 31.4453 87.8546 29.7736C88.2729 31.0543 89.3488 32.1241 90.6481 32.4909C91.2594 32.6623 91.9953 32.6974 92.5104 32.2603C92.8126 32.0055 92.964 31.6408 93.1436 31.2981C93.3672 30.8764 93.6473 30.604 93.9609 30.3294C94.2194 30.1559 94.5107 30.0306 94.7825 29.8835C94.8395 30.0263 94.857 30.1844 94.8503 30.3426C94.8459 30.4414 94.8264 30.5205 94.7956 30.593C94.469 30.5556 94.2214 30.6567 94.0374 30.8368C94.0374 30.8412 94.0398 30.8434 94.0398 30.8478ZM94.0813 35.6388C93.9828 35.1467 94.0944 34.4855 94.5566 34.2219C94.561 34.2197 94.5655 34.2154 94.5677 34.211C95.236 34.8941 95.3212 35.7245 95.0323 36.6075C94.5459 36.4494 94.1864 36.166 94.0813 35.6388ZM94.802 36.9986C94.6617 36.8997 94.6466 36.7416 94.6424 36.5856C94.7563 36.6383 94.8789 36.6691 95.0124 36.6713C95.0059 36.6888 95.0017 36.7086 94.9949 36.7262C94.9905 36.7416 95.0124 36.7548 95.0212 36.7416C95.6806 35.9222 95.387 34.7514 94.5896 34.1516C94.583 34.1165 94.5502 34.0835 94.5063 34.0967C94.4318 34.1165 94.3686 34.1494 94.3092 34.1912C94.3223 34.0748 94.3378 33.9561 94.4012 33.8551C94.4427 33.7914 94.502 33.7387 94.5721 33.7101C94.6005 33.6969 94.6291 33.6903 94.6554 33.6816C95.7244 34.1033 96.154 36.3923 95.1571 37.0601C95.0343 37.0557 94.9204 37.0821 94.802 36.9986ZM95.293 37.1765C96.327 36.4736 96.0248 33.6245 94.7036 33.5497C94.6991 33.5454 94.6949 33.5388 94.6881 33.5366C94.6661 33.3652 94.6422 33.1939 94.6204 33.0225C94.5326 32.3174 94.4036 31.5639 94.3728 30.8192C94.4713 30.7753 94.5852 30.7468 94.7168 30.7358C94.6969 30.7665 94.6774 30.7973 94.653 30.8302C94.6466 30.839 94.653 30.85 94.6641 30.85C94.894 30.8544 94.9753 30.5556 94.9929 30.3733C95.0192 30.0965 94.9753 29.7934 94.7406 29.6177C94.6881 29.5781 94.6442 29.6572 94.6774 29.7012C94.6993 29.7297 94.7168 29.7583 94.7344 29.7868C94.618 29.8154 94.5065 29.8505 94.3968 29.89C94.4012 29.8483 94.4056 29.8066 94.41 29.7648C95.385 27.4781 97.9701 30.9488 98.7132 31.7353C98.7416 31.766 97.8916 30.2679 97.5957 29.4968C97.223 28.5303 97.1641 27.0102 98.5443 26.885C98.5642 26.885 98.7679 26.9003 98.8555 26.9223C98.8336 26.9794 98.7615 27.2364 98.7504 27.3045C98.7021 27.2847 98.652 27.265 98.6013 27.2496C98.5837 27.243 98.5706 27.265 98.5775 27.2804C98.6101 27.3419 98.665 27.4012 98.7351 27.4517C98.7395 27.4627 98.7484 27.4693 98.7591 27.4693C99.0329 27.6604 99.4955 27.7527 99.699 27.5505C99.7274 27.522 99.7123 27.4759 99.6771 27.4649C99.6159 27.4451 99.5524 27.4429 99.4866 27.4429C99.4931 27.421 99.6006 27.2254 99.6533 27.1573C100.214 27.3551 100.757 27.5989 101.253 27.823C102.039 28.1766 102.804 28.5808 103.538 29.0377C103.538 29.0641 103.288 29.9384 104.408 30.6721C104.721 30.8786 105.716 31.3025 106.254 31.1465C107.052 31.9176 107.762 32.7699 108.371 33.7167C108.371 33.7255 108.378 33.7321 108.384 33.7365C108.524 33.9539 108.658 34.1758 108.787 34.4021C107.286 34.2 105.948 33.62 104.471 33.2268C103.314 32.9193 102.011 32.7809 100.884 33.273C99.6245 33.8221 98.9564 35.1424 98.3802 36.3154C98.0535 36.9788 97.7601 37.6598 97.4753 38.343C97.3044 38.7516 96.8134 40.5286 96.3314 41.0779C95.8978 39.7994 95.5624 38.4967 95.2886 37.1787L95.293 37.1765ZM95.6129 41.5611C95.5165 41.2425 95.9153 40.9921 96.0838 40.7329C96.1345 40.878 96.2591 41.2294 96.3117 41.3788C96.3425 41.3261 96.6644 40.9308 96.8047 40.5968C97.0916 39.9136 97.3634 39.226 97.6482 38.5429C98.2814 37.0227 98.9628 34.9117 100.286 33.8507C103.029 31.6518 106.465 34.8546 109.405 34.5888C109.482 34.5822 109.484 34.4702 109.405 34.4658C109.254 34.457 109.105 34.4416 108.958 34.4262C108.958 34.4219 108.958 34.4174 108.954 34.4131C108.849 34.2219 108.739 34.0374 108.625 33.8529C108.632 33.8551 108.638 33.8595 108.647 33.8595C109.052 33.9056 110.146 33.8573 110.177 34.4438C110.192 34.7425 109.885 35.0325 109.609 35.0281C109.598 35.0281 109.587 35.0281 109.576 35.0259C107.821 34.5558 106.035 34.1802 104.267 33.7628C102.935 33.4487 101.748 33.2268 100.6 34.1472C99.5106 35.0215 98.9519 36.4318 98.4217 37.6818C98.0821 38.4813 97.6219 39.2414 97.4227 40.0871C97.1617 41.1964 95.9284 42.6001 95.6129 41.5656V41.5611ZM100.913 50.528C101.014 50.0734 100.972 49.5768 100.838 49.1441C100.832 49.1222 100.799 49.131 100.803 49.153C100.942 49.8185 100.808 50.372 100.575 50.974C100.694 49.8163 100.418 48.6081 99.8194 47.6153C99.7779 47.545 99.6795 47.6064 99.7123 47.6789C100.24 48.8585 100.593 50.0711 100.345 51.376C100.258 51.8373 100.006 52.3732 99.7186 52.8609C100.376 51.2947 100.001 49.3725 99.3791 47.8526C99.3703 47.8326 99.3397 47.8415 99.3463 47.8612C100.056 49.8053 100.135 51.6352 99.1492 53.4388C99.4931 51.6946 99.1973 49.4627 98.3802 47.96C98.3452 47.8942 98.255 47.9514 98.2838 48.0172C99.1579 50.082 99.662 52.3491 98.5618 54.4405C97.6438 56.1891 95.7595 57.0632 93.9039 56.5908C95.5251 56.3515 96.8091 55.4025 97.5824 53.9373C98.5137 52.1778 98.4283 50.0734 98.0251 48.1798C98.0208 48.1557 97.9856 48.1665 97.9901 48.1885C98.2969 50.0492 98.3297 52.0021 97.4358 53.7155C96.6732 55.1763 95.4966 55.8946 93.9959 56.312C94.3728 56.0768 94.7255 55.8023 95.0432 55.486C96.6974 53.8363 97.2844 51.3474 97.0632 49.0716C97.0545 48.9925 96.9341 48.9903 96.9386 49.0716C97.072 51.2617 96.6229 53.5442 95.0849 55.1962C94.6047 55.7123 94.033 56.1297 93.4087 56.4328C93.3999 56.4284 93.3892 56.426 93.3803 56.4218C93.3453 56.4085 93.3209 56.4439 93.3254 56.4747C92.4907 56.8657 91.5662 57.0501 90.6481 56.9797C94.0968 56.8657 96.1037 53.2564 96.3664 50.1019C96.3664 50.0975 96.36 50.0975 96.3576 50.1019C96.0796 51.8109 95.6173 53.5178 94.4318 54.8313C93.4111 55.9628 92.14 56.4658 90.7225 56.6502C92.6854 56.0792 94.3553 54.5854 95.0323 52.6128C96.176 49.2781 94.182 45.5635 96.2173 42.4399C97.2561 44.4916 98.9388 46.0776 100.376 47.8415C100.661 48.1907 100.939 48.551 101.209 48.9179C101.209 48.9223 101.206 48.9267 101.209 48.9332C101.257 49.5197 101.147 50.0381 100.915 50.5236L100.913 50.528ZM101.275 48.5423C101.108 48.3203 100.92 48.0721 100.722 47.8107C100.974 47.96 101.272 47.9953 101.491 47.7272C101.506 47.7075 101.518 47.6855 101.531 47.6658C101.675 48.1116 102.037 48.6762 101.686 49.1089C101.553 48.9179 101.415 48.7267 101.275 48.5423ZM101.743 49.1924C102.065 48.9179 102.052 48.3885 101.886 47.9711C102.068 48.0985 102.28 48.1535 102.473 48.0261C102.657 48.3511 102.791 48.6828 102.815 49.0628C102.832 49.344 102.762 49.6998 102.431 49.7197C102.245 49.7306 102.094 49.6229 101.954 49.5022C101.883 49.3989 101.813 49.2957 101.743 49.1924ZM102.151 49.7988C102.337 49.9063 102.543 49.9504 102.718 49.8471C102.887 50.0184 103.001 50.2161 103.04 50.4556C103.051 50.5214 103.047 51.0531 102.933 51.1475C102.694 50.6862 102.431 50.2358 102.151 49.7988ZM103.215 50.7653C103.237 50.5522 103.205 50.3413 103.124 50.148C103.351 50.3435 103.641 50.4467 103.912 50.2358C103.919 50.2315 103.925 50.2249 103.932 50.2183C104.085 50.6532 104.147 51.1101 104.011 51.5627C103.781 52.336 103.25 51.6199 103.036 51.2377C103.141 51.1145 103.207 50.8531 103.215 50.7653ZM103.323 51.9602C103.5 52.1317 103.717 52.2151 103.923 52.0679C103.932 52.0613 103.941 52.0526 103.95 52.0438C104.057 52.4129 104.237 53.096 103.82 53.2695C103.68 52.8235 103.512 52.3885 103.323 51.9602ZM103.858 53.3925C104.305 53.3178 104.287 52.7313 104.19 52.2875C104.338 52.4173 104.55 52.4699 104.741 52.4129C104.782 52.7379 104.837 53.0718 104.763 53.3947C104.708 53.632 104.567 53.8715 104.281 53.8473C104.12 53.8341 103.998 53.6781 103.899 53.5354C103.886 53.4871 103.873 53.4408 103.858 53.3925ZM103.985 53.8473C104.105 53.957 104.252 54.0275 104.403 54.0186C104.355 54.2887 104.427 54.649 104.188 54.8007C104.136 54.4777 104.068 54.1613 103.985 53.8473ZM104.151 58.0629C104.513 58.0738 104.71 57.7638 104.815 57.4213C104.833 57.7223 104.949 58.0124 105.218 58.1219C105.078 58.3461 105.016 58.6053 104.815 58.7921C104.561 59.0292 104.088 59.0139 103.989 58.6977C104.051 58.489 104.105 58.2803 104.151 58.0629ZM103.932 58.8909C104.009 59.0028 104.133 59.0886 104.274 59.124C104.256 59.1785 104.239 59.2379 104.224 59.3015C104.107 59.5521 103.901 59.7213 103.606 59.7388C103.728 59.4643 103.838 59.1811 103.932 58.8909ZM103.525 59.9057C103.744 59.9476 103.989 59.8552 104.16 59.695C104.151 59.8993 104.188 60.0925 104.32 60.2243C104.177 60.4395 104.048 60.6659 103.853 60.8392C103.731 60.9491 103.592 61.0459 103.421 61.0415C103.213 61.0348 103.095 60.8879 103.097 60.6967C103.253 60.4417 103.396 60.178 103.525 59.9057ZM102.977 60.8899C103.025 61.0108 103.152 61.1204 103.284 61.1711C103.091 61.4084 102.692 61.8632 102.389 61.8652C102.37 61.8344 102.326 61.8169 102.287 61.8453C102.282 61.8433 102.276 61.8409 102.271 61.8365C102.525 61.5334 102.764 61.2212 102.977 60.8899ZM102.072 62.0719C101.868 62.3264 101.728 62.6604 102.017 62.9066C102.037 62.9241 102.061 62.9374 102.083 62.9505C101.98 62.9944 101.89 63.0799 101.787 63.1328C101.603 63.2248 101.104 63.4029 101.079 63.0535C101.432 62.7462 101.763 62.4167 102.072 62.0719ZM101.386 63.4184C101.513 63.4074 101.715 63.3611 101.886 63.2798C101.796 63.449 101.772 63.6533 101.844 63.827C101.781 63.8465 101.717 63.8753 101.655 63.9103C101.461 63.9653 101.261 64.0202 101.057 64.0071C100.825 63.9915 100.727 63.8071 100.792 63.5962C100.829 63.4734 100.922 63.3786 100.994 63.2755C101.084 63.3766 101.253 63.4335 101.384 63.4228L101.386 63.4184ZM100.052 63.862C100.319 63.6708 100.58 63.4734 100.832 63.2646C100.615 63.4885 100.462 63.8709 100.751 64.0882C100.913 64.209 101.141 64.2157 101.358 64.1627C101.263 64.2859 101.209 64.4308 101.222 64.5802C101.206 64.587 101.191 64.5936 101.176 64.598C100.926 64.598 100.67 64.6375 100.429 64.552C100.164 64.4576 99.9796 64.1895 100.058 63.9083C100.063 63.8908 100.056 63.8753 100.052 63.862ZM100.006 64.5626C100.021 64.554 100.039 64.5451 100.054 64.5363C100.082 64.5671 100.115 64.5957 100.151 64.622C100.33 64.7562 100.56 64.8023 100.786 64.7913C100.591 64.9119 100.422 65.07 100.352 65.2874C100.328 65.3601 100.317 65.4416 100.315 65.5229C100.028 65.4941 99.5589 65.6787 99.4077 65.3512C99.2851 65.0855 99.8325 64.7295 100.006 64.5626ZM99.872 63.9872C99.8414 64.1476 99.8852 64.3101 99.9772 64.4439C99.7405 64.532 99.0353 64.9251 99.0154 64.532C99.307 64.3608 99.596 64.1782 99.872 63.9872ZM98.9081 64.5956C98.9234 64.712 99.0264 64.8132 99.1536 64.8438C99.2501 64.8658 99.3507 64.8482 99.4448 64.8156C99.2696 64.9626 99.1424 65.1449 99.1931 65.3492H99.1842C99.1842 65.3249 99.1599 65.3011 99.1337 65.3053C98.7021 65.3955 98.3933 65.3405 98.0645 65.0481C98.3494 64.9056 98.632 64.7538 98.9081 64.5956ZM98.722 65.5404C98.4853 65.6942 98.2945 65.9204 98.196 66.1861C97.898 66.1402 97.1771 66.1861 97.1355 65.791C97.0872 65.3186 97.6812 65.2966 97.9856 65.2087C98.1455 65.4237 98.4416 65.5491 98.722 65.5404ZM97.2889 66.2191C96.6974 66.1992 96.0993 66.1509 95.4746 66.0917C95.9874 65.9314 96.5003 65.7447 97.0042 65.5336C96.9668 65.6173 96.9493 65.7117 96.9605 65.8171C96.98 66.0083 97.1135 66.1378 97.2889 66.2191ZM70.9617 59.7125C70.9816 59.7058 70.9991 59.7014 71.0186 59.695C71.0186 59.7038 71.0187 59.7101 71.023 59.7169C71.0035 59.7169 70.9836 59.7125 70.9617 59.7125ZM63.5584 70.6937C63.5584 70.6937 63.5452 70.6937 63.5408 70.6979C63.5145 70.6828 63.4906 70.6697 63.4643 70.6542C63.495 70.6673 63.5257 70.6804 63.5584 70.6937ZM91.8574 70.9859C89.5022 72.4731 87.0111 73.7602 84.3817 74.6874C79.0005 76.5852 72.8503 76.9257 67.6162 74.3775C65.7275 73.4571 64.0229 72.1963 62.6295 70.6409C63.7054 71.6537 65.0613 72.4666 66.3324 73.1342C67.8748 73.947 69.4938 74.562 71.1876 74.9662C71.192 74.9662 71.194 74.9618 71.1876 74.9597C69.5201 74.5117 67.8967 73.8834 66.3893 73.0334C65.3048 72.4226 64.3537 71.6756 63.4006 70.9134C66.0124 72.4423 68.7359 73.6857 71.7857 74.1076C75.2518 74.5842 78.8077 74.182 82.1578 73.2133C82.1972 73.2023 82.1817 73.1409 82.1403 73.1497C78.6873 74.0176 75.0984 74.4262 71.5621 73.8439C69.4894 73.5034 67.5744 72.7804 65.7319 71.8713C66.9085 72.2887 68.1246 72.5347 69.4368 72.4817C71.6956 72.3942 73.8979 71.7944 76.1699 71.9437C76.1962 71.9437 76.2026 71.8998 76.1763 71.8952C74.1564 71.6207 72.1602 72.0556 70.1512 72.203C69.0228 72.2863 67.8856 72.2668 66.7835 71.9767C65.7713 71.7107 64.827 71.2584 63.8847 70.8146C67.2656 71.9812 71.5271 70.6409 74.9582 70.6192C80.1289 70.5884 85.8825 72.6115 90.672 69.7644C90.7465 69.7205 90.6809 69.6086 90.6044 69.6505C86.5704 71.8095 82.1515 70.9201 77.8107 70.5486C78.3259 70.428 78.8252 70.3161 79.3818 70.3399C80.1464 70.373 80.911 70.4324 81.6758 70.4741C81.6957 70.4741 81.6933 70.4479 81.6758 70.4455C80.1049 70.2698 78.6829 69.9997 77.1513 70.496C77.1162 70.494 77.0791 70.4916 77.0441 70.4894C77.7672 70.2986 78.4749 70.0631 79.2153 69.9293C80.2014 69.7493 81.2027 69.6614 82.2017 69.6219C84.0047 69.5513 85.8014 69.6437 87.6024 69.7139C87.6223 69.7139 87.6223 69.6855 87.6024 69.6831C85.6659 69.4856 83.7113 69.3251 81.7658 69.4064C80.3503 69.4657 78.7638 69.6 77.3859 70.0874C78.0956 69.6964 78.8056 69.3075 79.5747 69.0308C80.7184 68.6202 81.8598 68.5628 83.0605 68.6816C85.2252 68.899 87.3223 69.0177 89.454 68.4708C89.5042 68.4578 89.4823 68.3851 89.4321 68.394C88.1854 68.6178 86.9386 68.7695 85.6679 68.7452C84.8989 68.7297 84.1363 68.6266 83.3739 68.5453C82.7363 68.3302 82.1141 68.1148 81.5729 67.6823C80.8979 67.1439 80.5585 66.4189 80.3262 65.6062C80.0939 64.7889 79.9515 63.917 79.5157 63.1986C79.5703 63.2735 79.6248 63.348 79.6818 63.4228C79.6818 63.4315 79.6818 63.4404 79.6842 63.451C80.1903 64.8506 81.1151 66.3334 82.2806 67.2713C82.3001 67.2868 82.3309 67.2604 82.309 67.2425C81.3207 66.2895 80.8015 65.1692 80.1663 64.0313C81.9562 66.1621 84.1604 67.66 87.1226 67.6867C87.1621 67.6867 87.1621 67.6273 87.1226 67.6249C85.5364 67.5591 84.007 67.0845 82.6926 66.1861C81.5466 65.4041 80.69 64.3388 79.8245 63.2755C80.5541 63.7477 81.286 64.2157 82.0483 64.6331C85.4618 66.5113 89.4583 67.3063 93.3278 66.9156C93.3868 66.9088 93.3892 66.8164 93.3278 66.8209C89.0156 67.1813 84.8395 66.1665 81.1502 63.9083C79.4125 62.845 77.7585 61.6215 75.8762 60.8152C74.7808 60.3451 73.648 60.0486 72.4889 59.8727C74.8904 59.9542 77.0967 60.6679 79.189 61.9089C79.2109 61.9226 79.2264 61.8914 79.2089 61.8763C77.6357 60.6878 75.7272 59.9586 73.7708 59.7038C76.1918 59.7145 78.5231 60.055 80.7359 61.3534C83.3258 62.8712 85.6484 64.5802 88.7835 64.598C88.799 64.598 88.799 64.5757 88.7835 64.5757C87.0242 64.4113 85.4028 63.9828 83.8536 63.1173C82.4909 62.3551 81.2486 61.3929 79.8551 60.6792C78.0585 59.7588 76.0667 59.3872 74.0644 59.3609C77.8657 59.1457 81.5071 60.0836 84.9865 61.7884C85.0016 61.795 85.0128 61.7751 84.9997 61.7664C81.5115 59.4907 77.0549 58.7196 72.936 59.194C77.1142 58.3461 81.3056 59.0028 85.2713 60.879C89.1144 62.6979 93.3342 66.2871 97.839 64.9932C97.8236 65.002 97.8084 65.0131 97.7909 65.0199C97.5299 65.1075 95.6785 65.859 95.2733 66.0347C95.234 66.0522 95.2777 66.1728 95.3041 66.184C95.7069 66.3441 98.1742 66.5484 98.6101 66.5047C96.2547 67.8316 94.1362 69.5426 91.8507 70.9839L91.8574 70.9859ZM98.2838 66.2191C98.4941 65.8479 98.7985 65.5953 99.2149 65.4875C99.2281 65.4854 99.2368 65.4786 99.2432 65.4724C99.3332 65.6173 99.5017 65.6897 99.6664 65.7093C99.5237 65.8192 99.4142 65.9709 99.3528 66.1357C98.9914 66.1816 98.6367 66.206 98.2838 66.2191ZM100.229 65.984C100.003 66.0323 99.78 66.0721 99.5589 66.1048C99.6684 65.9115 99.8325 65.7865 100.03 65.7048C100.135 65.6918 100.236 65.6678 100.319 65.6217C100.337 65.7402 100.383 65.85 100.468 65.927C100.389 65.9445 100.31 65.9665 100.229 65.984ZM100.606 65.896C100.427 65.7049 100.402 65.4305 100.549 65.1998C100.707 64.9517 101.001 64.8394 101.253 64.7164C101.323 64.9012 101.467 64.9911 101.636 65.0199C101.369 65.1998 101.165 65.4524 101.134 65.7642C100.959 65.8105 100.784 65.8542 100.606 65.896ZM101.239 65.7336C101.34 65.4724 101.513 65.2699 101.759 65.1274C101.969 65.0042 102.21 64.9581 102.427 64.8527C102.486 65.0306 102.604 65.1888 102.771 65.2592C102.265 65.4305 101.754 65.5909 101.239 65.7336ZM102.986 65.1868C102.986 65.1868 102.968 65.1692 102.957 65.1648C102.617 65.0306 102.484 64.6725 102.624 64.3388C102.721 64.1126 102.9 63.9564 103.084 63.8047C103.181 63.7366 103.27 63.6686 103.347 63.6139C103.36 63.6227 103.373 63.6336 103.386 63.6422C103.667 63.8091 104.009 63.7851 104.281 63.6316C104.133 63.8445 104.011 64.0728 103.956 64.3233C103.925 64.4638 103.888 64.712 103.969 64.8462C103.641 64.9605 103.314 65.0748 102.986 65.1868ZM104.125 64.7913C103.989 64.6924 104.256 63.9983 104.269 63.9719C104.386 63.7521 104.541 63.5589 104.692 63.3655C104.861 63.4534 105.054 63.4822 105.231 63.4184C105.089 63.8135 104.931 64.2046 104.756 64.587C104.738 64.5846 104.719 64.5846 104.697 64.5912C104.506 64.657 104.316 64.7254 104.125 64.7913ZM111.248 61.4959C111.248 61.4959 111.25 61.4873 111.252 61.4828C111.252 61.4828 111.257 61.4828 111.261 61.4852C111.257 61.4873 111.252 61.4917 111.248 61.4959ZM113.84 55.2268C113.901 53.9484 113.439 52.593 112.747 51.5847C112.74 51.5758 112.727 51.5847 112.731 51.5935C113.404 52.8279 113.586 53.9922 113.573 55.2838C113.509 54.75 113.391 54.2251 113.215 53.7022C113.209 53.6825 113.178 53.6913 113.185 53.7111C113.338 54.3217 113.432 54.937 113.465 55.5585C113.213 53.6034 112.328 51.6263 110.862 50.3237C110.808 50.2754 110.733 50.3479 110.781 50.405C112.205 52.0679 113.198 53.9176 113.345 56.1428C113.461 57.8892 113.071 59.6575 111.901 60.9096C113.428 58.4449 112.784 55.1608 111.717 52.6369C111.71 52.6236 111.688 52.6325 111.693 52.6478C112.821 55.4486 112.985 58.2891 111.577 60.9294C111.921 60.0355 112.12 59.0928 112.148 58.1309C112.148 58.1175 112.128 58.1175 112.126 58.1309C112.028 58.9744 111.837 59.7718 111.542 60.5473C112.1 58.3724 111.888 56.0067 110.687 53.9528C110.652 53.8934 110.571 53.9462 110.597 54.0055C111.743 56.4985 112.019 59.2928 110.928 61.8652C110.139 63.726 108.763 65.1975 107.063 66.2126C110.082 63.7634 111.103 59.7608 109.944 55.9911C109.935 55.9673 109.898 55.9759 109.905 56.0023C110.404 58.1442 110.52 60.2044 109.692 62.2913C109.18 63.5829 108.352 64.745 107.33 65.6918C108.409 64.2794 109.208 62.588 109.307 60.8285C109.307 60.8086 109.278 60.8086 109.276 60.8285C108.998 63.0449 107.83 64.71 106.482 66.397C106.408 66.4519 106.333 66.5047 106.257 66.5576C106.421 66.3489 106.583 66.1402 106.734 65.927C108.441 63.5348 109.256 60.4286 108.283 57.5774C108.253 57.4895 108.117 57.5269 108.143 57.6169C108.985 60.435 108.321 63.348 106.658 65.7292C105.339 67.6185 103.341 69.545 101.044 70.2217C103.868 68.5872 106.276 65.8896 106.921 62.6405C106.11 65.9685 103.788 68.308 100.937 69.982C104.079 67.4098 106.097 63.5392 106.318 59.4577C106.362 58.656 106.331 57.8518 106.511 57.0632C106.682 56.3097 107.05 55.6199 107.381 54.9281C107.9 53.8451 108.27 52.7446 108.38 51.5408C108.614 48.9815 107.823 46.4554 106.684 44.1927C106.099 43.0308 105.453 41.8642 104.736 40.7418C105.624 41.8137 106.726 42.6925 107.832 43.5491C109.418 44.7792 110.792 46.0116 111.778 47.7075C110.91 46.708 109.85 45.8952 108.662 45.39C108.599 45.3637 108.544 45.447 108.605 45.4867C110.411 46.6466 112.12 47.8304 112.994 49.8471C114.006 52.1778 114.004 54.0822 113.835 55.2244L113.84 55.2268ZM113.231 49.9196C112.954 49.3484 112.624 48.8036 112.247 48.294C112.361 48.1271 112.425 47.9293 112.455 47.7294C112.584 48.0261 112.773 48.2895 113.097 48.3555C113.141 48.876 113.182 49.3967 113.231 49.9196ZM113.086 48.204C112.751 48.1116 112.6 47.7338 112.492 47.4219C112.698 47.4132 112.889 47.2922 112.996 47.1276C113.027 47.4857 113.058 47.8437 113.086 48.204ZM114.022 44.8078C114.022 44.8078 114.026 44.7991 114.026 44.7947C114.033 44.8034 114.037 44.8122 114.041 44.8211C114.035 44.8166 114.028 44.8122 114.022 44.8078ZM116.033 46.2336L116.04 46.2313C116.042 46.2356 116.046 46.238 116.048 46.2422C116.044 46.24 116.04 46.2358 116.033 46.2336ZM120.601 47.9755C120.601 47.9755 120.608 47.9536 120.608 47.9425C120.628 47.9556 120.648 47.9689 120.667 47.98C120.645 47.98 120.623 47.9777 120.601 47.9755ZM119.635 46.1126C119.617 46.0973 119.591 46.1215 119.609 46.139C120.507 47.0288 121.552 47.7535 122.705 48.2742C123.209 48.5027 123.752 48.7202 124.306 48.841C124.12 48.8388 123.934 48.8299 123.747 48.8102C122.49 48.6806 121.278 48.2348 120.22 47.545C117.871 46.0116 116.555 43.4394 115.803 40.8098C115.788 40.7549 115.704 40.777 115.717 40.834C116.357 43.4613 117.943 46.0885 120.135 47.6306C118.919 47.0024 117.722 46.5168 116.818 45.3834C115.904 44.241 115.444 42.8396 115.067 41.4446C115.058 41.414 115.012 41.4271 115.019 41.4579C115.371 42.9495 115.829 44.4849 116.791 45.7062C117.442 46.53 118.375 47.1693 119.361 47.6153C118.404 47.3033 117.483 46.9233 116.73 46.205C116.708 46.1853 116.679 46.2159 116.697 46.238C117.339 46.9672 118.182 47.411 119.074 47.7405C117.95 47.4571 116.931 46.9277 116.064 46.0248C114.745 44.6518 114.199 42.8748 114.043 41.0163C114.037 40.9263 113.903 40.9241 113.903 41.0163C113.901 42.6705 114.552 44.4234 115.641 45.7767C114.359 44.7947 113.919 43.2393 113.559 41.6819C113.557 41.671 113.542 41.6753 113.544 41.6863C113.824 43.2415 114.201 45.0407 115.555 45.9874C114.094 45.1153 113.612 43.6282 113.145 41.9367C113.134 41.895 113.062 41.9017 113.066 41.9478C113.145 42.8001 113.419 43.7578 113.89 44.5727C113.636 44.2454 113.417 43.8985 113.211 43.5338C113.196 43.5074 113.15 43.5249 113.163 43.5535C113.327 43.9445 113.542 44.3137 113.78 44.6651C113.511 44.4894 113.261 44.2851 113.044 44.0412C112.683 41.1129 111.971 38.2243 110.617 35.6696C110.617 35.6498 110.608 35.6344 110.595 35.6256C113.125 35.5619 115.393 36.6537 117.157 38.4594C118.905 40.2475 119.942 42.4552 121.14 44.6124C122.082 46.3082 123.441 47.6636 125.266 48.3753C121.175 47.6964 118.912 43.9709 117.104 40.4759C117.094 40.454 117.061 40.4737 117.072 40.4956C118.774 43.9204 121.267 48.6675 125.682 48.6586C123.537 48.9859 121.171 47.4482 119.635 46.1126Z" fill="#242A2E"/>
<path d="M169.349 28.1259L153.37 40.0598L169.349 54.9877H159.965L148.358 43.8208L140.255 49.8457V54.9877H133.472V28.1259H140.255V42.0553L159.061 28.1259H169.349ZM213.795 55.3714C202.188 55.3714 197.213 50.4596 197.213 41.5185C197.213 32.6153 202.188 27.7412 213.795 27.7412C225.365 27.7412 230.377 32.654 230.377 41.5185C230.377 50.4209 225.365 55.3714 213.795 55.3714ZM213.795 49.5772C220.843 49.5772 223.594 47.0055 223.594 41.5185C223.594 36.0693 220.88 33.5364 213.795 33.5364C206.71 33.5364 203.997 36.0305 203.997 41.5185C203.997 47.0443 206.748 49.5772 213.795 49.5772ZM269.781 28.1259V54.9877H262.996V28.1259H269.781Z" fill="#E94E58"/>
<path d="M149.556 61.6888H136.893V65.7874H148.199V69.2874H136.893V74.3297H132.823V58.2122H149.556V61.6888ZM160.124 74.5602C153.159 74.5602 150.174 71.6122 150.174 66.2477C150.174 60.9063 153.159 57.9819 160.124 57.9819C167.065 57.9819 170.073 60.929 170.073 66.2477C170.073 71.5897 167.065 74.5602 160.124 74.5602ZM160.124 71.0831C164.352 71.0831 166.003 69.5406 166.003 66.2477C166.003 62.9781 164.375 61.4581 160.124 61.4581C155.873 61.4581 154.245 62.9555 154.245 66.2477C154.245 69.5638 155.895 71.0831 160.124 71.0831ZM190.052 64.1297C190.052 66.7545 188.74 68.6886 186.615 69.5406L189.531 74.3297H184.737L182.183 70.024H175.625V74.3297H171.555V58.2122H183.991C187.587 58.2122 190.052 60.5381 190.052 64.1297ZM175.625 61.6888V66.5474H182.861C184.082 66.5474 185.981 66.5474 185.981 64.1297C185.981 61.6888 184.082 61.6888 182.861 61.6888H175.625ZM210.317 58.2122V61.6888H202.63V74.3297H198.56V61.6888H190.871V58.2122H210.317ZM231.686 66.2477C231.686 71.8429 228.679 74.5602 221.738 74.5602C214.773 74.5602 211.788 71.8661 211.788 66.2477V58.2122H215.858V66.2477C215.858 68.5042 216.469 71.0831 221.738 71.0831C227.006 71.0831 227.616 68.4815 227.616 66.2477V58.2122H231.686V66.2477ZM249.71 58.2122H253.781V74.3297H248.24L237.454 62.2417V74.3297H233.384V58.2122H238.902L249.71 70.3231V58.2122ZM272.331 61.5052H259.67V64.7743H272.331V67.7675H259.67V71.0368H272.331V74.3297H255.599V58.2122H272.331V61.5052Z" fill="white"/>
</g>
</g>
</g>
<defs>
<clipPath id="clip0_9_5515">
<rect width="212.031" height="59" fill="white" transform="translate(61 21)"/>
</clipPath>
<clipPath id="clip1_9_5515">
<rect width="212.031" height="59" fill="white" transform="translate(61 21)"/>
</clipPath>
</defs>
</svg>
