<svg width="32" height="32" viewBox="0 0 32 32" fill="none" xmlns="http://www.w3.org/2000/svg">
<g clip-path="url(#clip0_9_1687)">
<g clip-path="url(#clip1_9_1687)">
<g clip-path="url(#clip2_9_1687)">
<path fill-rule="evenodd" clip-rule="evenodd" d="M16 32C7.16344 32 0 24.8366 0 16C0 7.16344 7.16344 0 16 0C24.8366 0 32 7.16344 32 16C32 24.8366 24.8366 32 16 32ZM16 29.1765C23.2772 29.1765 29.1765 23.2772 29.1765 16C29.1765 8.72284 23.2772 2.82353 16 2.82353C8.72284 2.82353 2.82353 8.72284 2.82353 16C2.82353 23.2772 8.72284 29.1765 16 29.1765ZM11.4035 20.7059H9.72473V14.3791C9.11136 14.9527 8.38849 15.3768 7.55607 15.6517V14.1282C7.99418 13.9848 8.47013 13.713 8.98392 13.3127C9.49771 12.9125 9.85018 12.4455 10.0414 11.9118H11.4035V20.7059ZM14.4113 15.9802C13.9772 15.797 13.6615 15.5451 13.4644 15.2245C13.2672 14.9039 13.1687 14.5524 13.1687 14.17C13.1687 13.5168 13.3967 12.9772 13.8527 12.551C14.3087 12.1248 14.957 11.9118 15.7973 11.9118C16.6298 11.9118 17.276 12.1248 17.736 12.551C18.196 12.9772 18.426 13.5168 18.426 14.17C18.426 14.5763 18.3205 14.9377 18.1094 15.2544C17.8983 15.571 17.6016 15.813 17.2192 15.9802C17.7051 16.1754 18.0745 16.4602 18.3274 16.8346C18.5803 17.2089 18.7068 17.6411 18.7068 18.131C18.7068 18.9395 18.4489 19.5967 17.9331 20.1025C17.4174 20.6083 16.7313 20.8612 15.875 20.8612C15.0784 20.8612 14.4153 20.6521 13.8856 20.2339C13.2603 19.74 12.9476 19.063 12.9476 18.2027C12.9476 17.7287 13.0651 17.2936 13.3001 16.8973C13.5351 16.501 13.9055 16.1953 14.4113 15.9802ZM14.7578 14.2895C14.7578 14.6241 14.8524 14.885 15.0416 15.0722C15.2308 15.2593 15.4827 15.3529 15.7973 15.3529C16.116 15.3529 16.3709 15.2583 16.562 15.0692C16.7532 14.88 16.8488 14.6181 16.8488 14.2835C16.8488 13.9689 16.7542 13.717 16.565 13.5278C16.3758 13.3386 16.1259 13.244 15.8153 13.244C15.4926 13.244 15.2358 13.3396 15.0446 13.5308C14.8534 13.722 14.7578 13.9749 14.7578 14.2895ZM14.6025 18.0414C14.6025 18.5034 14.721 18.8638 14.9579 19.1227C15.1949 19.3816 15.4907 19.511 15.8451 19.511C16.1916 19.511 16.4784 19.3866 16.7054 19.1376C16.9324 18.8887 17.046 18.5293 17.046 18.0593C17.046 17.649 16.9305 17.3195 16.6994 17.0705C16.4684 16.8216 16.1757 16.6972 15.8212 16.6972C15.411 16.6972 15.1053 16.8385 14.9042 17.1213C14.703 17.4041 14.6025 17.7108 14.6025 18.0414ZM21.776 19.4453V17.1691H19.4819V15.5979H21.776V13.3217H23.3054V15.5979H25.6055V17.1691H23.3054V19.4453H21.776Z" fill="#5C748A"/>
</g>
</g>
</g>
<defs>
<clipPath id="clip0_9_1687">
<rect width="32" height="32" fill="white"/>
</clipPath>
<clipPath id="clip1_9_1687">
<rect width="32" height="32" fill="white"/>
</clipPath>
<clipPath id="clip2_9_1687">
<rect width="32" height="32" fill="white"/>
</clipPath>
</defs>
</svg>
