<svg width="24" height="24" viewBox="0 0 24 24" fill="none" xmlns="http://www.w3.org/2000/svg">
<path d="M16.875 8.31429C16.6917 8.10476 16.4583 8 16.175 8C15.8917 8 15.6583 8.10476 15.475 8.31429L11.575 12.7714L7.675 8.31429C7.49167 8.10476 7.25833 8 6.975 8C6.69167 8 6.45833 8.10476 6.275 8.31429C6.09167 8.52381 6 8.79048 6 9.11428C6 9.43809 6.09167 9.70476 6.275 9.91429L10.875 15.1714C10.975 15.2857 11.0833 15.3669 11.2 15.4149C11.3167 15.4621 11.4417 15.4857 11.575 15.4857C11.7083 15.4857 11.8333 15.4621 11.95 15.4149C12.0667 15.3669 12.175 15.2857 12.275 15.1714L16.875 9.91429C17.0583 9.70476 17.15 9.43809 17.15 9.11428C17.15 8.79048 17.0583 8.52381 16.875 8.31429Z" fill="white"/>
</svg>
