<svg width="42" height="42" viewBox="0 0 42 42" fill="none" xmlns="http://www.w3.org/2000/svg">
<rect x="1" y="1" width="40" height="40" rx="5" fill="#172D44"/>
<rect x="1" y="1" width="40" height="40" rx="5" stroke="#408FD4" stroke-width="2"/>
<path d="M21 8C21.1825 8 21.3536 8.02767 21.5133 8.08301C21.673 8.13836 21.8213 8.23244 21.9582 8.36526L29.6236 15.8033C29.8745 16.0468 30 16.3567 30 16.7331C30 17.1094 29.8745 17.4193 29.6236 17.6628C29.3498 17.9285 29.0247 18.0558 28.6483 18.0447C28.2719 18.0336 27.9582 17.9063 27.7072 17.6628L22.3688 12.516L22.3688 32.6718C22.3688 33.0481 22.2376 33.3636 21.9753 33.6181C21.7129 33.8727 21.3878 34 21 34C20.6122 34 20.2871 33.8727 20.0247 33.6181C19.7624 33.3636 19.6312 33.0481 19.6312 32.6718L19.6312 12.516L14.327 17.6628C14.0532 17.9285 13.7281 18.0613 13.3517 18.0613C12.9753 18.0613 12.6502 17.9285 12.3764 17.6628C12.1255 17.3972 12 17.0817 12 16.7165C12 16.3512 12.1255 16.0468 12.3764 15.8033L20.0418 8.36526C20.1787 8.23244 20.327 8.13836 20.4867 8.08301C20.6464 8.02767 20.8175 8 21 8Z" fill="#E3E8EB"/>
</svg>
