<svg width="24" height="24" viewBox="0 0 24 24" fill="none" xmlns="http://www.w3.org/2000/svg">
<path d="M16.875 15.6857C16.6916 15.8952 16.4583 16 16.175 16C15.8916 16 15.6583 15.8952 15.475 15.6857L11.575 11.2286L7.67495 15.6857C7.49162 15.8952 7.25829 16 6.97495 16C6.69162 16 6.45829 15.8952 6.27495 15.6857C6.09162 15.4762 5.99995 15.2095 5.99995 14.8857C5.99995 14.5619 6.09162 14.2952 6.27495 14.0857L10.875 8.82857C10.975 8.71429 11.0833 8.63314 11.2 8.58514C11.3166 8.53791 11.4416 8.51429 11.575 8.51429C11.7083 8.51429 11.8333 8.53791 11.95 8.58514C12.0666 8.63314 12.175 8.71429 12.275 8.82857L16.875 14.0857C17.0583 14.2952 17.15 14.5619 17.15 14.8857C17.15 15.2095 17.0583 15.4762 16.875 15.6857Z" fill="white"/>
</svg>
