<svg width="32" height="32" viewBox="0 0 32 32" fill="none" xmlns="http://www.w3.org/2000/svg">
<path d="M19.6956 11.4695C20.7529 9.65883 21.625 7.79477 21.625 6.57158C21.625 3.89308 19.7527 1.65208 17.2456 1.08527L16 2.33089L14.7544 1.08527C12.2473 1.65208 10.375 3.89308 10.375 6.57158C10.375 7.82858 11.2959 9.76233 12.3925 11.6195L14.909 15.417H17.091L19.6956 11.4695Z" fill="#EAB8D5"/>
<path d="M11.9596 11.7201C10.5643 10.155 9.06094 8.74953 7.89756 8.37153C5.35019 7.54384 2.64031 8.6319 1.32644 10.8412L2.12619 12.4108L0.556627 13.2105C0.321002 15.7701 1.87375 18.2432 4.42113 19.0709C5.61663 19.4593 7.74031 19.1811 9.84538 18.712L14.2347 17.4922L14.9089 15.417L11.9596 11.7201Z" fill="#EAB8D5"/>
<path d="M9.8073 19.1549C7.88761 19.9982 6.08642 20.9937 5.36742 21.9833C3.79305 24.1503 3.99048 27.0637 5.68561 28.9959L7.42555 28.7204L7.70111 30.4603C10.0626 31.4754 12.8945 30.7628 14.4689 28.5959C15.2077 27.5789 15.5993 25.4732 15.8037 23.3262L16 18.7747L14.2347 17.4922L9.8073 19.1549Z" fill="#EAB8D5"/>
<path d="M16.2132 23.4993C16.422 25.5856 16.8122 27.6062 17.5312 28.5959C19.1056 30.7628 21.9374 31.4754 24.2989 30.4603L24.5745 28.7204L26.3144 28.9959C28.0096 27.0637 28.207 24.1502 26.6326 21.9832C25.8938 20.9663 24.0121 19.9432 22.0334 19.0853L17.7654 17.4922L16 18.7747L16.2132 23.4993Z" fill="#EAB8D5"/>
<path d="M22.3244 18.7495C24.3732 19.1956 26.4156 19.4489 27.5789 19.0709C30.1263 18.2432 31.6791 15.7701 31.4434 13.2105L29.8738 12.4108L30.6735 10.8412C29.3597 8.6319 26.6498 7.54384 24.1024 8.37153C22.9069 8.75996 21.3523 10.2334 19.925 11.8502L17.0909 15.417L17.7652 17.4922L22.3244 18.7495Z" fill="#EAB8D5"/>
<path d="M24.1024 8.37152C22.2059 8.93339 19.3628 12.4766 17.8852 14.4175C17.2228 13.9036 16.268 13.6679 15.4086 13.843C14.0421 11.8896 11.7445 8.26583 11.7934 6.38389C11.7934 4.15008 13.0961 2.22146 14.9828 1.31358L14.7544 1.08521C12.2473 1.65208 10.375 3.89308 10.375 6.57158C10.3233 8.55008 12.8148 12.3474 14.2041 14.3532C13.4862 14.8567 12.9893 15.6533 12.8877 16.5696C10.5965 17.2668 6.40088 18.3557 4.60875 17.7217C2.47756 17.0293 1.04338 15.185 0.769377 13.1021L0.556627 13.2105C0.321002 15.7701 1.87375 18.2432 4.42113 19.0709C6.28656 19.7313 10.6674 18.5356 13.0041 17.8342C13.0146 17.8685 13.0261 17.9023 13.0377 17.936C10.4829 18.8741 6.87338 20.2101 5.5475 21.761C3.78394 23.8936 3.92763 27.007 5.68556 28.996C5.82913 28.9732 7.24269 28.7493 7.4255 28.7204C7.49038 29.1298 7.63769 30.0601 7.70106 30.4603C10.2779 31.5569 13.4183 30.6165 14.7878 28.0488C13.2649 29.6385 10.9646 30.1714 8.92838 29.4822L8.52769 27.0813L6.21281 27.493C3.43538 22.6821 9.48369 20.5355 13.6744 19.0166C14.2574 19.664 15.1196 20.0706 16.0574 20.0494C16.1223 22.4648 16.3158 27.0163 17.5311 28.5959C19.1054 30.7629 21.9373 31.4754 24.2988 30.4603L24.3294 30.2673C22.281 30.6245 20.113 29.8288 18.8084 28.0331C17.6335 26.5109 17.3998 22.1158 17.3465 19.7471C18.9517 19.0155 19.6201 16.9278 18.7417 15.4041C21.0801 12.595 23.9801 7.88171 27.7548 8.43308C26.6183 8.02071 25.3414 7.96896 24.1024 8.37152Z" fill="#DF95C0"/>
<path d="M16 18.7747C17.0251 18.7747 17.8561 17.9437 17.8561 16.9186C17.8561 15.8935 17.0251 15.0625 16 15.0625C14.9749 15.0625 14.1439 15.8935 14.1439 16.9186C14.1439 17.9437 14.9749 18.7747 16 18.7747Z" fill="#FAEF93"/>
<path d="M16.928 17.8467C15.9029 17.8467 15.0719 17.0157 15.0719 15.9906C15.0719 15.7182 15.131 15.4599 15.2364 15.2269C14.5923 15.5181 14.1439 16.1658 14.1439 16.9186C14.1439 17.9437 14.9749 18.7747 16 18.7747C16.7528 18.7747 17.4004 18.3263 17.6917 17.6822C17.4587 17.7876 17.2004 17.8467 16.928 17.8467Z" fill="#F6E23D"/>
<path d="M16 12.188C16.5178 12.188 16.9375 11.7683 16.9375 11.2505C16.9375 10.7327 16.5178 10.313 16 10.313C15.4822 10.313 15.0625 10.7327 15.0625 11.2505C15.0625 11.7683 15.4822 12.188 16 12.188Z" fill="#E8AB4C"/>
<path d="M12.6684 13.2706C13.1862 13.2706 13.6059 12.8508 13.6059 12.3331C13.6059 11.8153 13.1862 11.3956 12.6684 11.3956C12.1506 11.3956 11.7309 11.8153 11.7309 12.3331C11.7309 12.8508 12.1506 13.2706 12.6684 13.2706Z" fill="#E8AB4C"/>
<path d="M10.6093 16.1046C11.1271 16.1046 11.5468 15.6848 11.5468 15.1671C11.5468 14.6493 11.1271 14.2296 10.6093 14.2296C10.0915 14.2296 9.67181 14.6493 9.67181 15.1671C9.67181 15.6848 10.0915 16.1046 10.6093 16.1046Z" fill="#E8AB4C"/>
<path d="M10.6093 19.6077C11.1271 19.6077 11.5468 19.188 11.5468 18.6702C11.5468 18.1525 11.1271 17.7327 10.6093 17.7327C10.0915 17.7327 9.67181 18.1525 9.67181 18.6702C9.67181 19.188 10.0915 19.6077 10.6093 19.6077Z" fill="#E8AB4C"/>
<path d="M12.6684 22.4417C13.1862 22.4417 13.6059 22.022 13.6059 21.5042C13.6059 20.9864 13.1862 20.5667 12.6684 20.5667C12.1506 20.5667 11.7309 20.9864 11.7309 21.5042C11.7309 22.022 12.1506 22.4417 12.6684 22.4417Z" fill="#E8AB4C"/>
<path d="M16 23.5243C16.5178 23.5243 16.9375 23.1046 16.9375 22.5868C16.9375 22.069 16.5178 21.6493 16 21.6493C15.4822 21.6493 15.0625 22.069 15.0625 22.5868C15.0625 23.1046 15.4822 23.5243 16 23.5243Z" fill="#E8AB4C"/>
<path d="M19.3316 22.4417C19.8494 22.4417 20.2691 22.022 20.2691 21.5042C20.2691 20.9864 19.8494 20.5667 19.3316 20.5667C18.8138 20.5667 18.3941 20.9864 18.3941 21.5042C18.3941 22.022 18.8138 22.4417 19.3316 22.4417Z" fill="#E8AB4C"/>
<path d="M21.3907 19.6077C21.9085 19.6077 22.3282 19.188 22.3282 18.6702C22.3282 18.1525 21.9085 17.7327 21.3907 17.7327C20.8729 17.7327 20.4532 18.1525 20.4532 18.6702C20.4532 19.188 20.8729 19.6077 21.3907 19.6077Z" fill="#E8AB4C"/>
<path d="M21.3907 16.1046C21.9085 16.1046 22.3282 15.6848 22.3282 15.1671C22.3282 14.6493 21.9085 14.2296 21.3907 14.2296C20.8729 14.2296 20.4532 14.6493 20.4532 15.1671C20.4532 15.6848 20.8729 16.1046 21.3907 16.1046Z" fill="#E8AB4C"/>
<path d="M19.3316 13.2706C19.8494 13.2706 20.2691 12.8508 20.2691 12.3331C20.2691 11.8153 19.8494 11.3956 19.3316 11.3956C18.8138 11.3956 18.3941 11.8153 18.3941 12.3331C18.3941 12.8508 18.8138 13.2706 19.3316 13.2706Z" fill="#E8AB4C"/>
<path d="M12.7606 6.10302L11.8358 5.94889C11.8958 5.58877 11.9956 5.24914 12.1324 4.93939L12.99 5.31814C12.8849 5.55614 12.8077 5.82027 12.7606 6.10302Z" fill="white"/>
<path d="M13.4133 4.60754L12.6649 4.04298C12.779 3.89167 12.9032 3.75992 13.0107 3.64829L13.0232 3.63573C13.1349 3.52829 13.2666 3.40404 13.4179 3.28992L13.9825 4.03835C13.8752 4.11923 13.7704 4.21792 13.6799 4.30492C13.5928 4.39542 13.4942 4.50029 13.4133 4.60754Z" fill="white"/>
<path d="M4.81906 10.6827L4.44162 9.82462C4.75231 9.68793 5.09199 9.58849 5.45124 9.52905L5.60431 10.454C5.32231 10.5006 5.05812 10.5776 4.81906 10.6827Z" fill="white"/>
<path d="M27.2167 10.6827C26.9776 10.5776 26.7135 10.5006 26.4315 10.4539L26.5845 9.52899C26.9438 9.58843 27.2835 9.68787 27.5941 9.82455L27.2167 10.6827Z" fill="white"/>
</svg>
