<svg width="115" height="32" viewBox="0 0 115 32" fill="none" xmlns="http://www.w3.org/2000/svg">
<g clip-path="url(#clip0_9_1066)">
<g clip-path="url(#clip1_9_1066)">
<g clip-path="url(#clip2_9_1066)">
<mask id="mask0_9_1066" style="mask-type:luminance" maskUnits="userSpaceOnUse" x="0" y="0" width="115" height="32">
<path d="M114.62 0H0V31.4438H114.62V0Z" fill="white"/>
</mask>
<g mask="url(#mask0_9_1066)">
<path d="M27.0655 27.0697C32.8828 21.2372 32.8828 11.7813 27.0655 5.94895C21.2483 0.116627 11.8167 0.116626 5.99964 5.94895C0.182411 11.7813 0.182411 21.2372 5.99964 27.0697C11.8167 32.9019 21.2483 32.9019 27.0655 27.0697Z" fill="#E94E58"/>
<path d="M35.4645 14.9382C34.4224 14.6784 33.5264 14.0577 32.9453 13.1474C32.3784 12.2622 31.9909 11.2828 31.3838 10.4191C30.3714 8.97623 28.735 7.6597 26.8704 7.87655C26.8157 7.77528 26.6921 7.56558 26.6873 7.56081C26.7468 7.47743 26.7872 7.37377 26.7848 7.28918C26.7753 6.89839 25.7818 6.86861 25.7676 6.86861C25.4432 6.35748 25.0594 5.88924 24.6317 5.4639L24.6364 5.45914C24.6446 5.45914 24.653 5.45914 24.6613 5.45556C24.7397 5.41862 24.735 5.29115 24.7183 5.22084C24.7017 5.14699 24.6578 5.05404 24.5781 5.0338C24.6459 4.75381 24.5591 4.45357 24.3131 4.27604C24.0659 4.09614 23.7272 4.11401 23.461 4.25102C23.4171 4.16643 23.2579 4.1724 23.1865 4.20933C23.1675 4.21886 23.145 4.23791 23.1236 4.26055C22.5378 3.88525 21.9115 3.57191 21.2651 3.32767C21.1914 3.30026 21.1177 3.27405 21.044 3.24904C21.0535 3.23949 21.0641 3.22997 21.0736 3.22044C21.0797 3.21686 21.0844 3.21329 21.0892 3.20971L21.0868 3.20852C21.4125 2.92496 21.9009 2.92496 22.3119 2.75101C22.6221 2.61996 22.8278 2.39001 22.9536 2.07905C23.2377 1.37729 22.9786 0.555206 22.4913 0C22.7575 0.544484 22.8574 0.978164 22.8254 1.47499C22.7778 2.20772 22.3655 2.54727 21.6666 2.63544C21.2675 2.68549 20.7825 2.76889 20.5805 3.11321C20.5033 3.09414 20.4248 3.07628 20.3477 3.06317C20.3511 3.05126 20.3501 3.03815 20.3429 3.02385C19.7059 1.88723 17.3055 3.66365 17.9912 4.75262C17.9864 4.79431 17.9614 4.88963 17.9508 4.89441C17.7868 4.95277 17.6513 5.07192 17.5384 5.2125C17.1617 5.67716 17.1106 6.2705 16.344 6.20258C15.4089 6.11918 14.6508 5.13269 14.5187 4.38566C14.5129 4.3535 14.4701 4.3535 14.4688 4.38566C14.4368 5.27685 14.9823 6.41825 15.883 6.69822C16.3001 6.82808 16.76 6.77091 17.1319 6.53857C17.2888 6.43968 17.4291 6.31221 17.5419 6.16446C17.7202 5.92974 17.782 5.63666 17.9804 5.42458C18.0018 5.79631 18.1314 6.72086 18.1455 6.81618C18.1111 6.83642 18.0802 6.86264 18.0612 6.88528C17.9864 6.97583 17.9698 7.10451 17.996 7.21649C17.8473 7.38211 17.82 7.6764 17.8509 7.88012C17.8842 8.10293 18.0173 8.33406 18.2157 8.4401C18.1492 8.52825 18.1859 8.66289 18.2609 8.73914C18.3048 8.78323 18.4926 8.82492 18.5045 8.82373C18.6424 9.44089 18.8051 10.0521 19.0095 10.6526C19.0048 10.6526 18.9989 10.6526 18.9929 10.655C18.766 10.7681 18.5473 11.0636 18.6875 11.3234C18.7707 11.4794 19.0333 11.4997 19.0452 11.5235C19.0499 11.5331 19.0547 11.5426 19.0594 11.5521C18.0554 12.8162 18.6032 14.5593 18.5425 16.0259C18.4701 17.7881 17.1486 19.2631 15.3577 19.3655C15.2972 19.369 15.2877 19.4489 15.3434 19.4679C16.1005 19.7431 16.924 19.655 17.6288 19.3035C18.6233 19.7825 19.7986 19.2582 20.3619 18.36C20.4333 18.2456 20.4951 18.1288 20.5496 18.0085C21.0155 17.7368 21.3565 16.9445 21.4421 16.4263C21.4492 16.4263 21.4574 16.4263 21.4635 16.4191C21.7725 16.1224 21.9151 15.6864 21.8913 15.2622C22.5293 16.157 23.0487 17.1471 23.2496 18.2325C23.5228 19.717 23.1379 21.1478 22.1183 22.2618C21.549 22.8839 20.8681 23.3293 20.1432 23.7058H20.1409C18.678 24.1681 17.2104 23.632 15.9163 22.9409C14.7886 22.3381 13.6988 21.6721 12.5164 21.1777C10.1196 20.1745 7.43503 20.0328 4.99425 20.9776C4.92166 21.0061 4.92642 21.1193 5.01328 21.1204C6.24555 21.1241 7.47435 21.3826 8.57716 21.9438C8.98713 22.1523 9.37807 22.3929 9.76536 22.6396C10.3084 23.2686 10.2574 24.1385 10.6471 24.8449C10.8848 25.2762 11.3103 25.5873 11.7784 25.7516C11.6846 25.7445 11.5907 25.7385 11.4968 25.7348C10.4096 25.6968 9.3863 26.1757 8.50219 26.7798C8.49396 26.7833 8.48555 26.787 8.47842 26.7905C8.46891 26.7952 8.46306 26.8012 8.4594 26.8084C8.45355 26.8131 8.44751 26.8168 8.44166 26.8203C8.20632 26.8073 7.97227 26.7989 7.73931 26.7965C5.29012 26.7775 1.99723 28.1107 0.0958832 25.8849C0.0543746 25.8374 -0.0253572 25.8994 0.00792283 25.953C1.51357 28.3131 4.12312 29.6975 6.86342 29.9943C10.0506 30.3397 13.2009 29.3091 15.9377 27.7318C17.5479 26.8036 19.0037 25.6432 20.577 24.6578C20.7469 24.6377 20.9121 24.6113 21.0725 24.5828C21.9566 24.4256 22.817 24.1229 23.6525 23.7976C23.0605 25.0129 22.1706 26.0543 21.063 26.8274C20.9917 26.8775 21.0369 26.9788 21.1212 26.9656C22.4105 26.7524 23.549 25.8957 24.395 24.8937C24.4011 24.895 24.4069 24.8961 24.413 24.8937C24.4901 24.8641 24.5662 24.8319 24.6412 24.7984L24.6494 24.7949C25.8473 24.2575 26.7444 23.2425 27.2103 22.0605C27.2436 22.0438 27.2756 22.0235 27.3078 22.0058C27.3231 22.0106 27.341 22.0069 27.354 21.9914C27.3601 21.9842 27.3659 21.9771 27.3707 21.97C28.2085 21.4433 28.4949 20.3043 28.4914 19.3537C28.5009 19.369 28.5294 19.3703 28.5389 19.3476C29.0036 18.2146 28.8882 16.929 28.3821 15.8067C28.3987 15.8043 28.413 15.7912 28.413 15.7686C28.4058 14.7463 28.3641 13.6836 28.2405 12.628C28.4022 12.7912 28.5934 12.9187 28.8145 12.9902C29.0903 13.3821 29.4646 13.6848 29.9424 13.7801C30.597 14.4246 31.4621 14.8131 32.4283 14.682L32.4354 14.6772C33.1782 15.1002 34.0301 15.2932 34.9523 15.1395C35.0379 15.13 35.1234 15.1157 35.2079 15.0919L35.2151 15.0871C35.2957 15.068 35.3765 15.0466 35.4586 15.0228C35.499 15.0108 35.5025 14.9477 35.4586 14.937L35.4645 14.9382Z" fill="#F4EFEF"/>
<path d="M35.4645 14.9382C34.4224 14.6784 33.5264 14.0577 32.9453 13.1474C32.3784 12.2622 31.9909 11.2828 31.3838 10.4191C30.3714 8.97623 28.735 7.6597 26.8704 7.87655C26.8157 7.77528 26.6921 7.56558 26.6875 7.56081C26.7468 7.47743 26.7872 7.37377 26.7848 7.28918C26.7753 6.89839 25.7818 6.86861 25.7676 6.86861C25.4432 6.35748 25.0594 5.88924 24.6317 5.4639C24.634 5.46271 24.6364 5.45914 24.6364 5.45914C24.6446 5.45914 24.653 5.45914 24.6613 5.45556C24.7397 5.41862 24.735 5.29115 24.7183 5.22084C24.7017 5.14699 24.6578 5.05404 24.5781 5.0338C24.6459 4.75381 24.5591 4.45357 24.3131 4.27604C24.0659 4.09614 23.7272 4.11401 23.461 4.25102C23.4171 4.16643 23.2579 4.1724 23.1865 4.20933C23.1675 4.21886 23.145 4.23791 23.1236 4.26055C22.5378 3.88525 21.9115 3.57191 21.2651 3.32767C21.1914 3.30026 21.1177 3.27405 21.044 3.24904C21.0535 3.23949 21.0641 3.22997 21.0736 3.22044C21.0797 3.21686 21.0844 3.21329 21.0892 3.20971L21.0868 3.20852C21.4125 2.92496 21.9009 2.92496 22.3119 2.75101C22.6221 2.61996 22.8278 2.39001 22.9536 2.07905C23.2377 1.37729 22.9786 0.555206 22.4913 0C22.7575 0.544484 22.8574 0.978164 22.8254 1.47499C22.7778 2.20772 22.3655 2.54727 21.6666 2.63544C21.2675 2.68549 20.7825 2.76889 20.5805 3.11321C20.5033 3.09414 20.4248 3.07628 20.3477 3.06317C20.3511 3.05126 20.3501 3.03815 20.3429 3.02385C19.7059 1.88723 17.3055 3.66365 17.9912 4.75262C17.9864 4.79431 17.9614 4.88963 17.9508 4.89439C17.7868 4.95277 17.6513 5.07192 17.5384 5.2125C17.1617 5.67716 17.1106 6.2705 16.344 6.20258C15.4089 6.11918 14.6508 5.13269 14.5187 4.38566C14.5129 4.3535 14.4701 4.3535 14.4688 4.38566C14.4368 5.27685 14.9823 6.41823 15.883 6.69822C16.3001 6.82808 16.76 6.77091 17.1319 6.53857C17.2888 6.43968 17.4291 6.31221 17.5419 6.16446C17.7202 5.92974 17.782 5.63666 17.9804 5.42458C18.0018 5.79631 18.1314 6.72086 18.1455 6.81618C18.1111 6.83642 18.0802 6.86264 18.0612 6.88528C17.9864 6.97583 17.9698 7.10451 17.996 7.21649C17.8473 7.38211 17.82 7.6764 17.8509 7.88012C17.8842 8.10293 18.0173 8.33406 18.2157 8.4401C18.1492 8.52825 18.1859 8.66289 18.2609 8.73914C18.3048 8.78323 18.4926 8.82492 18.5045 8.82373C18.6424 9.44089 18.8051 10.0521 19.0095 10.6526C19.0048 10.6526 18.9989 10.6526 18.9929 10.655C18.766 10.7681 18.5473 11.0636 18.6875 11.3234C18.7707 11.4794 19.0333 11.4997 19.0452 11.5235C19.0499 11.5331 19.0547 11.5426 19.0594 11.5521C18.0554 12.8162 18.6032 14.5593 18.5425 16.0259C18.4701 17.7881 17.1486 19.2631 15.3577 19.3655C15.2972 19.369 15.2877 19.4489 15.3434 19.4679C16.1005 19.7431 16.924 19.655 17.6288 19.3035C18.6233 19.7825 19.7986 19.2582 20.3619 18.36C20.4333 18.2456 20.4951 18.1288 20.5496 18.0085C21.0155 17.7368 21.3565 16.9445 21.4421 16.4263C21.4492 16.4263 21.4576 16.4263 21.4635 16.4191C21.7725 16.1224 21.9151 15.6864 21.8913 15.2622C22.5293 16.157 23.0487 17.1471 23.2496 18.2325C23.5228 19.717 23.1379 21.1478 22.1183 22.2618C21.549 22.8839 20.8681 23.3293 20.1432 23.7058H20.1409C18.678 24.1681 17.2104 23.632 15.9163 22.9409C14.7886 22.3381 13.6988 21.6721 12.5164 21.1777C10.1196 20.1745 7.43503 20.0328 4.99425 20.9776C4.92166 21.0061 4.92642 21.1193 5.01328 21.1204C6.24555 21.1241 7.47435 21.3826 8.57716 21.9438C8.98713 22.1523 9.37807 22.3929 9.76536 22.6396C10.3084 23.2686 10.2574 24.1385 10.6471 24.8449C10.8848 25.2762 11.3103 25.5873 11.7784 25.7516C11.6846 25.7445 11.5907 25.7385 11.4968 25.7348C10.4096 25.6968 9.3863 26.1757 8.50219 26.7798C8.49396 26.7833 8.48555 26.787 8.47842 26.7905C8.46891 26.7952 8.46306 26.8012 8.4594 26.8084C8.45355 26.8131 8.44751 26.8168 8.44166 26.8203C8.20632 26.8073 7.97227 26.7989 7.73931 26.7965C5.29012 26.7775 1.99723 28.1107 0.0958832 25.8849C0.0543746 25.8374 -0.0253572 25.8994 0.00792283 25.953C1.51357 28.3131 4.12312 29.6975 6.86342 29.9943C10.0506 30.3397 13.2009 29.3091 15.9377 27.7318C17.5479 26.8036 19.0037 25.6432 20.577 24.6578C20.7469 24.6377 20.9121 24.6113 21.0725 24.5828C21.9566 24.4256 22.817 24.1229 23.6525 23.7976C23.0605 25.0129 22.1706 26.0543 21.063 26.8274C20.9917 26.8775 21.0369 26.9788 21.1212 26.9656C22.4105 26.7524 23.549 25.8957 24.395 24.8937C24.4011 24.895 24.4069 24.8961 24.413 24.8937C24.4901 24.8641 24.5662 24.8319 24.6412 24.7984C24.6435 24.7984 24.647 24.796 24.6494 24.7949C25.8473 24.2575 26.7444 23.2425 27.2103 22.0605C27.2436 22.0438 27.2756 22.0235 27.3078 22.0058C27.3231 22.0106 27.341 22.0069 27.354 21.9914C27.3601 21.9842 27.3659 21.9771 27.3707 21.97C28.2085 21.4433 28.4949 20.3043 28.4914 19.3537C28.5009 19.369 28.5294 19.3703 28.5389 19.3476C29.0036 18.2146 28.8882 16.929 28.3821 15.8067C28.3987 15.8043 28.413 15.7912 28.413 15.7686C28.4058 14.7463 28.3641 13.6836 28.2405 12.628C28.4022 12.7912 28.5934 12.9187 28.8145 12.9902C29.0903 13.3821 29.4646 13.6848 29.9424 13.7801C30.597 14.4246 31.4621 14.8131 32.4283 14.682C32.4318 14.682 32.4331 14.6796 32.4354 14.6772C33.1782 15.1002 34.0301 15.2932 34.9523 15.1395C35.0379 15.13 35.1234 15.1157 35.2079 15.0919C35.2114 15.0919 35.2127 15.0883 35.2151 15.0871C35.2957 15.068 35.3765 15.0466 35.4586 15.0228C35.499 15.0108 35.5025 14.9477 35.4586 14.937L35.4645 14.9382ZM26.849 8.14462C26.9441 8.33883 27.032 8.5354 27.1128 8.73199C27.0713 8.77608 27.032 8.81539 26.9702 8.83922C26.8526 8.88331 26.7325 8.84995 26.6352 8.77727C26.4818 8.6617 26.4414 8.49013 26.3809 8.32214C26.5626 8.36266 26.7515 8.29116 26.849 8.14462ZM28.06 12.7483C28.0968 13.0652 28.1288 13.3845 28.1586 13.705C27.9375 13.7491 27.7772 13.6002 27.7378 13.3869C27.9827 13.3023 28.0458 12.9818 28.06 12.7483ZM28.054 12.7221L28.0564 12.7185V12.7316C28.0564 12.7316 28.0564 12.7245 28.054 12.7221ZM27.2352 13.6741C27.145 13.5799 27.1094 13.4536 27.0629 13.3345C27.1794 13.3142 27.2352 13.2237 27.2578 13.1165C27.3268 13.2845 27.4646 13.4274 27.657 13.406H27.6607C27.6607 13.4107 27.6607 13.4155 27.6607 13.4203C27.7225 13.6836 27.4325 13.879 27.2352 13.6741ZM27.499 14.1887C27.4195 14.0482 27.3292 13.9123 27.2293 13.7813C27.2685 13.8099 27.3136 13.8325 27.3648 13.842C27.4039 13.8492 27.4409 13.8492 27.4776 13.8432C27.4908 13.9576 27.4943 14.0744 27.499 14.1887ZM24.4248 12.2312C24.6103 12.5767 24.7825 12.9306 24.9357 13.2916C24.779 13.2594 24.6412 13.1915 24.5258 13.0771C24.4877 13.039 24.4568 12.9997 24.4296 12.958C24.4093 12.9139 24.3868 12.8734 24.3607 12.8353C24.3464 12.8067 24.3321 12.7769 24.3179 12.7483C24.4486 12.603 24.4629 12.4159 24.4248 12.2312ZM22.4498 23.7142C22.3774 23.725 22.3013 23.7451 22.2264 23.7762C22.0684 23.8048 21.8925 23.8084 21.9043 23.6022C21.9138 23.4295 22.0731 23.3794 22.1931 23.2984C22.2062 23.314 22.2216 23.3293 22.2395 23.3425C22.3275 23.4092 22.4284 23.4092 22.5306 23.3771C22.4818 23.4486 22.4498 23.5296 22.4438 23.6177C22.4414 23.6499 22.4438 23.681 22.4498 23.7142ZM22.4842 23.2853C22.3322 23.3246 22.2039 23.209 22.2311 23.0518C22.2477 22.9589 22.3203 22.8839 22.3642 22.8027C22.3666 22.7979 22.3679 22.7932 22.3666 22.7897C22.5116 22.8338 22.6923 22.8003 22.8265 22.7301C22.7945 22.842 22.8241 22.9649 22.9037 23.0541C22.7731 23.1399 22.6328 23.2483 22.4842 23.2853ZM23.549 22.1547C23.549 22.1547 23.5455 22.157 23.5442 22.1594C23.5394 22.1689 23.5347 22.1808 23.5299 22.1903C23.41 22.3679 23.2021 22.6348 23.0024 22.5217C22.7707 22.3905 22.9239 22.0427 22.9916 21.8412C23.0024 21.8283 23.0119 21.8151 23.0201 21.8043C23.0225 21.8043 23.0262 21.8043 23.0262 21.8043C23.158 21.7961 23.2805 21.7114 23.3778 21.6006C23.3149 21.8127 23.3339 22.0451 23.549 22.1547ZM23.5228 20.7035C23.5228 20.7035 23.5265 20.6916 23.5276 20.6856C23.5442 20.6856 23.5597 20.6856 23.5764 20.6856C23.7225 20.6689 23.8461 20.5713 23.9293 20.4462C23.9222 20.5748 23.947 20.7035 24.0279 20.8048C24.0564 20.8405 24.0897 20.8715 24.1266 20.8953C24.1206 20.9096 24.1147 20.9251 24.1076 20.9407C24.0136 21.0966 23.9256 21.2837 23.7082 21.2658C23.5027 21.2491 23.4694 21.0621 23.4871 20.8869C23.517 20.831 23.5312 20.769 23.5228 20.7035ZM23.5632 21.3219C23.5894 21.3362 23.6192 21.3481 23.6548 21.3552C23.7986 21.385 23.9364 21.3219 24.0315 21.217C24.022 21.3064 24.0291 21.3969 24.0659 21.4816C24.1039 21.5684 24.18 21.6578 24.2716 21.6935C24.1491 21.9069 23.9198 22.1689 23.6453 22.0821C23.3019 21.9736 23.4848 21.5554 23.5632 21.3314C23.5645 21.3278 23.5632 21.3243 23.5632 21.3219ZM22.9073 22.5908C22.8954 22.6038 22.8859 22.6182 22.8764 22.6312C22.7279 22.6824 22.5507 22.7409 22.3951 22.6895C22.1313 22.6038 22.3013 22.3584 22.426 22.2273C22.5698 22.2488 22.7504 22.1035 22.8824 21.9652C22.7921 22.1737 22.7279 22.4538 22.9073 22.5908ZM22.9572 22.6383C22.9572 22.6383 22.962 22.6301 22.9631 22.6264C23.1437 22.7135 23.322 22.5884 23.4562 22.4322C23.4349 22.58 23.4539 22.7314 23.5466 22.8528C23.568 22.8815 23.5941 22.9064 23.6226 22.9291C23.6192 22.9327 23.6168 22.9362 23.6131 22.9409C23.4694 23.0304 23.3186 23.128 23.1403 23.0852C22.943 23.0375 22.8183 22.8122 22.9572 22.6383ZM23.5727 22.6945C23.5252 22.5644 23.5394 22.424 23.5632 22.2881C23.587 22.2523 23.6073 22.2166 23.625 22.1856C23.8865 22.2618 24.1657 22.0665 24.306 21.8365C24.3025 21.8592 24.2989 21.8818 24.2954 21.9032C24.2288 22.238 24.1396 22.5692 24.0291 22.8921C24.0244 22.8921 24.0207 22.8934 24.016 22.8958C23.8401 22.9815 23.6382 22.8718 23.5727 22.6945ZM24.1884 20.9275C24.255 20.9549 24.3274 20.9621 24.3998 20.9394C24.3879 21.167 24.3725 21.3958 24.3416 21.6233C24.0624 21.4934 24.1195 21.2064 24.1884 20.9275ZM24.0445 20.6165C24.0017 20.4676 24.0326 20.3151 24.041 20.1637C24.041 20.1602 24.0421 20.1555 24.0434 20.1518C24.0529 20.1542 24.0624 20.1566 24.073 20.1579C24.2811 20.1816 24.3963 20.0244 24.4782 19.8481C24.4343 20.1816 24.4212 20.5164 24.4045 20.8513C24.2466 20.8917 24.0884 20.769 24.0445 20.6165ZM24.1932 20.041C24.0386 20.1067 23.9103 19.9969 23.8627 19.8529C23.8247 19.7336 23.8424 19.6038 23.8342 19.4811C23.8342 19.4716 23.8271 19.4656 23.8199 19.4632C23.8413 19.4608 23.8627 19.4561 23.8818 19.4489C24.0244 19.3964 24.1171 19.2785 24.167 19.1403C24.1789 19.2286 24.2098 19.312 24.274 19.3811C24.3451 19.4561 24.451 19.5049 24.5461 19.4846C24.5377 19.487 24.5305 19.4943 24.5247 19.5049C24.4272 19.6801 24.3976 19.954 24.1932 20.041ZM23.4325 15.9759C23.5371 16.0915 23.6797 16.1737 23.8176 16.1415C23.8472 16.3345 23.8947 16.5454 23.8472 16.7372C23.7819 16.9981 23.4943 17.0101 23.3849 16.7718C23.3802 16.7622 23.372 16.7599 23.3637 16.7599C23.4301 16.6526 23.4539 16.5037 23.4647 16.3905C23.4789 16.2511 23.467 16.1093 23.4325 15.9759ZM23.2853 15.2038C23.4301 15.3849 23.6525 15.5374 23.8638 15.4183C23.9341 15.6042 24.0635 15.8651 23.858 16.0116C23.6631 16.151 23.4742 15.8853 23.3564 15.7376C23.4111 15.5875 23.3566 15.3778 23.2853 15.2038ZM21.9482 13.8742C22.0861 13.9862 22.2572 14.0434 22.3964 13.929C22.4747 14.0839 22.5602 14.29 22.5116 14.4652C22.4747 14.5986 22.337 14.6165 22.2311 14.5545C22.1492 14.5057 22.0945 14.4211 22.0303 14.352C22.066 14.2042 22.0172 14.0315 21.9482 13.8742ZM23.7713 12.815C23.9209 12.9044 24.0957 12.9294 24.2489 12.815C24.2608 12.8782 24.2859 12.9389 24.319 12.9949C24.3916 13.2046 24.4866 13.4155 24.4378 13.6407C24.3298 14.1471 23.8485 13.5775 23.7058 13.3774C23.8437 13.2344 23.8415 13.0116 23.7713 12.815ZM24.5733 14.2745C24.6554 14.3412 24.7529 14.3865 24.8597 14.3937C24.9465 14.3996 25.0321 14.3806 25.1058 14.3412C25.1985 14.5617 25.3137 14.8309 25.17 15.0525C24.9595 15.3754 24.7064 15.0919 24.5591 14.8953C24.558 14.8929 24.5543 14.8929 24.5519 14.8905C24.5495 14.8846 24.5472 14.8786 24.5448 14.8738C24.5424 14.8691 24.54 14.8643 24.5366 14.8607C24.7077 14.7106 24.6576 14.4866 24.5733 14.2745ZM24.8467 17.3306C24.8467 17.4545 24.8549 17.5808 24.8277 17.6999C24.7873 17.8738 24.6423 18.0132 24.464 17.9108C24.344 17.8417 24.3345 17.6487 24.3131 17.5248C24.4259 17.4676 24.4724 17.3413 24.4877 17.2209C24.4985 17.1352 24.5057 17.0363 24.5057 16.9374C24.5757 17.0577 24.6887 17.134 24.8525 17.0863C24.8372 17.1649 24.8361 17.2483 24.8467 17.3306ZM24.5794 18.0585C24.5781 18.2468 24.5377 18.4326 24.4331 18.5922C24.3892 18.6603 24.3144 18.783 24.2003 18.7054C24.1623 18.6793 24.1348 18.6102 24.1195 18.5696C24.11 18.5447 24.1028 18.5207 24.0981 18.4957C24.1087 18.4255 24.1134 18.3563 24.1111 18.292C24.2621 18.2086 24.3237 18.0514 24.3356 17.8834C24.3879 17.9858 24.4687 18.0621 24.5794 18.0609V18.0585ZM24.0564 15.6804C24.161 15.7781 24.3012 15.8281 24.4439 15.7626C24.4462 15.7626 24.4486 15.7603 24.4486 15.7603C24.445 15.7686 24.4439 15.7781 24.4473 15.7888C24.4973 15.9854 24.5876 16.2809 24.3821 16.4227C24.18 16.5609 24.0421 16.3631 23.9352 16.2035C23.9269 16.1677 23.9174 16.1344 23.909 16.1034C24.0564 16.0081 24.0862 15.8448 24.0564 15.6828V15.6804ZM24.0125 14.8011C24.1396 14.9274 24.3025 15.0013 24.4676 14.9096C24.5128 15.1192 24.6256 15.4874 24.4307 15.6411C24.2193 15.8091 24.0648 15.5589 23.9507 15.3921C23.9447 15.3826 23.9399 15.373 23.9341 15.3647C24.0683 15.2372 24.0683 15.0085 24.0125 14.8011ZM23.9732 16.4203C24.073 16.5347 24.2157 16.6038 24.3689 16.549C24.3713 16.549 24.3725 16.5466 24.3749 16.5454C24.3488 16.7777 24.4272 17.0184 24.3773 17.2507C24.3356 17.4425 24.1456 17.5128 23.997 17.3722C23.89 17.2698 23.8699 17.1113 23.8284 16.9767C23.9721 16.854 23.9946 16.6312 23.9732 16.4203ZM24.5294 16.7789C24.4949 16.6896 24.4819 16.5883 24.464 16.4942C24.6103 16.3846 24.6304 16.1892 24.6018 16.0033C24.6935 16.1189 24.811 16.2011 24.9453 16.1641C24.9453 16.2726 24.9655 16.381 24.9666 16.4906C24.9679 16.6002 24.9846 16.7753 24.9323 16.873C24.8145 17.0887 24.5947 16.9481 24.5294 16.7789ZM24.6887 15.9521C24.6198 15.883 24.5686 15.7936 24.5175 15.709C24.6613 15.5768 24.6589 15.317 24.6137 15.1014C24.7136 15.242 24.8597 15.3421 25.025 15.2944C25.0712 15.4874 25.1188 15.7436 25.0427 15.933C24.9738 16.107 24.7955 16.0593 24.6887 15.9521ZM24.0659 14.7451C24.0183 14.7058 23.9792 14.6582 23.9423 14.6093C23.9174 14.5557 23.8913 14.508 23.8638 14.4687C24.0577 14.3139 24.0231 14.047 23.928 13.8039C24.0553 13.9171 24.2074 13.985 24.3475 13.9326C24.3784 14.1554 24.5389 14.3436 24.5413 14.5712C24.5437 14.8536 24.2526 14.9012 24.0659 14.7451ZM23.8686 14.2519C23.7856 14.4854 23.5312 14.4794 23.3659 14.3246C23.2721 14.2364 23.2116 14.1137 23.1474 14.0029C23.2697 13.7908 23.1973 13.5299 23.0808 13.3095C23.2377 13.4525 23.4456 13.5549 23.6298 13.4429C23.751 13.6741 23.9648 13.9814 23.8686 14.2519ZM23.6572 13.2547C23.4776 13.5561 23.1498 13.2678 22.9762 13.1153C23.0927 12.9306 23.0201 12.6351 22.8954 12.4099C23.0785 12.5708 23.3233 12.6899 23.499 12.5613C23.5003 12.5648 23.5014 12.5684 23.5038 12.572C23.6369 12.7507 23.788 13.0354 23.6572 13.2547ZM22.1645 12.1764C22.3238 12.2682 22.514 12.3134 22.6542 12.2288C22.7707 12.4421 22.9678 12.6875 22.9179 12.9437C22.8431 13.3309 22.477 13.0795 22.268 12.8996C22.2562 12.8794 22.2443 12.8591 22.2348 12.8412C22.2253 12.8246 22.211 12.8186 22.1967 12.8174C22.2015 12.8103 22.2073 12.8031 22.211 12.796C22.3203 12.6161 22.2728 12.3742 22.1645 12.1764ZM21.0712 12.7269C21.2044 12.8329 21.3839 12.8722 21.5288 12.7555C21.6085 12.9258 21.7379 13.1177 21.757 13.3023C21.7736 13.4644 21.6547 13.593 21.4836 13.5454C21.372 13.5144 21.2888 13.4239 21.2056 13.3476C21.2638 13.157 21.1746 12.9223 21.0712 12.7269ZM20.2003 11.7844C20.3345 11.8607 20.4903 11.8905 20.6079 11.7809L20.609 11.7833C20.7278 11.931 21.1058 12.2312 20.8908 12.4433C20.741 12.591 20.5638 12.4659 20.4309 12.3373C20.4119 12.317 20.3928 12.2979 20.3738 12.2813C20.3535 12.261 20.3358 12.242 20.3192 12.2241L20.3144 12.2217C20.3416 12.0644 20.2846 11.9179 20.2003 11.7844ZM19.8474 10.9814C19.9829 11.0577 20.1301 11.0589 20.2466 10.9683L20.2489 10.9731C20.3654 11.1017 20.5722 11.3222 20.5876 11.5068C20.6042 11.6975 20.4724 11.8071 20.2941 11.7487C20.2204 11.7249 20.1551 11.6784 20.0909 11.6331C20.0802 11.6188 20.0683 11.6045 20.0577 11.5902C20.0445 11.5747 20.0291 11.5712 20.0149 11.5747C20.0434 11.3865 19.9483 11.1601 19.8474 10.9814ZM20.2489 10.0569C20.382 10.1081 20.5223 10.0998 20.6399 10.0044C20.7933 10.1903 20.9418 10.4143 20.9999 10.6502C21.0689 10.9302 20.9526 11.2161 20.5686 11.0624C20.4914 11.0315 20.4214 10.9743 20.3488 10.929C20.3405 10.9195 20.3321 10.9099 20.3239 10.9004L20.3192 10.8968C20.3464 10.8599 20.3714 10.817 20.3916 10.7658C20.4903 10.5168 20.4095 10.2546 20.2489 10.0569ZM20.6137 9.01795C20.811 9.14662 21.0369 9.23359 21.1901 9.03819C21.3684 9.25145 21.5715 9.55646 21.5668 9.84598C21.5644 9.94845 21.5039 10.1021 21.4112 10.1546C21.3351 10.1974 21.17 10.1701 21.0868 10.145C20.9489 10.1045 20.8289 10.0092 20.7112 9.93057C20.7196 9.91985 20.7291 9.91032 20.7373 9.8984C20.9193 9.62677 20.7907 9.27409 20.6137 9.01795ZM21.1045 8.03262C21.2841 8.17203 21.5121 8.23279 21.7094 8.1053C21.8224 8.30546 21.9614 8.49252 21.9804 8.72962C21.9971 8.93573 21.9257 9.16449 21.6904 9.17282C21.53 9.17879 21.404 9.06322 21.2865 8.96671C21.2781 8.96075 21.2698 8.95956 21.2627 8.96075C21.2603 8.95718 21.2567 8.9536 21.2543 8.95003C21.2519 8.94764 21.2495 8.94645 21.2461 8.94407L21.2484 8.9405C21.3863 8.6474 21.2839 8.29712 21.1045 8.03262ZM21.9672 7.36305C22.0802 7.50125 22.2382 7.59418 22.4271 7.58466C22.4794 7.79553 22.5592 8.09338 22.4498 8.29712C22.3167 8.54255 22.0956 8.41388 21.9281 8.26615C21.8842 8.18871 21.8343 8.11602 21.7868 8.05169L21.7844 8.04931C21.9804 7.86463 22.0053 7.61205 21.9696 7.36424L21.9672 7.36305ZM22.2287 9.44448C22.3512 9.50166 22.4866 9.50403 22.5935 9.39681C22.6434 9.51239 22.6767 9.63152 22.6839 9.7602C22.6875 9.8174 22.6875 9.87576 22.672 9.93177C22.6423 10.0449 22.5246 10.1701 22.3964 10.0688C22.3916 10.0652 22.388 10.0628 22.3832 10.0616C22.4083 9.86146 22.3394 9.63392 22.2287 9.44448ZM21.8877 11.3186C22.0481 11.4258 22.2562 11.4806 22.3904 11.3257C22.5222 11.5283 22.7042 11.6832 22.6957 11.9536C22.6886 12.1824 22.4461 12.1824 22.2858 12.1347C22.1907 12.1061 22.1099 12.0561 22.0362 11.9941C22.0124 11.9679 21.9875 11.9429 21.9614 11.9215C22.1122 11.7296 22.0053 11.5104 21.8877 11.3186ZM21.3221 11.2447C21.4576 11.3043 21.6001 11.3079 21.7036 11.1911C21.776 11.3293 21.902 11.4651 21.9329 11.62C21.9958 11.9405 21.6215 12.1014 21.4291 11.8357C21.4254 11.8309 21.4207 11.8273 21.4159 11.8261L21.4125 11.8226C21.5158 11.6224 21.4434 11.4199 21.3221 11.2447ZM20.4795 11.0886C20.6744 11.209 20.8979 11.2757 21.0403 11.0636C21.2175 11.2423 21.4386 11.4747 21.3375 11.7475C21.2033 12.1109 20.8752 11.844 20.6744 11.6891C20.754 11.5116 20.6174 11.2721 20.4795 11.0886ZM20.8586 10.1236C21.0559 10.2606 21.3126 10.3499 21.4944 10.2201C21.6143 10.4012 21.7154 10.6204 21.7165 10.842C21.7165 10.9445 21.6904 11.1208 21.581 11.1697C21.4231 11.2388 21.2769 11.1363 21.1544 11.0434C21.1367 11.0243 21.1188 11.0064 21.1021 10.9897C21.0974 10.985 21.0915 10.9814 21.0868 10.979C21.1996 10.7086 21.0369 10.3774 20.8586 10.1236ZM22.0504 11.3257C21.9625 11.3031 21.8866 11.2495 21.8116 11.1983C21.7997 11.178 21.7879 11.1589 21.7772 11.1399C21.7712 11.1292 21.7617 11.1232 21.7535 11.1196C21.7559 11.1149 21.7593 11.1101 21.763 11.1053C21.8795 10.873 21.8082 10.5882 21.6893 10.3535C21.833 10.4488 21.997 10.4977 22.1349 10.4405C22.1349 10.4465 22.1349 10.4536 22.1384 10.4608C22.23 10.6526 22.3595 10.8146 22.3737 11.0386C22.3845 11.2245 22.2454 11.3734 22.0517 11.3234L22.0504 11.3257ZM21.8901 10.3738C21.7855 10.3535 21.6893 10.2761 21.6037 10.2094C21.5918 10.1915 21.58 10.1736 21.5681 10.1558L21.5657 10.1534C21.5763 10.1391 21.5882 10.1248 21.5977 10.1093C21.7831 9.81619 21.6048 9.43018 21.4053 9.14662C21.5715 9.27053 21.7772 9.34082 21.9341 9.19784C22.0552 9.41826 22.2205 9.59817 22.2704 9.85671C22.3167 10.0962 22.2264 10.4393 21.8901 10.3738ZM22.0779 8.65574C22.2443 8.84995 22.4046 9.04773 22.5602 9.25264C22.5259 9.32414 22.4593 9.37179 22.356 9.37775C22.2596 9.38253 22.1836 9.33604 22.1122 9.27886C22.0695 9.22882 22.0256 9.18475 21.9791 9.149C21.9875 9.13827 21.9958 9.12636 22.0042 9.11444C22.0945 8.97386 22.1075 8.81302 22.0779 8.65574ZM22.0172 8.44963C22.1313 8.52231 22.2609 8.55089 22.3893 8.48537C22.4675 8.67123 22.5721 8.86782 22.5888 9.07037C22.5924 9.11444 22.5888 9.15615 22.5816 9.19427C22.356 8.91547 22.1812 8.69387 22.0528 8.55089C22.0422 8.51635 22.0314 8.48298 22.0172 8.44963ZM22.6637 9.29673C22.7124 9.19188 22.7089 9.0656 22.678 8.93811C22.766 9.037 22.874 9.1061 22.9976 9.11087C23.0344 9.11206 23.0653 9.1061 23.0938 9.09657C23.1521 9.23478 23.2531 9.5243 23.1022 9.61128C23.032 9.65178 22.9607 9.622 22.8965 9.58029C22.8135 9.4814 22.7362 9.38609 22.6637 9.29673ZM22.8918 8.97863C22.6791 8.86424 22.5544 8.63906 22.4818 8.41865L22.4807 8.41627C22.5721 8.32334 22.6043 8.18752 22.6019 8.04454C22.7089 8.21491 22.8753 8.35074 23.0534 8.37337C23.0915 8.37815 23.126 8.37815 23.158 8.37456C23.1735 8.59975 23.2377 9.1633 22.8918 8.97863ZM20.9573 12.5112C21.1045 12.3706 21.0392 12.1407 20.9133 11.962C21.0689 12.0466 21.2365 12.0656 21.3649 11.8988C21.4373 12.0859 21.5715 12.2693 21.5681 12.4731C21.5644 12.6744 21.3826 12.7852 21.1996 12.7221C21.0915 12.6852 21.025 12.5982 20.9513 12.516C20.9537 12.5148 20.9549 12.5136 20.9573 12.5112ZM21.5145 12.0025C21.6299 12.074 21.7807 12.0716 21.8961 11.9846C22.0446 12.1454 22.1693 12.3301 22.1682 12.5601C22.1682 12.7435 22.0362 12.8948 21.8401 12.846C21.7403 12.821 21.6679 12.7519 21.5953 12.684C21.7226 12.4981 21.6238 12.2193 21.5145 12.0025ZM23.4837 12.4052C23.2995 12.6661 22.9168 12.3122 22.7374 12.1526C22.8384 12.0192 22.817 11.8095 22.7351 11.6248C22.8812 11.7201 23.0476 11.7582 23.1807 11.6438C23.2008 11.626 23.2187 11.6069 23.2341 11.5879C23.2341 11.5914 23.2341 11.5938 23.2365 11.5974C23.3352 11.8083 23.6477 12.1717 23.4837 12.4052ZM23.1617 11.4997C22.9762 11.8118 22.5948 11.3698 22.4509 11.2149C22.5032 11.066 22.4675 10.8647 22.3893 10.6955C22.546 10.8277 22.7361 10.9016 22.9132 10.7527C22.9192 10.7467 22.925 10.7408 22.9311 10.736C23.0428 10.9492 23.3019 11.2638 23.1617 11.4997ZM22.9322 10.5763C22.8217 10.7932 22.5816 10.7384 22.4284 10.6156C22.3476 10.5501 22.2728 10.4774 22.1943 10.4083C22.2477 10.3714 22.2977 10.3154 22.337 10.2332C22.3523 10.201 22.3631 10.1677 22.3714 10.1343C22.4913 10.238 22.6661 10.1593 22.7303 10.0223C22.7742 9.92819 22.7837 9.81977 22.7731 9.71136C22.9013 9.96154 23.0653 10.3178 22.9322 10.5763ZM22.9179 9.78046C22.8978 9.73994 22.8777 9.70062 22.8563 9.66489C22.8587 9.66608 22.8621 9.66846 22.8645 9.66965C22.9406 9.77688 23.0143 9.8865 23.088 9.9961C23.0249 9.93177 22.9702 9.85313 22.9179 9.78046ZM23.0225 9.72803C23.0605 9.73281 23.0986 9.73041 23.1319 9.71851C23.2769 9.66369 23.2924 9.50285 23.2615 9.34559C23.3387 9.41588 23.4456 9.45519 23.5513 9.43374C23.593 9.42541 23.6311 9.40873 23.6667 9.38609C23.6715 9.42303 23.6797 9.46115 23.6905 9.49928C23.7285 9.73756 23.7463 10.0712 23.4623 10.1331C23.4337 10.1391 23.4063 10.1415 23.3815 10.1415C23.2531 9.99729 23.1331 9.85909 23.0225 9.72803ZM23.5645 9.33367C23.3743 9.40039 23.2151 9.22882 23.1854 9.05488C23.1854 9.04892 23.1807 9.04653 23.1759 9.04415C23.246 8.97386 23.2697 8.85471 23.271 8.72724C23.359 8.8845 23.499 9.0108 23.6797 9.02985C23.7048 9.03224 23.7296 9.03224 23.7523 9.02985C23.7523 9.15853 23.6952 9.2872 23.5645 9.33367ZM23.2353 8.35789C23.4039 8.29831 23.4837 8.11364 23.5109 7.92183C23.5917 8.17322 23.7808 8.42699 24.0125 8.48179C24.0125 8.48419 24.0088 8.48537 24.0088 8.48775C23.984 8.56877 23.9898 8.65455 23.9661 8.73558C23.9138 8.91309 23.7475 8.9679 23.5846 8.90476C23.4076 8.83565 23.341 8.67361 23.2591 8.51991C23.252 8.45915 23.2425 8.40435 23.2353 8.35789ZM23.8306 9.01436C23.9518 8.97386 24.0374 8.86663 24.0743 8.74033C24.1361 8.92262 24.2621 9.08346 24.4497 9.12278C24.4486 9.12755 24.4473 9.13232 24.4462 9.13708C24.4391 9.3706 24.4557 9.69347 24.1919 9.79714C24.0006 9.87101 23.871 9.71611 23.789 9.54337C23.7795 9.48379 23.7653 9.42541 23.751 9.37298C23.7463 9.35393 23.7333 9.34559 23.719 9.3444C23.8093 9.261 23.8591 9.13589 23.8306 9.01436ZM26.4937 11.1625C26.2644 11.066 26.2274 10.7193 26.2168 10.4953C26.2168 10.4929 26.2168 10.4917 26.2168 10.4894C26.3534 10.4357 26.4319 10.2928 26.4747 10.1462C26.5222 10.3345 26.6292 10.5096 26.8241 10.5668C26.8204 10.5728 26.817 10.5799 26.8181 10.5882C26.83 10.7801 26.8406 11.3067 26.4937 11.1625ZM26.4165 9.95917C26.3856 10.1057 26.3534 10.3023 26.2108 10.3845C26.0932 10.4524 25.959 10.394 25.8853 10.294C25.8151 10.1987 25.8092 10.0878 25.8092 9.97465C25.8092 9.97228 25.808 9.97109 25.8069 9.96869C25.9554 9.9413 26.098 9.83168 26.1682 9.69229C26.2097 9.80666 26.3035 9.90436 26.4224 9.94487C26.42 9.94964 26.4176 9.95322 26.4165 9.95917ZM26.0695 9.65059C26.0066 9.77687 25.8864 9.88173 25.7379 9.88054C25.4397 9.87935 25.4051 9.55289 25.3814 9.3301C25.562 9.32295 25.7083 9.18831 25.7794 9.02151C25.8164 9.20499 25.9625 9.36941 26.1503 9.40754C26.1146 9.48736 26.1088 9.57195 26.0695 9.65059ZM25.4051 9.23478C25.0678 9.27649 24.9727 8.92262 24.9476 8.66408C24.9476 8.64859 24.9476 8.6331 24.9476 8.61762C25.189 8.63429 25.3779 8.41031 25.4373 8.18274C25.4503 8.41269 25.5573 8.67123 25.7665 8.77012C25.6774 8.95599 25.656 9.2038 25.4051 9.23478ZM25.2887 9.32176C25.2934 9.43493 25.2887 9.54693 25.2258 9.64582C25.1402 9.78165 24.9548 9.85075 24.8087 9.77212C24.5817 9.65059 24.5912 9.37298 24.5591 9.15256C24.5567 9.13589 24.5353 9.13232 24.5223 9.13947V9.13708C24.5223 9.1347 24.521 9.13232 24.521 9.13232C24.6922 9.13947 24.8229 9.02747 24.8919 8.88093C24.9262 9.09061 25.07 9.27888 25.2887 9.32176ZM24.4985 9.02747C24.2299 8.9965 24.1586 8.72247 24.0838 8.50682C24.0838 8.50205 24.0825 8.49848 24.0814 8.49371C24.2954 8.50801 24.4605 8.34836 24.5199 8.15415C24.5532 8.35192 24.6744 8.54255 24.8657 8.59975C24.8182 8.79753 24.7589 9.05845 24.4985 9.02747ZM24.5199 9.44567C24.558 9.6625 24.6768 9.86624 24.9096 9.89125C24.9251 9.89244 24.9394 9.89125 24.9548 9.89125V9.89484C24.9441 10.1033 24.8716 10.4667 24.5733 10.3964C24.4034 10.3559 24.3073 10.1724 24.2584 10.0021C24.2584 9.96035 24.2584 9.91747 24.2561 9.87576C24.4201 9.8031 24.4961 9.62914 24.5199 9.44567ZM25.025 10.145C25.1034 10.3249 25.2638 10.4774 25.454 10.487C25.4646 10.7253 25.4622 11.2292 25.0903 11.116C24.8145 11.0315 24.7885 10.7253 24.7278 10.4882C24.8847 10.4465 24.9833 10.3047 25.025 10.145ZM25.3861 10.3726C25.1996 10.313 25.1045 10.1403 25.0475 9.96513C25.0475 9.9413 25.0464 9.91866 25.044 9.89602C25.044 9.89125 25.0416 9.88888 25.0403 9.8841C25.1771 9.85432 25.2804 9.75305 25.3351 9.62556C25.3814 9.79951 25.5026 9.94964 25.6928 9.97346C25.7023 9.97465 25.7131 9.97346 25.7237 9.97346C25.7189 9.97943 25.7154 9.98776 25.7154 9.9961C25.7118 10.1844 25.6346 10.4488 25.3874 10.3702L25.3861 10.3726ZM25.7712 10.257C25.8211 10.4036 25.9447 10.5203 26.1194 10.512C26.0932 10.7181 26.1421 11.0863 25.8925 11.1041C25.5668 11.128 25.5953 10.7074 25.5525 10.5013C25.5525 10.4941 25.5525 10.4882 25.5514 10.481C25.5514 10.481 25.5514 10.4786 25.5501 10.4762C25.6595 10.4476 25.7321 10.3631 25.7712 10.257ZM26.1788 10.8504C26.2263 11.066 26.3405 11.2674 26.5507 11.2864C26.5555 11.2864 26.5602 11.2864 26.565 11.2864C26.5626 11.321 26.565 11.3567 26.5687 11.3925C26.5615 11.4699 26.552 11.5474 26.5127 11.6165C26.4295 11.7666 26.2715 11.7833 26.1373 11.6796C25.9804 11.5581 25.9387 11.3806 25.94 11.1947C26.1027 11.1697 26.155 11.0183 26.1788 10.8504ZM26.6233 11.5819C26.691 11.7284 26.8133 11.85 26.9715 11.875C26.9739 11.875 26.9762 11.875 26.9786 11.875C26.9227 12.0144 26.9346 12.2765 26.7468 12.2872C26.5032 12.3015 26.4509 12.0192 26.3938 11.8381C26.5032 11.8059 26.5805 11.7034 26.6233 11.5819ZM27.0333 12.7173C26.9346 12.628 26.8693 12.5124 26.8205 12.3897C26.8205 12.3837 26.8204 12.3778 26.8193 12.3718C26.9488 12.3337 26.994 12.1967 27.0262 12.0585C27.0724 12.2431 27.196 12.4326 27.3635 12.4421C27.3588 12.5207 27.3612 12.603 27.3292 12.6756C27.2674 12.8162 27.139 12.8127 27.0333 12.7173ZM27.0059 13.2654C26.8978 13.263 26.817 13.176 26.7729 13.0855C26.7444 13.0283 26.7349 12.9592 26.7052 12.9032C26.704 12.8948 26.7029 12.8853 26.7005 12.877C26.7919 12.8293 26.8217 12.709 26.8276 12.5875C26.8941 12.7352 27.0059 12.8698 27.1509 12.8925C27.1628 12.8949 27.1734 12.8925 27.1853 12.8937C27.1984 13.0402 27.1971 13.269 27.0059 13.2654ZM27.429 12.6053C27.4837 12.7304 27.5859 12.8317 27.7283 12.8532C27.8104 12.8663 27.8936 12.846 27.9613 12.8055C27.9364 12.9997 27.8924 13.2523 27.6749 13.3047C27.4444 13.3595 27.3553 13.1236 27.2708 12.952C27.2708 12.9294 27.2684 12.9068 27.2661 12.8841C27.3707 12.8472 27.4182 12.7269 27.429 12.6053ZM27.3482 12.3087C27.1699 12.2622 27.1117 12.0573 27.0666 11.8893C27.0677 11.8845 27.0677 11.8798 27.0677 11.875C27.2423 11.8452 27.3315 11.6498 27.3659 11.4604C27.4052 11.5974 27.4765 11.7284 27.5822 11.8166C27.6036 11.8345 27.6298 11.85 27.657 11.8631C27.6546 11.8667 27.6523 11.8678 27.6512 11.8726C27.6298 11.9465 27.6333 12.0239 27.6049 12.0978C27.5846 12.149 27.5561 12.1979 27.5193 12.2396C27.461 12.3063 27.4325 12.3325 27.3482 12.3111V12.3087ZM26.9013 11.7439C26.7777 11.6784 26.7016 11.5628 26.6601 11.4354C26.6685 11.3794 26.6709 11.3245 26.6672 11.2757C26.817 11.2376 26.8883 11.0958 26.9121 10.9361C26.9858 11.0874 27.1224 11.209 27.284 11.24C27.278 11.4473 27.2019 11.9024 26.9013 11.7439ZM26.7766 10.4357C26.6162 10.344 26.5687 10.1593 26.5103 9.9961C26.5103 9.99254 26.5116 9.98895 26.5116 9.98539C26.5127 9.97705 26.5116 9.96869 26.5092 9.96156C26.723 9.98658 26.874 9.86028 26.9607 9.68514C26.9548 9.86743 27.0035 10.0581 27.1675 10.1581C27.1865 10.1701 27.2055 10.1784 27.2246 10.1855C27.2222 10.1927 27.2209 10.1998 27.2185 10.2058C27.177 10.2523 27.1615 10.3083 27.1247 10.3595C27.0404 10.4786 26.9013 10.5072 26.7766 10.4357ZM26.5235 9.86624C26.2869 9.84837 26.1978 9.61841 26.2311 9.41111C26.4271 9.41111 26.6197 9.27409 26.6802 9.0918C26.7148 9.25742 26.7885 9.41588 26.9311 9.50403C26.8598 9.69587 26.7658 9.88529 26.5235 9.86624ZM26.1122 9.29554C25.9067 9.2181 25.8283 9.00006 25.8401 8.79513C26.0552 8.85114 26.2655 8.72843 26.3381 8.5354C26.3891 8.68672 26.4878 8.82492 26.6221 8.90476C26.5996 9.15375 26.382 9.39681 26.1122 9.29554ZM26.3011 8.31261C26.2893 8.31857 26.2797 8.33048 26.2797 8.34836C26.2715 8.66289 25.9197 8.84518 25.6893 8.59736C25.5562 8.4544 25.5467 8.24709 25.4812 8.07195C25.4765 8.06003 25.4669 8.05526 25.4574 8.05645C25.4574 8.05407 25.4574 8.05288 25.4574 8.0505C25.6547 8.07074 25.846 7.95876 25.9234 7.78719C25.9495 8.00523 26.098 8.21134 26.3011 8.29593C26.3011 8.30189 26.3011 8.30665 26.3011 8.31261ZM25.3909 7.94446C25.2638 7.90515 25.1652 7.80745 25.1248 7.67996C25.0963 7.59179 25.1069 7.5072 25.1093 7.42023C25.3624 7.48099 25.6167 7.53938 25.8711 7.59656C25.846 7.83842 25.6476 8.02428 25.3909 7.94446ZM25.3922 8.03977C25.2982 8.23279 25.2305 8.5354 24.956 8.5211C24.6697 8.50562 24.5733 8.14462 24.5651 7.91586C24.5651 7.90872 24.5603 7.90394 24.5556 7.90038C24.7505 7.90038 24.9156 7.76217 25.0118 7.58226C25.025 7.78481 25.2045 7.98974 25.3922 8.03977ZM24.3226 7.7288C24.1171 7.60133 24.0434 7.38567 24.0268 7.15812C24.3499 7.23675 24.6721 7.31538 24.9952 7.39403C24.8763 7.67877 24.6388 7.92539 24.3226 7.7288ZM24.3831 7.86702C24.413 7.87893 24.4426 7.88727 24.4711 7.89323C24.4664 7.89919 24.4616 7.90634 24.4605 7.91468C24.445 8.04335 24.4354 8.15773 24.3535 8.26258C24.2098 8.44606 23.9898 8.41031 23.8355 8.26496C23.6654 8.10649 23.5978 7.9099 23.5217 7.7026C23.5204 7.67281 23.5181 7.64421 23.5146 7.61682C23.6892 7.59299 23.8794 7.48696 23.9554 7.33326C23.9946 7.56558 24.1681 7.78004 24.3831 7.86702ZM23.7903 7.34994C23.6797 7.48696 23.4967 7.54057 23.3268 7.49292C23.0381 7.4107 22.9322 7.15812 22.8918 6.88885C23.1342 6.93175 23.3743 7.00204 23.6049 7.05684C23.7035 7.08066 23.8033 7.10451 23.9019 7.12834C23.8662 7.20459 23.8448 7.28203 23.7903 7.34994ZM23.3921 7.62039C23.4052 7.62157 23.4182 7.62039 23.4314 7.62039C23.4338 7.88727 23.3838 8.40316 22.9797 8.24589C22.7089 8.14105 22.5663 7.83484 22.5341 7.5644C22.7636 7.49886 22.8122 7.27488 22.8396 7.04969C22.8705 7.33564 23.0927 7.58703 23.3921 7.62039ZM22.3869 7.48696C22.1503 7.48337 22.0184 7.30585 21.9139 7.11879C21.9056 7.08902 21.8972 7.06042 21.889 7.03182C21.8842 7.01515 21.8734 7.00681 21.8615 7.00204C21.9543 6.95438 22.0528 6.91626 22.1574 6.89004C22.356 6.84001 22.5579 6.8412 22.7612 6.86861C22.7171 7.12356 22.7422 7.49171 22.3869 7.48696ZM21.7783 7.89442C21.5538 8.21849 21.2651 8.02309 21.0107 7.87297C21.0036 7.8694 20.9975 7.8694 20.9917 7.87178C21.0071 7.84676 21.0213 7.82054 21.038 7.79672C21.2342 7.50005 21.4812 7.22126 21.7891 7.04375C21.7891 7.04969 21.7891 7.05446 21.7902 7.06161C21.8711 7.33087 21.9519 7.64423 21.7783 7.89442ZM21.1795 8.80943C21.1533 8.91666 21.1259 8.94288 21.0274 9.00246C20.9014 9.07871 20.8385 9.05011 20.7136 8.98697C20.6446 8.95122 20.5828 8.91309 20.5128 8.88568C20.5117 8.88331 20.5093 8.88212 20.508 8.87974C20.4998 8.8702 20.4903 8.86782 20.4808 8.86782C20.6126 8.56044 20.7576 8.26018 20.9275 7.97663C21.1153 8.19823 21.2532 8.51754 21.1795 8.80943ZM20.7231 9.61485C20.7172 9.78761 20.6198 9.96632 20.438 10.0044C20.287 10.0366 20.1813 9.94726 20.0719 9.87101C20.1955 9.56361 20.3155 9.25026 20.4462 8.94169C20.5651 9.15615 20.7315 9.35393 20.7231 9.61485ZM20.3358 10.5525C20.3334 10.6776 20.2692 10.8766 20.142 10.9314C19.99 10.9969 19.8711 10.9183 19.757 10.8337C19.7499 10.823 19.7415 10.811 19.7357 10.8003C19.7272 10.7872 19.7154 10.7813 19.7035 10.7777C19.8152 10.5454 19.896 10.2987 19.9734 10.1164C19.9924 10.07 20.0114 10.0235 20.0304 9.97584C20.1966 10.1307 20.3393 10.3083 20.3358 10.5525ZM19.8889 11.6022C19.8199 11.8118 19.5799 11.819 19.4124 11.7225C19.3767 11.701 19.3447 11.676 19.3138 11.6486C19.2008 11.5056 19.1342 11.4211 19.1319 11.4199C19.3601 11.3281 19.523 11.1184 19.6501 10.8813C19.7795 11.0779 19.9662 11.3651 19.8889 11.6022ZM19.883 11.8059C19.933 11.7666 19.9662 11.7201 19.9887 11.6701C20.092 11.7975 20.2027 11.9346 20.2228 12.1025C20.2478 12.3182 20.1218 12.4242 19.9306 12.4409C19.7547 12.2145 19.5965 12.0108 19.4683 11.8464C19.6025 11.9072 19.7499 11.9119 19.883 11.8059ZM20.2798 12.3313C20.5033 12.5136 20.8004 12.9771 20.5329 13.2225C20.3453 12.9782 20.1599 12.74 19.99 12.5195C20.1052 12.5315 20.2239 12.4373 20.2798 12.3313ZM20.5923 12.5517C20.685 12.5994 20.7849 12.6149 20.88 12.5648C20.9941 12.7495 21.1201 12.9544 21.1296 13.1772C21.132 13.2237 21.1378 13.3071 21.1153 13.3464C21.0701 13.4262 20.9454 13.5013 20.8538 13.4751C20.7434 13.4441 20.6613 13.35 20.5805 13.2713C20.8123 13.0986 20.7421 12.7972 20.5923 12.5517ZM21.1367 13.4775C21.1438 13.4691 21.1497 13.4608 21.1557 13.4525C21.3066 13.686 21.4611 13.9719 21.3031 14.2257C21.1235 13.991 20.9335 13.7432 20.7434 13.4953C20.8705 13.5811 21.0202 13.6145 21.1367 13.4775ZM21.3126 13.5311C21.4315 13.6264 21.5811 13.6884 21.7059 13.618C21.7059 13.6228 21.7083 13.6276 21.7107 13.6335C21.8153 13.8218 21.9387 14.0327 21.9411 14.2555C21.9424 14.4139 21.8283 14.5414 21.6608 14.5069C21.5419 14.4818 21.4505 14.3841 21.3673 14.3031C21.3649 14.3007 21.3612 14.2984 21.3589 14.2972C21.3554 14.2924 21.3517 14.2876 21.3483 14.2841C21.5406 14.0684 21.4446 13.7718 21.3126 13.5311ZM21.8306 13.6395C21.82 13.6193 21.8082 13.599 21.7986 13.5811C21.7926 13.5704 21.7844 13.5644 21.7749 13.5597C21.7807 13.5537 21.7868 13.5466 21.7926 13.5394C21.9365 13.3536 21.8058 13.0771 21.6893 12.8615C21.8306 12.9568 22.0137 12.9866 22.142 12.877C22.142 12.8818 22.1444 12.8865 22.1468 12.8913C22.2739 13.1165 22.4152 13.3559 22.4118 13.6228C22.4118 13.7134 22.3631 13.8361 22.2776 13.8814C22.2145 13.9147 22.1004 13.8623 22.0422 13.8301C21.9566 13.7825 21.8914 13.7134 21.8306 13.6395ZM22.5235 13.9671C22.5045 13.9314 22.4855 13.8992 22.4652 13.8718C22.4628 13.8682 22.4604 13.8671 22.458 13.8647C22.5996 13.6681 22.5032 13.3655 22.3845 13.1188C22.546 13.2416 22.7504 13.3083 22.8989 13.1987C23.0249 13.4239 23.1949 13.6979 23.0499 13.9528C22.9013 14.215 22.6899 14.1125 22.5235 13.9671ZM22.5948 14.1375C22.7303 14.2376 22.8954 14.2662 23.051 14.122C23.0571 14.1161 23.0629 14.1101 23.069 14.1042C23.069 14.1101 23.0713 14.1149 23.0748 14.1208C23.1865 14.315 23.3125 14.6427 23.1926 14.8607C23.0404 15.1371 22.8325 14.9644 22.6791 14.7868C22.6447 14.7118 22.6067 14.6439 22.5674 14.5879C22.6553 14.4687 22.6447 14.2948 22.5948 14.1375ZM22.7184 15.5577C22.8194 15.4112 22.8122 15.1991 22.7565 14.9989C22.8611 15.0883 22.9881 15.1335 23.1189 15.0776C23.158 15.1621 23.1937 15.2467 23.2187 15.3373C23.2412 15.4183 23.2959 15.5708 23.2721 15.653C23.2496 15.7293 23.1688 15.8162 23.0867 15.8174C23.0167 15.8186 22.962 15.7924 22.906 15.7555C22.8301 15.7054 22.7718 15.6328 22.7089 15.5684C22.7113 15.5649 22.716 15.5613 22.7184 15.5577ZM23.2116 15.0192C23.3778 14.8774 23.3743 14.62 23.309 14.3925C23.4444 14.5295 23.6168 14.6117 23.7998 14.5128C23.8699 14.7273 24.0302 15.0371 23.9032 15.2479C23.7058 15.5732 23.3542 15.1705 23.2116 15.0192ZM23.858 17.302C23.9269 17.4592 24.0493 17.5843 24.2241 17.5534C24.2359 17.7654 24.2835 18.0192 24.0992 18.1717C23.8733 18.36 23.7071 18.1157 23.6287 17.9203C23.6287 17.9084 23.6263 17.8965 23.625 17.8846C23.6488 17.8738 23.6738 17.8584 23.6976 17.8369C23.8318 17.7178 23.8686 17.5045 23.8567 17.2996L23.858 17.302ZM24.022 18.3254C24.0088 18.4838 23.9768 18.6518 23.8818 18.7793C23.826 18.8545 23.7475 18.9139 23.6501 18.908C23.5835 18.9044 23.5217 18.8722 23.4837 18.8223C23.4824 18.7983 23.4813 18.7758 23.4789 18.7519C23.4681 18.6315 23.4528 18.5125 23.4338 18.3933C23.5418 18.3553 23.5989 18.2396 23.6203 18.1133C23.6952 18.2623 23.8543 18.3671 24.022 18.3231V18.3254ZM23.4943 19.3394C23.5502 19.4059 23.6453 19.45 23.738 19.4608C23.7119 19.6932 23.6572 19.9565 23.4182 20.0267C23.461 19.8051 23.486 19.5753 23.4943 19.3394ZM23.6786 19.356C23.5716 19.312 23.5574 19.2249 23.5051 19.1355C23.5027 19.132 23.499 19.1297 23.4967 19.1273C23.4967 19.0629 23.4943 18.9974 23.4908 18.9318C23.5716 18.9951 23.6952 19.0165 23.7914 18.9759C23.9293 18.9188 24.0149 18.7912 24.0624 18.6471C24.0873 18.703 24.1277 18.7674 24.1813 18.8043C24.1253 18.9711 24.1087 19.1595 23.9721 19.2845C23.8913 19.3584 23.7843 19.4001 23.6786 19.356ZM24.306 19.2582C24.237 19.1308 24.2489 18.9748 24.255 18.8342C24.2692 18.8353 24.2835 18.8353 24.2978 18.8329C24.4259 18.8091 24.5187 18.64 24.5699 18.535C24.5865 18.4993 24.6018 18.4637 24.6137 18.4267C24.6483 18.5553 24.7183 18.6745 24.8182 18.7614C24.722 18.9711 24.6351 19.1832 24.5699 19.4049C24.464 19.406 24.3583 19.3548 24.306 19.2582ZM24.685 18.0347C24.6946 18.0311 24.703 18.0287 24.7125 18.024C24.8491 17.9561 24.9096 17.8119 24.9299 17.6689C24.9323 17.6487 24.9357 17.6284 24.9381 17.607C25.0047 17.7213 25.1021 17.8131 25.2281 17.8536C25.1843 17.9668 25.1391 18.0788 25.0868 18.1896C25.0094 18.3563 24.9286 18.5207 24.8514 18.6864C24.7064 18.4898 24.6626 18.2766 24.685 18.0347ZM24.9286 17.0529C25.0213 16.9922 25.0475 16.8766 25.0606 16.7646C25.0689 16.6979 25.0749 16.624 25.0773 16.5502C25.1021 16.6026 25.1307 16.6514 25.1676 16.6979C25.2437 16.7908 25.3684 16.8873 25.4955 16.8969C25.4455 17.1876 25.3684 17.4723 25.2662 17.7511C24.9656 17.6641 24.9952 17.3079 24.9286 17.0529ZM25.4099 16.7599C25.3196 16.7182 25.2495 16.6467 25.1972 16.5633C25.1129 16.431 25.076 16.2749 25.0237 16.1296C25.1925 16.0259 25.2104 15.7865 25.1853 15.566C25.278 15.6995 25.4194 15.8055 25.562 15.8591C25.5644 15.9175 25.5668 15.9759 25.5681 16.0355C25.5704 16.2928 25.5501 16.5442 25.5134 16.7908C25.4788 16.7837 25.4432 16.7753 25.4099 16.7599ZM25.3042 15.5601C25.2199 15.4648 25.1806 15.3552 25.133 15.242C25.1354 15.2408 25.1391 15.2384 25.1391 15.2384C25.3185 15.1133 25.3589 14.9286 25.3362 14.7392C25.3684 14.7868 25.4028 14.8333 25.4408 14.8774C25.4991 15.1633 25.5383 15.4517 25.5562 15.746C25.4598 15.7031 25.3755 15.6411 25.3042 15.5601ZM25.2673 14.4616C25.2437 14.3984 25.2175 14.3365 25.1914 14.2805C25.221 14.2543 25.2461 14.2221 25.2662 14.1876C25.3148 14.3484 25.3589 14.5092 25.3969 14.6725C25.3494 14.6046 25.3077 14.5343 25.2673 14.4616ZM24.7624 14.2626C24.6113 14.2078 24.5199 14.0839 24.4378 13.954C24.4307 13.9338 24.4236 13.9147 24.4177 13.8968C24.4236 13.8933 24.4296 13.8909 24.4354 13.8861C24.5794 13.7741 24.5614 13.5585 24.5424 13.3988C24.5353 13.3393 24.5247 13.2749 24.5115 13.2106C24.6388 13.313 24.7944 13.3833 24.9346 13.4048C24.9537 13.4072 24.969 13.4012 24.9798 13.3917C25.0689 13.6061 25.1486 13.8242 25.221 14.0446C25.1605 14.2364 24.9526 14.3305 24.7624 14.2626ZM24.2169 12.6864C24.0458 12.8675 23.8472 12.7555 23.6797 12.6304C23.6501 12.5851 23.6179 12.5434 23.5835 12.51C23.5775 12.5041 23.5703 12.5005 23.5632 12.4993C23.7238 12.3051 23.6108 12.0299 23.4729 11.8047C23.6952 11.9739 23.9982 12.0728 24.1836 11.9119C24.293 12.1443 24.4248 12.4659 24.2169 12.6864ZM23.6559 11.8083C23.5098 11.732 23.4111 11.5986 23.2805 11.5045C23.3434 11.3484 23.2853 11.1601 23.196 10.9886C23.3542 11.091 23.5693 11.1113 23.7475 11.0386C23.89 11.2781 24.0279 11.5188 24.1646 11.7606C24.022 11.8845 23.8364 11.9036 23.6559 11.8083ZM23.0167 10.6478C23.0167 10.6478 23.0106 10.6419 23.0071 10.6395C23.1057 10.4739 23.0891 10.2546 23.0249 10.0462C23.0832 10.1093 23.1509 10.1629 23.2235 10.1963C23.3873 10.4465 23.5442 10.7002 23.6976 10.9564C23.4005 11.0612 23.1664 10.9123 23.0167 10.6478ZM23.4623 10.2308C23.4884 10.226 23.5146 10.2189 23.5418 10.2082C23.6002 10.1844 23.6453 10.1522 23.6821 10.1129C23.8342 10.2785 23.8889 10.4715 23.8876 10.6883C23.7368 10.5311 23.5954 10.3785 23.4623 10.2308ZM23.7404 10.0342C23.7879 9.94964 23.8057 9.84717 23.8057 9.74233C23.8865 9.85313 24.0006 9.92819 24.1432 9.91032C24.1515 9.91032 24.1586 9.90674 24.1657 9.90555C24.1694 10.014 24.1705 10.1224 24.1657 10.2308C24.1623 10.3083 24.142 10.4334 24.0374 10.4071C23.9851 10.394 23.9494 10.3499 23.9174 10.3059C23.877 10.2058 23.8165 10.1129 23.7404 10.0366V10.0342ZM23.9589 10.4453C24.0183 10.4929 24.0897 10.5132 24.167 10.4643C24.2336 10.4214 24.2466 10.3428 24.2526 10.2689C24.255 10.2475 24.2537 10.226 24.255 10.2046C24.3237 10.3642 24.4473 10.4989 24.6221 10.5037C24.6483 10.6216 24.7682 11.3448 24.5532 11.3496C24.3356 11.1446 24.1337 10.9445 23.9459 10.7503C23.9756 10.6502 23.9779 10.5477 23.9589 10.4477V10.4453ZM24.7695 10.9445C24.843 11.097 24.9643 11.2149 25.1521 11.2316C25.1853 11.2352 25.2162 11.2328 25.2448 11.2292V11.2316C25.2091 11.3639 25.2733 11.8392 25.038 11.7868C24.8966 11.6629 24.76 11.539 24.6293 11.4163C24.7516 11.3913 24.7767 11.1685 24.7695 10.9445ZM25.2556 11.769C25.3005 11.7094 25.3161 11.6403 25.3208 11.5688C25.3742 11.6808 25.4658 11.7666 25.6024 11.7844C25.6333 11.788 25.6619 11.788 25.6904 11.7833C25.7379 11.9679 25.7308 12.149 25.6893 12.3325C25.4896 12.1729 25.2982 12.0144 25.1164 11.8559C25.17 11.8452 25.221 11.8142 25.2556 11.769ZM25.5728 11.6724C25.3874 11.6176 25.3684 11.427 25.3386 11.2602C25.3433 11.2435 25.3386 11.228 25.3303 11.2173C25.3303 11.2137 25.3291 11.209 25.328 11.2054C25.436 11.1566 25.4967 11.0469 25.5276 10.9206C25.5799 11.0624 25.6822 11.1768 25.8425 11.1959C25.8069 11.3794 25.8592 11.7558 25.5728 11.6724ZM25.8056 12.0883C25.8674 12.2372 25.9685 12.367 26.1075 12.3909C26.1302 12.3945 26.1527 12.3945 26.174 12.3909C26.1883 12.4981 26.1788 12.6018 26.1598 12.7066C26.0552 12.6208 25.9506 12.5374 25.8473 12.4564C25.8069 12.4242 25.7665 12.3933 25.726 12.3611C25.7699 12.2741 25.7972 12.1824 25.8056 12.0883ZM25.9981 12.2074C25.8829 12.0787 25.8235 11.9143 25.7794 11.7487C25.8235 11.7213 25.8603 11.6796 25.8829 11.626C25.8948 11.5974 25.9054 11.5652 25.9149 11.5307C25.9709 11.6641 26.0742 11.7785 26.205 11.8273C26.2287 11.8369 26.2525 11.8416 26.2739 11.8452C26.2739 11.8476 26.2739 11.8488 26.2739 11.8512C26.2977 11.9596 26.3368 12.0883 26.2821 12.1943C26.2145 12.3265 26.0872 12.3075 25.9981 12.2074ZM26.2583 12.566C26.3119 12.7316 26.426 12.8901 26.5959 12.8972C26.6114 12.8972 26.6244 12.8961 26.6376 12.8937C26.6292 12.9354 26.6352 12.9795 26.6363 13.0223C26.6363 13.0593 26.6387 13.0962 26.6424 13.132C26.5032 12.9997 26.3595 12.8734 26.2156 12.7531C26.2393 12.6923 26.2525 12.6304 26.2583 12.566ZM26.6292 12.7995C26.5175 12.8293 26.4141 12.6899 26.3666 12.6113C26.3191 12.5327 26.2869 12.4457 26.2596 12.3587C26.2953 12.3373 26.3273 12.3075 26.3511 12.2729C26.382 12.2265 26.3986 12.1764 26.4046 12.124C26.4556 12.2586 26.5544 12.3694 26.7124 12.3837C26.723 12.3837 26.7301 12.3837 26.7396 12.3837C26.7029 12.516 26.78 12.759 26.6268 12.8007L26.6292 12.7995ZM26.7029 13.0926C26.7219 13.1343 26.7444 13.1736 26.7671 13.2034C26.8241 13.2785 26.9132 13.3357 27.0082 13.3381C27.0178 13.4227 27.0415 13.5132 27.0819 13.5942C26.9607 13.4501 26.83 13.3119 26.6945 13.1808C26.6992 13.151 26.7005 13.1224 26.7029 13.0926ZM27.8377 14.2185C27.6546 14.1709 27.5822 13.9898 27.5632 13.8182C27.6475 13.7789 27.713 13.7062 27.7415 13.618C27.8115 13.7336 27.947 13.8063 28.0886 13.8075C28.0981 13.8218 28.1087 13.8361 28.1182 13.8516C28.1122 13.8635 28.1098 13.8778 28.1182 13.8945C28.212 14.0851 28.0374 14.271 27.8377 14.2185ZM27.8461 14.3246C27.8437 14.4771 27.802 14.6129 27.7592 14.7547C27.7521 14.7451 27.7463 14.7356 27.7378 14.7261C27.6903 14.5771 27.6287 14.4354 27.5561 14.296C27.5669 14.2424 27.5727 14.1864 27.574 14.1316C27.6311 14.2293 27.7249 14.3031 27.8437 14.3246H27.8461ZM28.0302 12.5481C28.0088 12.6971 27.8556 12.7936 27.7093 12.7531C27.5645 12.7138 27.4789 12.5684 27.4314 12.4338C27.5574 12.3992 27.6702 12.2574 27.7188 12.1121C27.7605 12.286 27.8686 12.4516 28.0173 12.5267C28.0231 12.5291 28.0279 12.5303 28.0339 12.5303V12.5338C28.0315 12.5374 28.0302 12.5422 28.0302 12.5481ZM27.8508 12.1931C27.8044 12.1002 27.783 12.0013 27.7687 11.9012C27.8306 11.9131 27.8936 11.9107 27.9447 11.8845C27.9708 12.0585 27.9959 12.2324 28.0183 12.4076C27.9542 12.3432 27.8949 12.2801 27.8508 12.1931ZM27.8009 11.7987C27.7093 11.7928 27.6358 11.7308 27.5822 11.6617C27.4872 11.5402 27.4372 11.3913 27.3873 11.2483C27.5989 11.2435 27.7164 11.0874 27.7676 10.8968C27.8282 11.1863 27.8817 11.477 27.928 11.7701C27.8876 11.7856 27.8474 11.8011 27.8009 11.7987ZM27.2507 11.1208C26.994 11.0434 26.975 10.7956 26.9346 10.5763C27.051 10.5668 27.171 10.4977 27.2317 10.3988C27.2589 10.4751 27.3101 10.5442 27.3719 10.593C27.4562 10.6585 27.593 10.7038 27.7069 10.6824C27.6665 10.9314 27.5703 11.2161 27.2507 11.1208ZM27.6322 10.5835C27.568 10.5787 27.5038 10.5561 27.4515 10.5191C27.3445 10.4441 27.3136 10.3249 27.297 10.2034C27.4016 10.2141 27.4967 10.1593 27.5716 10.0771C27.6168 10.2439 27.6594 10.4119 27.6987 10.5799C27.6773 10.5823 27.6546 10.5859 27.6322 10.5835ZM27.1615 10.0199C27.0368 9.89602 27.051 9.70896 27.0309 9.54693C27.1593 9.58506 27.2994 9.54693 27.3791 9.44804C27.4349 9.61722 27.4884 9.78761 27.536 9.95798C27.4385 10.0843 27.3028 10.1605 27.1615 10.0199ZM27.0178 9.43374C27.0119 9.42899 27.0048 9.42541 26.9964 9.42422C26.9655 9.40873 26.9369 9.38847 26.9121 9.36345C26.8014 9.25385 26.7658 9.09895 26.7277 8.95241C26.8693 8.99412 27.0666 8.95956 27.1569 8.84041C27.2222 9.00246 27.2827 9.16567 27.3398 9.3301C27.2851 9.46591 27.1401 9.48498 27.0178 9.43374ZM26.7908 8.03024C26.6839 8.22564 26.4414 8.26971 26.2477 8.13866C26.0684 8.01713 26.0398 7.8146 25.9875 7.62157C26.1051 7.64661 26.2216 7.674 26.3392 7.69783C26.3415 7.69783 26.3439 7.69783 26.3463 7.69783C26.42 7.71928 26.4926 7.72524 26.5687 7.6764C26.5769 7.67162 26.5853 7.66447 26.5924 7.65732C26.6614 7.78004 26.7279 7.90513 26.7908 8.03024ZM24.4367 5.1315C24.2299 5.06596 24.0244 5.0195 23.8342 4.9075C23.6155 4.78003 23.4562 4.59774 23.3339 4.37851C23.3387 4.37851 23.3434 4.37851 23.3482 4.37493C23.9019 3.98177 24.7064 4.43809 24.4367 5.1315ZM23.1865 4.35825C23.2008 4.33324 23.2163 4.30941 23.2496 4.2963C23.2959 4.27725 23.3495 4.28915 23.3981 4.28677C23.373 4.30226 23.3162 4.34872 23.3162 4.35587C23.3067 4.35229 23.2924 4.36063 23.2972 4.37255C23.461 4.84317 23.9684 5.21013 24.4687 5.2149C24.4782 5.2149 24.4854 5.21132 24.4914 5.20654C24.5068 5.20654 24.5519 5.12673 24.5603 5.09932C24.5912 5.14221 24.7183 5.22205 24.6066 5.3674C24.3546 5.49368 23.8746 5.32451 23.6726 5.20654C23.3542 5.02188 23.1533 4.72521 23.1865 4.35825ZM20.558 3.43252C20.5936 3.30026 20.6518 3.19661 20.7255 3.11321C20.7469 3.09058 20.7682 3.06794 20.792 3.04768C21.2936 2.60924 22.3452 2.85467 22.7232 2.15292C23.0487 1.54886 22.9108 0.718432 22.5745 0.14178C23.1474 0.929316 23.265 2.33759 22.155 2.71051C21.7831 2.8356 21.2912 2.88206 21.0155 3.17039C21.0118 3.1692 21.0094 3.16683 21.006 3.16564C20.899 3.24308 20.8277 3.35627 20.8171 3.49804C20.7706 3.50043 20.7231 3.50281 20.6792 3.49447C20.6328 3.48494 20.59 3.46825 20.5472 3.45038C20.5519 3.44682 20.5567 3.43967 20.558 3.43252ZM20.2288 3.0429C19.6345 2.96309 19.0594 3.06794 18.5557 3.5588C18.2311 3.87454 18.0731 4.24865 18.0089 4.64896C17.643 3.65531 19.6287 2.08738 20.2288 3.0429ZM20.1575 3.14538C19.8152 3.25379 19.6179 3.61837 19.6226 3.98892C19.6274 4.36659 19.7843 4.76811 19.9948 5.13029C19.7225 4.80742 19.4052 4.51313 19.0607 4.37374C18.729 4.23912 18.3238 4.29511 18.1479 4.59893C18.1622 4.52983 18.1788 4.46072 18.1991 4.39281C18.4094 3.71964 19.0476 3.21925 19.7404 3.14538C19.877 3.13108 20.0174 3.13108 20.1575 3.14538ZM17.9199 5.34118C17.776 5.46867 17.7107 5.65215 17.618 5.83444C17.3649 6.33485 16.8646 6.69107 16.2893 6.66605C15.2972 6.62316 14.7244 5.66526 14.5652 4.75858C14.7921 5.45318 15.3756 6.03341 16.0803 6.23237C16.4119 6.3253 16.811 6.34437 17.0904 6.10728C17.2543 5.96908 17.3364 5.7713 17.4338 5.58542C17.5551 5.35667 17.707 5.20894 17.8771 5.06C18.0173 4.96589 18.1753 4.89797 18.3227 4.81816C18.3536 4.8956 18.3631 4.98137 18.3595 5.06715C18.3571 5.12077 18.3465 5.16366 18.3298 5.20298C18.1527 5.18272 18.0184 5.23754 17.9186 5.33522C17.9186 5.33762 17.9199 5.3388 17.9199 5.34118ZM17.9424 7.93969C17.889 7.67281 17.9495 7.31419 18.2002 7.17122C18.2026 7.17003 18.205 7.16765 18.2062 7.16527C18.5687 7.5358 18.6149 7.98616 18.4582 8.46511C18.1944 8.37933 17.9994 8.22564 17.9424 7.93969ZM18.3333 8.67719C18.2572 8.62358 18.249 8.5378 18.2467 8.45321C18.3085 8.48179 18.375 8.49847 18.4474 8.49967C18.4439 8.5092 18.4416 8.51991 18.4379 8.52946C18.4355 8.5378 18.4474 8.54495 18.4522 8.5378C18.8098 8.09338 18.6506 7.45836 18.2181 7.13309C18.2145 7.11404 18.1967 7.09615 18.1729 7.1033C18.1325 7.11404 18.0982 7.1319 18.066 7.15454C18.0731 7.0914 18.0815 7.02705 18.1159 6.97225C18.1384 6.93771 18.1706 6.90911 18.2086 6.89362C18.224 6.88647 18.2395 6.88289 18.2538 6.87813C18.8336 7.10689 19.0666 8.34836 18.5259 8.71054C18.4593 8.70817 18.3975 8.72247 18.3333 8.67719ZM18.5996 8.7737C19.1604 8.39245 18.9965 6.84716 18.2799 6.80664C18.2775 6.80426 18.2752 6.80069 18.2715 6.7995C18.2596 6.70656 18.2466 6.61363 18.2348 6.5207C18.1872 6.13826 18.1172 5.72959 18.1005 5.32569C18.1539 5.30187 18.2157 5.28638 18.2871 5.28042C18.2763 5.29709 18.2657 5.31379 18.2525 5.33165C18.249 5.33643 18.2525 5.34237 18.2585 5.34237C18.3832 5.34477 18.4273 5.18272 18.4368 5.08383C18.4511 4.93372 18.4273 4.7693 18.3 4.67399C18.2715 4.65254 18.2477 4.69542 18.2657 4.71927C18.2776 4.73475 18.2871 4.75024 18.2966 4.76573C18.2335 4.78122 18.173 4.80027 18.1135 4.82172C18.1159 4.79908 18.1183 4.77645 18.1207 4.75381C18.6495 3.51352 20.0516 5.39598 20.4546 5.82252C20.47 5.83921 20.009 5.02665 19.8485 4.60845C19.6464 4.08422 19.6144 3.25975 20.363 3.19184C20.3738 3.19184 20.4843 3.20018 20.5318 3.2121C20.5199 3.24308 20.4808 3.38247 20.4748 3.41941C20.4486 3.40867 20.4214 3.39796 20.3939 3.38962C20.3844 3.38605 20.3773 3.39796 20.381 3.4063C20.3987 3.43967 20.4285 3.47183 20.4665 3.49922C20.4689 3.50519 20.4737 3.50877 20.4795 3.50877C20.628 3.61241 20.8789 3.66246 20.9893 3.55284C21.0047 3.53735 20.9965 3.51234 20.9774 3.50637C20.9442 3.49566 20.9098 3.49447 20.8741 3.49447C20.8776 3.48255 20.9359 3.37651 20.9645 3.33957C21.2685 3.44682 21.5633 3.57906 21.8319 3.70059C22.2585 3.8924 22.6732 4.11163 23.0713 4.35944C23.0713 4.37374 22.9358 4.84792 23.5431 5.24588C23.713 5.35786 24.2526 5.58782 24.5448 5.50321C24.9774 5.92141 25.3623 6.38369 25.6928 6.89719C25.6928 6.90196 25.6964 6.90552 25.6999 6.90792C25.776 7.02586 25.8484 7.1462 25.9186 7.26892C25.1045 7.15931 24.3784 6.84476 23.5775 6.63149C22.9501 6.46471 22.243 6.38965 21.6322 6.65653C20.9489 6.95438 20.5865 7.67043 20.274 8.30665C20.0968 8.66647 19.9377 9.03581 19.7832 9.40635C19.6905 9.62796 19.4242 10.5918 19.1628 10.8897C18.9276 10.1963 18.7457 9.48975 18.5972 8.77489L18.5996 8.7737ZM18.7731 11.1518C18.7208 10.979 18.9371 10.8432 19.0285 10.7026C19.056 10.7813 19.1236 10.9719 19.1521 11.0529C19.1688 11.0243 19.3434 10.8099 19.4195 10.6288C19.5751 10.2582 19.7225 9.88531 19.877 9.51477C20.2204 8.6903 20.59 7.54532 21.3079 6.96987C22.7956 5.77724 24.6589 7.51435 26.2536 7.37018C26.2953 7.36662 26.2964 7.30585 26.2536 7.30348C26.1717 7.2987 26.0909 7.29037 26.0113 7.28203C26.0113 7.27965 26.0113 7.27725 26.0089 7.27488C25.9519 7.17122 25.8925 7.07114 25.8306 6.97106C25.8341 6.97225 25.8378 6.97464 25.8425 6.97464C26.0623 6.99966 26.6553 6.97344 26.672 7.29155C26.6804 7.45358 26.514 7.61086 26.3642 7.60848C26.3582 7.60848 26.3523 7.60848 26.3463 7.60729C25.3945 7.35232 24.4259 7.14858 23.467 6.92222C22.7446 6.75183 22.1004 6.63151 21.4777 7.13071C20.8871 7.6049 20.5841 8.36981 20.2965 9.04773C20.1123 9.4814 19.8627 9.89365 19.7547 10.3523C19.6131 10.954 18.9442 11.7153 18.7731 11.1542V11.1518ZM21.6476 16.0152C21.7023 15.7686 21.6798 15.4993 21.6072 15.2646C21.6037 15.2527 21.5858 15.2575 21.5882 15.2694C21.6632 15.6304 21.5906 15.9306 21.4646 16.2571C21.5287 15.6292 21.3792 14.9739 21.0546 14.4354C21.0321 14.3973 20.9787 14.4306 20.9965 14.4699C21.2828 15.1097 21.4741 15.7674 21.3399 16.4751C21.2923 16.7253 21.1557 17.016 20.9999 17.2805C21.3565 16.431 21.1533 15.3885 20.8158 14.5641C20.811 14.5533 20.7944 14.5581 20.798 14.5688C21.183 15.6232 21.2258 16.6157 20.6911 17.5939C20.8776 16.6479 20.7172 15.4374 20.274 14.6224C20.255 14.5867 20.2061 14.6177 20.2217 14.6534C20.6958 15.7733 20.9692 17.0029 20.3725 18.1372C19.8746 19.0856 18.8526 19.5597 17.8462 19.3035C18.7255 19.1737 19.4219 18.659 19.8413 17.8643C20.3464 16.91 20.3001 15.7686 20.0814 14.7416C20.0791 14.7285 20.06 14.7344 20.0624 14.7463C20.2288 15.7555 20.2466 16.8147 19.7618 17.744C19.3482 18.5363 18.71 18.9259 17.8961 19.1523C18.1005 19.0247 18.2918 18.8758 18.4641 18.7043C19.3613 17.8095 19.6797 16.4596 19.5597 15.2253C19.555 15.1824 19.4897 15.1812 19.4921 15.2253C19.5645 16.4131 19.3209 17.6511 18.4867 18.5471C18.2263 18.827 17.9162 19.0534 17.5776 19.2178C17.5728 19.2154 17.567 19.2141 17.5622 19.2118C17.5432 19.2046 17.53 19.2238 17.5324 19.2405C17.0797 19.4526 16.5783 19.5526 16.0803 19.5144C17.9508 19.4526 19.0393 17.495 19.1818 15.7841C19.1818 15.7817 19.1783 15.7817 19.177 15.7841C19.0262 16.711 18.7755 17.6368 18.1325 18.3492C17.5789 18.9629 16.8895 19.2357 16.1207 19.3357C17.1853 19.026 18.091 18.2158 18.4582 17.1459C19.0785 15.3373 17.997 13.3226 19.1009 11.6284C19.6643 12.7412 20.577 13.6014 21.3565 14.5581C21.511 14.7475 21.6619 14.9429 21.8082 15.1419C21.8082 15.1443 21.8069 15.1467 21.8082 15.1502C21.8343 15.4683 21.7749 15.7495 21.6489 16.0128L21.6476 16.0152ZM21.8438 14.9382C21.7535 14.8178 21.6513 14.6832 21.5443 14.5414C21.6809 14.6224 21.8425 14.6415 21.9614 14.4961C21.9696 14.4854 21.9757 14.4735 21.9828 14.4628C22.0612 14.7046 22.2572 15.0108 22.0671 15.2455C21.9947 15.1419 21.9199 15.0382 21.8438 14.9382ZM22.098 15.2908C22.2728 15.1419 22.2657 14.8548 22.1753 14.6284C22.2739 14.6975 22.3893 14.7273 22.4937 14.6582C22.5935 14.8345 22.6661 15.0144 22.6791 15.2205C22.6886 15.373 22.6506 15.566 22.4712 15.5768C22.3703 15.5827 22.2881 15.5243 22.2121 15.4588C22.174 15.4028 22.136 15.3468 22.098 15.2908ZM22.3191 15.6197C22.42 15.678 22.5317 15.7019 22.6268 15.6459C22.7184 15.7388 22.7802 15.846 22.8016 15.9759C22.8075 16.0116 22.8051 16.3 22.7433 16.3512C22.6138 16.101 22.4712 15.8567 22.3191 15.6197ZM22.8965 16.1439C22.9084 16.0283 22.8907 15.9139 22.8468 15.8091C22.9702 15.9151 23.1271 15.9711 23.2745 15.8567C23.2781 15.8544 23.2816 15.8508 23.2853 15.8472C23.3683 16.0831 23.4016 16.3309 23.3281 16.5764C23.2032 16.9958 22.9155 16.6074 22.7992 16.4001C22.8563 16.3333 22.8918 16.1915 22.8965 16.1439ZM22.9549 16.792C23.051 16.885 23.1688 16.9302 23.2805 16.8504C23.2853 16.8468 23.29 16.8421 23.2948 16.8373C23.3529 17.0375 23.4504 17.408 23.2246 17.5021C23.1485 17.2602 23.0571 17.0243 22.9549 16.792ZM23.2449 17.5688C23.4872 17.5283 23.4776 17.2102 23.4253 16.9695C23.5051 17.0399 23.6203 17.0684 23.7238 17.0375C23.7463 17.2138 23.7761 17.3949 23.7357 17.57C23.7059 17.6987 23.6298 17.8286 23.4742 17.8155C23.3873 17.8083 23.3209 17.7237 23.2674 17.6463C23.2602 17.6201 23.2533 17.595 23.2449 17.5688ZM23.3138 17.8155C23.3791 17.875 23.4586 17.9132 23.5407 17.9084C23.5146 18.0549 23.5537 18.2503 23.4242 18.3326C23.3957 18.1574 23.3588 17.9858 23.3138 17.8155ZM23.4039 20.1019C23.6002 20.1078 23.7071 19.9397 23.7642 19.7539C23.7737 19.9172 23.8366 20.0745 23.9827 20.1339C23.9066 20.2555 23.8733 20.3961 23.7642 20.4974C23.6263 20.626 23.3696 20.6177 23.3162 20.4462C23.3495 20.333 23.3791 20.2198 23.4039 20.1019ZM23.2853 20.551C23.3268 20.6117 23.3944 20.6582 23.4705 20.6774C23.461 20.707 23.4515 20.7392 23.4433 20.7737C23.3802 20.9096 23.2686 21.0014 23.1081 21.0109C23.1746 20.862 23.2341 20.7084 23.2853 20.551ZM23.0642 21.1014C23.1831 21.1241 23.3162 21.074 23.4087 20.9871C23.4039 21.0979 23.4242 21.2027 23.4956 21.2742C23.4182 21.3909 23.3482 21.5137 23.2425 21.6077C23.1759 21.6673 23.101 21.7198 23.0082 21.7174C22.8954 21.7138 22.8312 21.6341 22.8325 21.5304C22.9168 21.3921 22.9942 21.2491 23.0642 21.1014ZM22.7671 21.6352C22.7932 21.7008 22.8621 21.7602 22.9335 21.7877C22.8289 21.9164 22.6125 22.1631 22.4485 22.1642C22.4379 22.1475 22.4141 22.138 22.3927 22.1534C22.3904 22.1523 22.3869 22.151 22.3845 22.1486C22.5222 21.9842 22.6517 21.8149 22.7671 21.6352ZM22.2763 22.2763C22.1658 22.4143 22.0898 22.5955 22.2467 22.729C22.2573 22.7385 22.2704 22.7457 22.2823 22.7528C22.2264 22.7766 22.1777 22.823 22.1217 22.8517C22.0219 22.9016 21.7511 22.9982 21.7379 22.8087C21.9294 22.642 22.1088 22.4633 22.2763 22.2763ZM21.9043 23.0066C21.9733 23.0006 22.0826 22.9755 22.1753 22.9314C22.1265 23.0232 22.1135 23.134 22.1527 23.2282C22.1183 23.2388 22.0837 23.2544 22.0504 23.2734C21.9448 23.3032 21.8367 23.333 21.726 23.3259C21.6001 23.3174 21.5467 23.2174 21.5823 23.103C21.6024 23.0364 21.6524 22.985 21.6917 22.9291C21.7403 22.9839 21.8319 23.0148 21.9032 23.009L21.9043 23.0066ZM21.1806 23.2472C21.3256 23.1435 21.4669 23.0364 21.6037 22.9232C21.486 23.0446 21.4029 23.252 21.5597 23.3699C21.6476 23.4354 21.7712 23.439 21.889 23.4103C21.8378 23.4771 21.8082 23.5557 21.8153 23.6367C21.8069 23.6404 21.7986 23.644 21.7902 23.6464C21.6547 23.6464 21.5158 23.6678 21.385 23.6214C21.2413 23.5702 21.1415 23.4248 21.1842 23.2723C21.1866 23.2628 21.183 23.2544 21.1806 23.2472ZM21.1557 23.6272C21.1639 23.6225 21.1735 23.6177 21.1819 23.6129C21.1972 23.6296 21.2151 23.6451 21.2342 23.6594C21.3316 23.7322 21.4563 23.7572 21.5787 23.7512C21.473 23.8166 21.3815 23.9024 21.3435 24.0203C21.3303 24.0597 21.3245 24.1039 21.3232 24.148C21.1676 24.1324 20.9133 24.2325 20.8313 24.0549C20.7648 23.9108 21.0617 23.7177 21.1557 23.6272ZM21.0831 23.3151C21.0665 23.4021 21.0903 23.4902 21.1402 23.5628C21.0118 23.6106 20.6293 23.8238 20.6185 23.6106C20.7767 23.5177 20.9334 23.4187 21.0831 23.3151ZM20.5603 23.6451C20.5686 23.7082 20.6245 23.7631 20.6935 23.7797C20.7458 23.7916 20.8004 23.7821 20.8514 23.7644C20.7564 23.8441 20.6874 23.943 20.7149 24.0538H20.7101C20.7101 24.0406 20.6969 24.0277 20.6827 24.03C20.4486 24.0789 20.2811 24.0491 20.1028 23.8905C20.2573 23.8132 20.4106 23.7309 20.5603 23.6451ZM20.4594 24.1575C20.331 24.2409 20.2275 24.3636 20.1741 24.5077C20.0125 24.4828 19.6215 24.5077 19.5989 24.2934C19.5727 24.0372 19.8949 24.0253 20.06 23.9776C20.1467 24.0942 20.3073 24.1622 20.4594 24.1575ZM19.6821 24.5256C19.3613 24.5148 19.0369 24.4886 18.6981 24.4565C18.9762 24.3696 19.2544 24.2683 19.5277 24.1538C19.5074 24.1992 19.4979 24.2504 19.504 24.3076C19.5146 24.4113 19.587 24.4815 19.6821 24.5256ZM5.40294 20.9966C5.41373 20.993 5.42324 20.9906 5.43384 20.9871C5.43384 20.9919 5.43385 20.9953 5.43623 20.999C5.42562 20.999 5.41483 20.9966 5.40294 20.9966ZM1.38758 26.9525C1.38758 26.9525 1.38045 26.9525 1.37807 26.9548C1.36381 26.9466 1.35083 26.9395 1.33656 26.9311C1.3532 26.9382 1.36985 26.9453 1.38758 26.9525ZM16.7362 27.111C15.4588 27.9176 14.1077 28.6157 12.6816 29.1186C9.76299 30.1479 6.4273 30.3326 3.58845 28.9505C2.56408 28.4513 1.63956 27.7675 0.883816 26.9239C1.46731 27.4732 2.20276 27.9141 2.89213 28.2762C3.7287 28.717 4.60678 29.0506 5.52546 29.2698C5.52784 29.2698 5.52893 29.2674 5.52546 29.2663C4.62105 29.0233 3.74059 28.6825 2.92303 28.2215C2.33478 27.8902 1.81894 27.4851 1.30201 27.0717C2.7186 27.9009 4.19572 28.5753 5.84985 28.8041C7.7298 29.0626 9.65839 28.8445 11.4754 28.3191C11.4968 28.3131 11.4884 28.2798 11.4659 28.2846C9.59311 28.7553 7.6466 28.9769 5.72861 28.6611C4.60441 28.4764 3.56578 28.0843 2.56646 27.5912C3.20463 27.8176 3.8642 27.951 4.57588 27.9223C5.80102 27.8748 6.99545 27.5495 8.22772 27.6305C8.24198 27.6305 8.24546 27.6067 8.23119 27.6042C7.1357 27.4553 6.053 27.6912 4.96335 27.7711C4.35133 27.8163 3.73455 27.8057 3.13679 27.6484C2.58785 27.5041 2.07568 27.2588 1.56459 27.0181C3.39828 27.6508 5.7096 26.9239 7.57053 26.9121C10.375 26.8954 13.4956 27.9927 16.0933 26.4485C16.1337 26.4247 16.0981 26.364 16.0566 26.3867C13.8687 27.5577 11.472 27.0753 9.11769 26.8738C9.39709 26.8084 9.6679 26.7477 9.9698 26.7606C10.3845 26.7786 10.7992 26.8108 11.214 26.8334C11.2248 26.8334 11.2235 26.8192 11.214 26.8179C10.362 26.7226 9.59074 26.5761 8.76002 26.8453C8.741 26.8442 8.72089 26.8429 8.70187 26.8417C9.0941 26.7382 9.47791 26.6105 9.87946 26.5379C10.4143 26.4403 10.9574 26.3926 11.4992 26.3712C12.4771 26.3329 13.4516 26.383 14.4284 26.4211C14.4392 26.4211 14.4392 26.4057 14.4284 26.4044C13.3781 26.2973 12.318 26.2102 11.2628 26.2543C10.4951 26.2865 9.63463 26.3593 8.88729 26.6237C9.2722 26.4116 9.6573 26.2007 10.0744 26.0506C10.6947 25.8279 11.3138 25.7968 11.965 25.8612C13.1391 25.9791 14.2765 26.0435 15.4327 25.7469C15.4599 25.7398 15.448 25.7004 15.4208 25.7052C14.7446 25.8266 14.0684 25.9089 13.3792 25.8957C12.9621 25.8873 12.5485 25.8314 12.135 25.7873C11.7892 25.6706 11.4517 25.5538 11.1582 25.3192C10.7921 25.0272 10.608 24.634 10.482 24.1932C10.356 23.7499 10.2788 23.277 10.0424 22.8874C10.072 22.928 10.1016 22.9684 10.1325 23.009C10.1325 23.0137 10.1325 23.0185 10.1338 23.0243C10.4083 23.7834 10.9099 24.5876 11.542 25.0963C11.5526 25.1047 11.5693 25.0904 11.5574 25.0807C11.0214 24.5638 10.7398 23.9562 10.3953 23.339C11.3661 24.4947 12.5616 25.3071 14.1682 25.3216C14.1896 25.3216 14.1896 25.2894 14.1682 25.2881C13.3079 25.2524 12.4784 24.995 11.7655 24.5077C11.1439 24.0836 10.6793 23.5058 10.2099 22.9291C10.6056 23.1852 11.0026 23.439 11.416 23.6654C13.2674 24.6841 15.435 25.1153 17.5337 24.9034C17.5657 24.8997 17.567 24.8496 17.5337 24.852C15.1949 25.0475 12.9299 24.4971 10.9289 23.2723C9.98645 22.6956 9.08935 22.032 8.06846 21.5947C7.47435 21.3397 6.85995 21.1789 6.23129 21.0835C7.53378 21.1277 8.73039 21.5148 9.86521 22.1879C9.87709 22.1953 9.8855 22.1784 9.87599 22.1702C9.02278 21.5256 7.98763 21.1301 6.92651 20.9919C8.2396 20.9977 9.50407 21.1824 10.7042 21.8866C12.1089 22.7098 13.3686 23.6367 15.069 23.6464C15.0774 23.6464 15.0774 23.6343 15.069 23.6343C14.1148 23.5451 13.2354 23.3127 12.3952 22.8433C11.6561 22.4299 10.9823 21.908 10.2265 21.5209C9.25209 21.0217 8.17177 20.8202 7.08578 20.8059C9.1475 20.6892 11.1225 21.1979 13.0096 22.1225C13.0178 22.1261 13.0239 22.1153 13.0168 22.1106C11.1249 20.8763 8.70772 20.4581 6.47376 20.7154C8.73991 20.2555 11.0132 20.6117 13.1641 21.6293C15.2485 22.6158 17.5372 24.5625 19.9805 23.8607C19.9721 23.8655 19.9639 23.8715 19.9544 23.8752C19.8128 23.9227 18.8087 24.3303 18.5889 24.4256C18.5676 24.4351 18.5913 24.5005 18.6056 24.5066C18.8241 24.5934 20.1623 24.7042 20.3987 24.6805C19.1212 25.4002 17.9722 26.3282 16.7326 27.1099L16.7362 27.111ZM20.2217 24.5256C20.3358 24.3243 20.5009 24.1873 20.7267 24.1288C20.7339 24.1277 20.7386 24.124 20.7421 24.1206C20.7909 24.1992 20.8823 24.2385 20.9716 24.2491C20.8942 24.3087 20.8348 24.391 20.8015 24.4804C20.6055 24.5053 20.4131 24.5185 20.2217 24.5256ZM21.277 24.3981C21.1544 24.4243 21.0332 24.4459 20.9133 24.4636C20.9727 24.3588 21.0617 24.291 21.1687 24.2467C21.2258 24.2396 21.2804 24.2266 21.3256 24.2016C21.3351 24.2659 21.3602 24.3254 21.4064 24.3672C21.3636 24.3767 21.3208 24.3886 21.277 24.3981ZM21.4812 24.3504C21.3839 24.2467 21.3708 24.0979 21.4505 23.9728C21.5359 23.8382 21.6952 23.7773 21.8319 23.7106C21.87 23.8108 21.9482 23.8596 22.0398 23.8752C21.8948 23.9728 21.7844 24.1098 21.7677 24.2789C21.6727 24.304 21.5776 24.3277 21.4812 24.3504ZM21.8248 24.2623C21.8795 24.1206 21.9733 24.0108 22.1064 23.9335C22.2205 23.8667 22.3512 23.8417 22.4688 23.7845C22.5008 23.881 22.565 23.9668 22.6553 24.005C22.3809 24.0979 22.104 24.1849 21.8248 24.2623ZM22.7718 23.9657C22.7718 23.9657 22.7623 23.9562 22.7565 23.9538C22.5721 23.881 22.4997 23.6868 22.5758 23.5058C22.6281 23.3831 22.7255 23.2984 22.8254 23.2161C22.8777 23.1792 22.9263 23.1423 22.9678 23.1126C22.975 23.1174 22.9821 23.1233 22.9892 23.128C23.1414 23.2185 23.3268 23.2055 23.4742 23.1222C23.3944 23.2377 23.3281 23.3615 23.2983 23.4974C23.2816 23.5736 23.2615 23.7082 23.3054 23.781C23.1271 23.843 22.9499 23.905 22.7718 23.9657ZM23.3897 23.7512C23.3162 23.6976 23.461 23.3211 23.4681 23.3068C23.5312 23.1876 23.6155 23.0828 23.6976 22.9779C23.789 23.0256 23.8936 23.0412 23.9898 23.0066C23.9127 23.2209 23.8271 23.433 23.732 23.6404C23.7225 23.6391 23.7119 23.6391 23.7 23.6427C23.5965 23.6784 23.4932 23.7155 23.3897 23.7512ZM27.2531 21.9639C27.2531 21.9639 27.2542 21.9592 27.2555 21.9568C27.2555 21.9568 27.2578 21.9568 27.2602 21.9581C27.2578 21.9592 27.2555 21.9616 27.2531 21.9639ZM28.6589 18.5637C28.6922 17.8703 28.4415 17.1352 28.0659 16.5883C28.0624 16.5835 28.0553 16.5883 28.0577 16.5931C28.4225 17.2626 28.521 17.8941 28.5139 18.5946C28.4795 18.3051 28.4153 18.0204 28.3202 17.7368C28.3166 17.7261 28.3 17.7309 28.3036 17.7416C28.3868 18.0728 28.4378 18.4065 28.4557 18.7436C28.319 17.6832 27.839 16.6109 27.0439 15.9044C27.0143 15.8782 26.9739 15.9175 27 15.9485C27.7724 16.8504 28.3107 17.8536 28.3903 19.0605C28.4534 20.0077 28.2418 20.9668 27.6073 21.6459C28.4354 20.3091 28.0862 18.5279 27.5074 17.159C27.5038 17.1518 27.4919 17.1566 27.4943 17.1649C28.1063 18.684 28.1954 20.2246 27.4314 21.6566C27.6179 21.1718 27.726 20.6605 27.7415 20.1388C27.7415 20.1315 27.7307 20.1315 27.7296 20.1388C27.676 20.5963 27.5727 21.0288 27.4124 21.4494C27.7154 20.2698 27.6001 18.9867 26.9488 17.8727C26.9298 17.8405 26.8859 17.8691 26.9002 17.9013C27.5217 19.2534 27.6713 20.769 27.0796 22.1642C26.6519 23.1734 25.9054 23.9715 24.9833 24.5221C26.621 23.1937 27.1746 21.0228 26.546 18.9782C26.5412 18.9653 26.5211 18.97 26.5246 18.9843C26.7956 20.146 26.8585 21.2634 26.4094 22.3953C26.1313 23.0958 25.6822 23.7261 25.1283 24.2396C25.7131 23.4736 26.1468 22.5562 26.2002 21.6019C26.2002 21.5911 26.1848 21.5911 26.1836 21.6019C26.0327 22.804 25.3993 23.7071 24.6684 24.6221C24.628 24.6519 24.5876 24.6805 24.5461 24.7092C24.6351 24.596 24.7231 24.4828 24.805 24.3672C25.7308 23.0697 26.173 21.385 25.6452 19.8386C25.6286 19.7909 25.5549 19.8112 25.5692 19.86C26.0256 21.3885 25.6655 22.9684 24.7635 24.2599C24.0482 25.2846 22.9644 26.3295 21.7189 26.6965C23.2507 25.81 24.5567 24.3469 24.9061 22.5847C24.4664 24.3897 23.2068 25.6586 21.6608 26.5665C23.3648 25.1714 24.4592 23.0721 24.5794 20.8584C24.6031 20.4236 24.5865 19.9874 24.6839 19.5597C24.7766 19.151 24.9762 18.7769 25.1557 18.4017C25.4373 17.8143 25.6381 17.2174 25.6975 16.5645C25.8246 15.1764 25.3956 13.8063 24.7777 12.5791C24.4605 11.9489 24.11 11.3162 23.7214 10.7074C24.2027 11.2888 24.8003 11.7654 25.4004 12.23C26.2607 12.8972 27.0059 13.5656 27.5407 14.4854C27.07 13.9433 26.495 13.5025 25.8508 13.2285C25.8164 13.2142 25.7866 13.2594 25.8199 13.2809C26.7991 13.91 27.726 14.5521 28.2001 15.6459C28.7492 16.91 28.7479 17.9429 28.6565 18.5624L28.6589 18.5637ZM28.3285 15.6852C28.1787 15.3754 27.9993 15.0799 27.7949 14.8035C27.8567 14.713 27.8913 14.6057 27.9079 14.4973C27.9779 14.6582 28.0802 14.8011 28.2561 14.8369C28.2798 15.1192 28.3023 15.4016 28.3285 15.6852ZM28.25 14.7547C28.0683 14.7046 27.9863 14.4997 27.928 14.3305C28.0397 14.3258 28.1431 14.2602 28.2014 14.1709C28.218 14.3651 28.2347 14.5593 28.25 14.7547ZM28.7575 12.9127C28.7575 12.9127 28.7598 12.908 28.7598 12.9056C28.7635 12.9103 28.7659 12.9151 28.7682 12.9199C28.7646 12.9175 28.7609 12.9151 28.7575 12.9127ZM29.8484 13.686L29.852 13.6848C29.8531 13.6871 29.8555 13.6884 29.8568 13.6907C29.8544 13.6895 29.852 13.6872 29.8484 13.686ZM32.3261 14.6308C32.3261 14.6308 32.3298 14.6189 32.3298 14.6129C32.3404 14.62 32.3512 14.6272 32.3618 14.6332C32.3499 14.6332 32.338 14.632 32.3261 14.6308ZM31.802 13.6204C31.7925 13.6121 31.7783 13.6252 31.7878 13.6347C32.2751 14.1173 32.8419 14.5104 33.467 14.7928C33.7403 14.9167 34.0349 15.0347 34.3355 15.1002C34.2346 15.099 34.1336 15.0942 34.0325 15.0835C33.3505 15.0132 32.6933 14.7714 32.1193 14.3973C30.8455 13.5656 30.1313 12.1705 29.7237 10.7443C29.7153 10.7145 29.6701 10.7265 29.6772 10.7574C30.0243 12.1824 30.8846 13.6073 32.073 14.4437C31.4135 14.103 30.7647 13.8396 30.2739 13.2249C29.7784 12.6053 29.5288 11.8452 29.3243 11.0886C29.3196 11.072 29.2947 11.0791 29.2982 11.0958C29.4896 11.9048 29.7379 12.7376 30.2596 13.4C30.6125 13.8468 31.1187 14.1935 31.6535 14.4354C31.1342 14.2662 30.635 14.0601 30.2264 13.6705C30.2145 13.6598 30.1989 13.6764 30.2084 13.6884C30.5566 14.0839 31.0141 14.3246 31.4978 14.5033C30.8883 14.3496 30.3357 14.0625 29.865 13.5728C29.1497 12.8281 28.8538 11.8643 28.7693 10.8563C28.7659 10.8075 28.6933 10.8063 28.6933 10.8563C28.6922 11.7535 29.0451 12.7042 29.6357 13.4382C28.9405 12.9056 28.7017 12.062 28.5068 11.2173C28.5057 11.2114 28.4973 11.2137 28.4985 11.2197C28.6505 12.0632 28.8549 13.039 29.5893 13.5525C28.7968 13.0795 28.5353 12.2729 28.2822 11.3555C28.2762 11.3329 28.237 11.3365 28.2394 11.3615C28.2822 11.8238 28.4307 12.3432 28.6861 12.7852C28.5485 12.6077 28.4296 12.4195 28.3179 12.2217C28.3095 12.2074 28.2846 12.2169 28.2917 12.2324C28.3808 12.4445 28.4973 12.6447 28.6267 12.8353C28.4806 12.74 28.3451 12.6292 28.2275 12.4969C28.0315 10.9087 27.6451 9.342 26.9108 7.95637C26.9108 7.94565 26.906 7.93731 26.8989 7.93254C28.2714 7.898 29.5015 8.49013 30.458 9.46949C31.4063 10.4393 31.9684 11.6367 32.6185 12.8067C33.1294 13.7265 33.8661 14.4616 34.8561 14.8476C32.6375 14.4794 31.41 12.4588 30.4295 10.5632C30.4237 10.5513 30.4057 10.562 30.4118 10.5739C31.335 12.4314 32.6874 15.0061 35.0819 15.0013C33.9184 15.1788 32.6351 14.3448 31.802 13.6204Z" fill="#242A2E"/>
<path d="M58.7656 3.86489L50.0991 10.3375L58.7656 18.434H53.6759L47.3803 12.3774L42.9859 15.6451V18.434H39.3066V3.86489H42.9859V11.4198L53.1855 3.86489H58.7656ZM82.872 18.6421C76.5762 18.6421 73.8783 15.9781 73.8783 11.1287C73.8783 6.29982 76.5762 3.65625 82.872 3.65625C89.1469 3.65625 91.8655 6.32084 91.8655 11.1287C91.8655 15.9571 89.1469 18.6421 82.872 18.6421ZM82.872 15.4995C86.6943 15.4995 88.1864 14.1047 88.1864 11.1287C88.1864 8.17319 86.7146 6.79938 82.872 6.79938C79.0293 6.79938 77.5574 8.15216 77.5574 11.1287C77.5574 14.1257 79.0495 15.4995 82.872 15.4995ZM113.237 3.86489V18.434H109.557V3.86489H113.237Z" fill="#E94E58"/>
<path d="M48.0305 22.0686H41.1625V24.2916H47.2945V26.1899H41.1625V28.9247H38.9551V20.183H48.0305V22.0686ZM53.7619 29.0497C49.9847 29.0497 48.3658 27.4508 48.3658 24.5412C48.3658 21.6442 49.9847 20.0581 53.7619 20.0581C57.527 20.0581 59.158 21.6565 59.158 24.5412C59.158 27.4386 57.527 29.0497 53.7619 29.0497ZM53.7619 27.1638C56.0553 27.1638 56.9506 26.3272 56.9506 24.5412C56.9506 22.7679 56.0676 21.9435 53.7619 21.9435C51.4563 21.9435 50.5733 22.7556 50.5733 24.5412C50.5733 26.3398 51.4685 27.1638 53.7619 27.1638ZM69.9942 23.3925C69.9942 24.8161 69.2825 25.8651 68.1299 26.3272L69.7118 28.9247H67.1118L65.7261 26.5894H62.1695V28.9247H59.9621V20.183H66.7071C68.6571 20.183 69.9942 21.4445 69.9942 23.3925ZM62.1695 22.0686V24.7038H66.094C66.7565 24.7038 67.7865 24.7038 67.7865 23.3925C67.7865 22.0686 66.7565 22.0686 66.094 22.0686H62.1695ZM80.9857 20.183V22.0686H76.8162V28.9247H74.6086V22.0686H70.4385V20.183H80.9857ZM92.5757 24.5412C92.5757 27.5759 90.9447 29.0497 87.1798 29.0497C83.4023 29.0497 81.7833 27.5885 81.7833 24.5412V20.183H83.991V24.5412C83.991 25.7651 84.3219 27.1638 87.1798 27.1638C90.0371 27.1638 90.3681 25.7528 90.3681 24.5412V20.183H92.5757V24.5412ZM102.351 20.183H104.559V28.9247H101.554L95.7041 22.3685V28.9247H93.4964V20.183H96.4893L102.351 26.7516V20.183ZM114.62 21.969H107.753V23.7421H114.62V25.3655H107.753V27.1387H114.62V28.9247H105.545V20.183H114.62V21.969Z" fill="white"/>
</g>
</g>
</g>
</g>
<defs>
<clipPath id="clip0_9_1066">
<rect width="115" height="32" fill="white"/>
</clipPath>
<clipPath id="clip1_9_1066">
<rect width="115" height="32" fill="white"/>
</clipPath>
<clipPath id="clip2_9_1066">
<rect width="115" height="32" fill="white"/>
</clipPath>
</defs>
</svg>
