<svg width="32" height="32" viewBox="0 0 32 32" fill="none" xmlns="http://www.w3.org/2000/svg">
<g clip-path="url(#clip0_2676_30115)">
<path d="M27.3137 4.68631C24.2917 1.66431 20.2738 0 16 0C12.9449 0 9.97475 0.864062 7.41044 2.49881C4.91463 4.08988 2.91025 6.334 1.61413 8.98862C1.50056 9.22119 1.59706 9.50169 1.82956 9.61525C2.06219 9.72881 2.34262 9.63231 2.45619 9.39975C3.67663 6.90031 5.56394 4.78725 7.91419 3.289C10.3277 1.75038 13.1237 0.937125 16 0.937125C20.0234 0.937125 23.8061 2.50394 26.6511 5.34894C29.4961 8.19394 31.0629 11.9766 31.0629 16C31.0629 20.0234 29.4961 23.8061 26.6511 26.6511C23.8061 29.4962 20.0234 31.0629 16 31.0629C11.9765 31.0629 8.19388 29.4961 5.34888 26.6511C2.50388 23.8061 0.937125 20.0234 0.937125 16C0.937125 14.4066 1.18456 12.8378 1.67256 11.3372C1.75256 11.0911 1.61794 10.8268 1.37188 10.7467C1.12569 10.6666 0.8615 10.8013 0.781375 11.0474C0.262875 12.6417 0 14.3081 0 16C0 20.2738 1.66425 24.2917 4.68631 27.3137C7.70825 30.3357 11.7262 32 16 32C20.2738 32 24.2917 30.3357 27.3137 27.3137C30.3357 24.2917 32 20.2738 32 16C32 11.7262 30.3357 7.70831 27.3137 4.68631Z" fill="#E3E8EB"/>
<path d="M15.5408 30.104C15.5523 30.1649 15.5768 30.2218 15.611 30.2721C15.6961 30.397 15.8418 30.4807 16.0001 30.4807C16.2548 30.4807 16.4686 30.2671 16.4686 30.0121C16.4686 29.7514 16.2576 29.5436 16.0001 29.5436C15.6979 29.5436 15.4856 29.8119 15.5408 30.104Z" fill="#E3E8EB"/>
<path d="M16 2.45644C16.2548 2.45644 16.4686 2.24287 16.4686 1.98787C16.4686 1.72712 16.2576 1.51931 16 1.51931C15.6978 1.51931 15.4855 1.78762 15.5408 2.07969C15.5526 2.14187 15.5763 2.19893 15.6094 2.24881C15.6938 2.37587 15.8386 2.45644 16 2.45644Z" fill="#E3E8EB"/>
<path d="M20.632 28.7269C20.348 28.8303 20.2403 29.155 20.3921 29.4105C20.4237 29.4638 20.4661 29.509 20.5155 29.5445C20.6382 29.6328 20.8037 29.6616 20.9525 29.6075C21.1918 29.5203 21.3197 29.2465 21.2325 29.0069C21.1433 28.7619 20.874 28.6388 20.632 28.7269Z" fill="#E3E8EB"/>
<path d="M10.9295 3.21179C11.0522 3.30229 11.2159 3.32848 11.3675 3.27329C11.6069 3.18617 11.7348 2.91229 11.6475 2.67273C11.5584 2.42773 11.289 2.3046 11.047 2.39267C10.763 2.49604 10.6553 2.82073 10.8072 3.07635C10.8395 3.13073 10.8814 3.17623 10.9295 3.21179Z" fill="#E3E8EB"/>
<path d="M24.706 26.3752C24.4746 26.5694 24.4844 26.9114 24.7145 27.0996C24.7624 27.1388 24.8177 27.1667 24.8763 27.1832C25.0218 27.2243 25.1872 27.1947 25.3084 27.093C25.5035 26.9292 25.53 26.6282 25.3662 26.4329C25.1985 26.2332 24.9034 26.2097 24.706 26.3752Z" fill="#E3E8EB"/>
<path d="M6.8621 5.71736C7.00829 5.76048 7.17104 5.72911 7.29472 5.62529C7.48985 5.46154 7.51635 5.16048 7.35247 4.96517C7.18491 4.76542 6.88966 4.74186 6.69235 4.90742C6.46091 5.10167 6.47072 5.44367 6.70079 5.63186C6.74979 5.67198 6.80466 5.70042 6.8621 5.71736Z" fill="#E3E8EB"/>
<path d="M27.7293 22.7721C27.5783 23.0337 27.7044 23.3517 27.985 23.4499C28.0435 23.4704 28.105 23.4777 28.1656 23.4732C28.3164 23.462 28.4617 23.3777 28.5408 23.2406C28.6682 23.0199 28.5901 22.728 28.3693 22.6005C28.1435 22.4702 27.8581 22.5491 27.7293 22.7721Z" fill="#E3E8EB"/>
<path d="M3.89648 9.46296C4.0486 9.45346 4.19079 9.36833 4.27154 9.22852C4.39892 9.00789 4.32085 8.71596 4.10004 8.58846C3.87423 8.45808 3.58873 8.53689 3.45998 8.75996C3.30892 9.02164 3.4351 9.33964 3.71567 9.43783C3.77542 9.45871 3.83673 9.46664 3.89648 9.46296Z" fill="#E3E8EB"/>
<path d="M29.8098 18.9017C29.8718 18.901 29.9321 18.8868 29.9875 18.8618C30.1254 18.7996 30.2331 18.6708 30.2605 18.5149C30.3048 18.264 30.1315 18.0164 29.8804 17.9721C29.6236 17.9268 29.3824 18.0985 29.3376 18.3521C29.2852 18.6497 29.5126 18.9054 29.8098 18.9017Z" fill="#E3E8EB"/>
<path d="M2.28279 13.1056C2.02598 13.0603 1.78473 13.2321 1.73998 13.4857C1.68754 13.7833 1.91485 14.039 2.2121 14.0353C2.27535 14.0345 2.33566 14.021 2.39054 13.997C2.53029 13.9361 2.63473 13.8075 2.66279 13.6485C2.70704 13.3976 2.53385 13.1499 2.28279 13.1056Z" fill="#E3E8EB"/>
<path d="M29.9698 14.0034C30.0277 13.9814 30.0796 13.9475 30.1231 13.9051C30.2314 13.7996 30.2885 13.6416 30.2611 13.4857C30.2168 13.2348 29.9694 13.0614 29.7182 13.1056C29.4615 13.1509 29.2934 13.3948 29.3382 13.6484C29.3907 13.9461 29.6917 14.1086 29.9698 14.0034Z" fill="#E3E8EB"/>
<path d="M2.11969 17.9721C1.86294 18.0174 1.69494 18.2613 1.73963 18.5149C1.79206 18.8124 2.09319 18.9749 2.37125 18.8698C2.43044 18.8474 2.4825 18.8141 2.52588 18.7729C2.63631 18.6678 2.6905 18.5112 2.6625 18.3522C2.61831 18.1013 2.37081 17.9278 2.11969 17.9721Z" fill="#E3E8EB"/>
<path d="M28.4449 9.34592C28.4918 9.30549 28.5289 9.25586 28.5553 9.20111C28.621 9.06492 28.6206 8.89692 28.5415 8.75986C28.4141 8.53924 28.1222 8.46086 27.9014 8.58836C27.6756 8.71874 27.6012 9.00536 27.7299 9.22842C27.881 9.49011 28.2196 9.53986 28.4449 9.34592Z" fill="#E3E8EB"/>
<path d="M3.63093 22.6006C3.40512 22.7309 3.33068 23.0176 3.45943 23.2406C3.61049 23.5023 3.94905 23.552 4.17437 23.3581C4.2223 23.3169 4.25987 23.2678 4.28649 23.2141C4.35437 23.0776 4.35168 22.9119 4.27099 22.7721C4.14362 22.5514 3.85174 22.4731 3.63093 22.6006Z" fill="#E3E8EB"/>
<path d="M25.4177 5.49116C25.4481 5.43716 25.4659 5.37779 25.472 5.31729C25.4871 5.16685 25.4293 5.0091 25.3081 4.90741C25.1129 4.74366 24.8118 4.76985 24.6479 4.96516C24.4803 5.16491 24.5084 5.45973 24.7057 5.62529C24.9372 5.81954 25.2723 5.75048 25.4177 5.49116Z" fill="#E3E8EB"/>
<path d="M6.63523 26.4329C6.46761 26.6327 6.49573 26.9275 6.69298 27.0931C6.92442 27.2873 7.25955 27.2182 7.40498 26.9589C7.43592 26.9037 7.45442 26.8448 7.46111 26.7853C7.47817 26.6338 7.41905 26.4791 7.29536 26.3752C7.10023 26.2114 6.79911 26.2376 6.63523 26.4329Z" fill="#E3E8EB"/>
<path d="M21.2559 2.90375C21.2659 2.84262 21.2624 2.78075 21.2475 2.72181C21.2103 2.57531 21.102 2.44681 20.9533 2.39269C20.7139 2.30556 20.4399 2.43312 20.3527 2.67275C20.2635 2.91775 20.3908 3.18519 20.6328 3.27331C20.9167 3.37662 21.208 3.19712 21.2559 2.90375Z" fill="#E3E8EB"/>
<path d="M11.3684 28.7269C11.129 28.6398 10.855 28.7674 10.7678 29.007C10.6786 29.252 10.8059 29.5194 11.0479 29.6076C11.3318 29.7109 11.6231 29.5314 11.6711 29.238C11.6813 29.1756 11.6784 29.1138 11.6644 29.0556C11.6287 28.9074 11.5201 28.7822 11.3684 28.7269Z" fill="#E3E8EB"/>
<path d="M3.07919 16.0496C3.08369 17.2084 3.24994 18.3663 3.56094 19.4824C4.45401 22.6877 6.60626 25.4692 9.48463 27.1568C11.7691 28.4961 14.4788 29.0975 17.1281 28.8716C19.4071 28.6773 21.6136 27.8657 23.4797 26.5394C25.5768 25.0489 27.2079 22.9259 28.1099 20.5142C29.0773 17.9275 29.1803 15.0015 28.3988 12.3507C27.7503 10.1512 26.4884 8.12573 24.8284 6.57061C23.3564 5.19161 21.5621 4.15929 19.6267 3.59486C17.7331 3.04261 15.7212 2.93154 13.7872 3.26673C11.1481 3.72411 8.71344 4.99823 6.83013 6.89498C4.43601 9.30629 3.06613 12.6597 3.07919 16.0496ZM4.45451 19.2218C4.20563 18.3275 4.06032 17.4032 4.02388 16.4685H5.92888C5.94144 16.7385 5.96501 17.0085 5.99913 17.2768C6.08044 17.916 6.22338 18.5497 6.42544 19.1623C6.46688 19.288 7.01107 20.6491 7.04269 20.6309C7.04082 20.6319 5.39557 21.5817 5.39557 21.5817C5.00232 20.8377 4.68519 20.0476 4.45451 19.2218ZM13.3935 12.4215C13.0217 12.6931 12.6936 13.0212 12.422 13.393L8.32732 11.029C9.02851 9.95029 9.95088 9.02792 11.0296 8.32673L13.3935 12.4215ZM11.8403 7.85686C12.4286 7.55504 13.0538 7.31523 13.7069 7.14592C14.3036 6.99129 14.9171 6.89773 15.5319 6.86654V11.5956C15.064 11.645 14.6176 11.7676 14.2043 11.9517L11.8403 7.85686ZM12.4219 18.607C12.6936 18.9788 13.0216 19.3069 13.3934 19.5785L11.0294 23.6732C9.95076 22.972 9.02844 22.0496 8.32719 20.9709L12.4219 18.607ZM7.85738 20.1601C7.56469 19.5896 7.33032 18.9844 7.16201 18.3527C7.01938 17.8172 6.92638 17.2678 6.88307 16.7154C6.88144 16.6945 6.86769 16.4685 6.86713 16.4685H11.5961C11.6456 16.9364 11.7681 17.3829 11.9522 17.7961L7.85738 20.1601ZM11.9521 14.2038C11.7681 14.617 11.6455 15.0635 11.5961 15.5314H6.86707C6.93419 14.2077 7.28407 12.9574 7.85738 11.8398L11.9521 14.2038ZM5.86544 22.3925L7.51163 21.4422C8.29532 22.6627 9.33719 23.7047 10.5582 24.489L9.60801 26.135C8.10057 25.1809 6.81957 23.8999 5.86544 22.3925ZM15.5319 27.9766C14.6148 27.9408 13.7076 27.8002 12.8289 27.5598C11.9978 27.3324 11.1836 27.0091 10.4188 26.6049C10.4188 26.6049 11.3696 24.9579 11.3696 24.9578C11.3633 24.9687 12.2198 25.3488 12.299 25.38C13.1798 25.7271 14.1112 25.9477 15.056 26.0374C15.2119 26.0522 15.3681 26.0635 15.5246 26.0712C15.5271 26.0713 15.5295 26.0714 15.532 26.0715V27.9766H15.5319ZM15.5319 25.1334C14.8818 25.1001 14.2299 24.9968 13.6047 24.8269C12.9884 24.6595 12.3978 24.4291 11.8403 24.143L14.2043 20.0483C14.6175 20.2324 15.0639 20.3549 15.5319 20.4044L15.5319 25.1334ZM16.469 27.9767V26.0716C16.7788 26.057 17.0826 26.0295 17.39 25.9869C17.9401 25.9107 18.4718 25.791 19.0027 25.626C19.5641 25.4515 20.1097 25.2282 20.6314 24.958L21.5822 26.6049C20.0442 27.4177 18.3091 27.9055 16.469 27.9767ZM20.4048 15.5314C20.3554 15.0635 20.2328 14.617 20.0488 14.2038L24.1436 11.8397C24.4281 12.3945 24.6576 12.9819 24.8248 13.5948C24.9961 14.2251 25.1002 14.8746 25.1338 15.5314H20.4048ZM25.1339 16.4685C25.1313 16.5199 25.1282 16.571 25.1248 16.6221C25.0929 17.0922 25.0246 17.56 24.9208 18.0197C24.7566 18.7476 24.4901 19.4847 24.1436 20.1602L20.0488 17.7961C20.2328 17.3829 20.3554 16.9364 20.4048 16.4685H25.1339V16.4685ZM19.5789 13.393C19.3073 13.0212 18.9793 12.6931 18.6074 12.4215L20.9714 8.32673C22.0501 9.02798 22.9725 9.95029 23.6737 11.029L19.5789 13.393ZM23.6737 20.9709C22.9725 22.0496 22.0501 22.972 20.9714 23.6732L18.6074 19.5784C18.9793 19.3068 19.3073 18.9787 19.5789 18.6069L23.6737 20.9709ZM20.1606 24.1431C19.6743 24.3926 19.1628 24.5997 18.631 24.7597C18.0484 24.935 17.4444 25.051 16.8398 25.1067C16.8085 25.1096 16.469 25.1333 16.469 25.1334C16.469 25.1231 16.469 20.4044 16.469 20.4044C16.9369 20.3549 17.3834 20.2324 17.7966 20.0483L20.1606 24.1431ZM22.3929 26.135L21.4425 24.4887C22.6638 23.7045 23.7049 22.6634 24.4891 21.4421L26.1354 22.3925C25.1813 23.8999 23.9003 25.1809 22.3929 26.135ZM26.6054 21.5817L24.9586 20.631C25.2941 19.9826 25.5572 19.2994 25.7443 18.595C25.9324 17.8866 26.0381 17.2017 26.0721 16.4685H27.9771C27.9061 18.3086 27.4182 20.0437 26.6054 21.5817ZM27.5465 12.7784C27.7953 13.6726 27.9406 14.5969 27.9771 15.5314C27.9771 15.5314 26.0724 15.5314 26.0721 15.5314C26.0836 15.5314 25.9902 14.6284 25.9783 14.5462C25.9104 14.0778 25.8088 13.6145 25.6758 13.1604C25.4948 12.5424 25.2549 11.9422 24.9583 11.369L26.6054 10.4182C26.9986 11.1623 27.3158 11.9525 27.5465 12.7784ZM26.1355 9.60748L24.4891 10.5579C23.705 9.33661 22.6637 8.29523 21.4426 7.51111L22.3929 5.86492C23.9003 6.81904 25.1813 8.10004 26.1355 9.60748ZM16.469 4.02329C17.3865 4.05911 18.294 4.19979 19.173 4.44036C19.8007 4.61217 20.4203 4.83929 21.0132 5.11342C21.2053 5.20223 21.395 5.29617 21.5821 5.39504L20.6313 7.04211C20.0516 6.74211 19.4331 6.49448 18.811 6.31617C18.8086 6.31548 18.8063 6.31486 18.804 6.31417C18.0574 6.09773 17.2754 5.96548 16.469 5.92842V4.02329ZM16.469 6.86661C17.1249 6.90017 17.7736 7.00398 18.4031 7.17486C19.0168 7.34217 19.6051 7.57186 20.1606 7.85679L17.7966 11.9516C17.3834 11.7675 16.9369 11.645 16.4691 11.5955L16.469 6.86661ZM16.0004 12.5081C17.9258 12.5081 19.4923 14.0745 19.4923 16C19.4923 17.9254 17.9259 19.4919 16.0004 19.4919C14.075 19.4919 12.5085 17.9254 12.5085 15.9999C12.5085 14.0745 14.075 12.5081 16.0004 12.5081ZM15.5319 4.02329V5.92829C15.5319 5.92754 15.0341 5.96379 14.9888 5.96836C14.4059 6.02723 13.8281 6.13698 13.2641 6.29554C12.715 6.44986 12.1774 6.65117 11.6636 6.89586C11.6388 6.90767 11.3696 7.0421 11.3695 7.04192C11.3692 7.04142 10.4188 5.39504 10.4188 5.39504C11.9568 4.58229 13.6918 4.09436 15.5319 4.02329ZM9.60801 5.86492L10.5584 7.51123C9.33713 8.29548 8.29601 9.33661 7.51176 10.5579L5.86544 9.60748C6.81957 8.10004 8.10057 6.81911 9.60801 5.86492ZM5.39551 10.4183C5.39551 10.4183 7.04063 11.368 7.04513 11.3706C7.05963 11.379 6.75576 11.9545 6.74238 11.9845C6.23782 13.117 6.02007 14.3045 5.92832 15.532C5.80269 15.5284 4.02407 15.5224 4.02376 15.5314C4.09482 13.6912 4.58276 11.9562 5.39551 10.4183Z" fill="#E3E8EB"/>
<path d="M15.9996 18.4624C16.3326 18.4624 16.6559 18.3969 16.9604 18.2678C17.1987 18.1668 17.3099 17.8917 17.2089 17.6535C17.1078 17.4152 16.8326 17.304 16.5946 17.405C16.4064 17.4849 16.2062 17.5253 15.9996 17.5253C15.1585 17.5253 14.4742 16.841 14.4742 15.9999C14.4742 15.1587 15.1584 14.4745 15.9996 14.4745C16.8407 14.4745 17.525 15.1587 17.525 15.9999C17.525 16.0621 17.5212 16.1247 17.5138 16.1857C17.4826 16.4426 17.6656 16.6761 17.9225 16.7073C18.1792 16.7383 18.4129 16.5555 18.444 16.2986C18.456 16.2002 18.462 16.0997 18.462 15.9999C18.462 14.642 17.3574 13.5374 15.9996 13.5374C14.6418 13.5374 13.5371 14.642 13.5371 15.9999C13.5371 17.3577 14.6418 18.4624 15.9996 18.4624Z" fill="#E3E8EB"/>
</g>
<defs>
<clipPath id="clip0_2676_30115">
<rect width="32" height="32" fill="white"/>
</clipPath>
</defs>
</svg>
