<svg width="32" height="32" viewBox="0 0 32 32" fill="none" xmlns="http://www.w3.org/2000/svg">
<g clip-path="url(#clip0_2676_30176)">
<path d="M11.9199 1.6981C11.8375 1.49778 11.6443 1.36841 11.427 1.36841C11.2102 1.36866 11.017 1.49847 10.935 1.69928C10.9335 1.70278 10.9322 1.70628 10.9309 1.70978L9.87936 4.47072C9.78717 4.71266 9.90861 4.98347 10.1506 5.07566C10.3927 5.16797 10.6634 5.04641 10.7555 4.80441L10.9024 4.41872H11.9447L12.0898 4.8031C12.1607 4.99078 12.339 5.10647 12.5286 5.10647C12.8508 5.10591 13.0808 4.77353 12.967 4.47203C12.9665 4.47072 11.925 1.71103 11.925 1.71103C11.9234 1.70666 11.9217 1.70235 11.9199 1.6981ZM11.2595 3.4811L11.4259 3.0441L11.5909 3.4811H11.2595Z" fill="#E3E8EB"/>
<path d="M20.5171 1.84174L20.5298 3.16081L19.4354 1.57606C19.3188 1.40724 19.1059 1.33387 18.9101 1.39487C18.7142 1.45593 18.5808 1.63724 18.5808 1.84243V4.63756C18.5808 4.89649 18.7907 5.10637 19.0496 5.10637C19.3086 5.10637 19.5184 4.89649 19.5184 4.63756V3.34631L20.554 4.84587C20.685 5.03512 20.9141 5.11818 21.1242 5.05256C21.3408 4.98487 21.4808 4.78493 21.4807 4.53868L21.4546 1.83274C21.4521 1.57387 21.2387 1.36587 20.9813 1.36849C20.7224 1.37093 20.5146 1.58287 20.5171 1.84174Z" fill="#E3E8EB"/>
<path d="M16.8436 1.83722V4.63753C16.8436 4.89647 17.0535 5.10635 17.3124 5.10635C17.5714 5.10635 17.7813 4.89647 17.7813 4.63753V1.83722C17.7813 1.57828 17.5714 1.36841 17.3124 1.36841C17.0535 1.36841 16.8436 1.57828 16.8436 1.83722Z" fill="#E3E8EB"/>
<path d="M8.18819 2.306C8.37494 2.306 8.55487 2.36088 8.70869 2.46475C8.92325 2.60969 9.21469 2.55325 9.35956 2.33869C9.5045 2.12413 9.44806 1.83269 9.2335 1.68782C8.92412 1.47888 8.56269 1.36838 8.18819 1.36838C7.15762 1.36838 6.31925 2.20675 6.31925 3.23732C6.31925 4.26788 7.15762 5.10625 8.18819 5.10625C8.66612 5.10625 9.12181 4.9105 9.4295 4.54338C9.59587 4.345 9.56987 4.04932 9.3715 3.88294C9.173 3.71657 8.87737 3.7425 8.711 3.94107C8.58025 4.09688 8.389 4.16863 8.18819 4.16863C7.67462 4.16863 7.25681 3.75082 7.25681 3.23725C7.25681 2.72369 7.67456 2.306 8.18819 2.306Z" fill="#E3E8EB"/>
<path d="M14.8147 4.16885C14.5693 4.16885 14.3344 4.07122 14.1862 3.90778C14.0123 3.71591 13.7159 3.70135 13.524 3.87516C13.3321 4.04903 13.3176 4.34547 13.4914 4.53735C13.8191 4.89903 14.3015 5.10641 14.8146 5.10641C15.1248 5.10641 15.4253 5.00747 15.6606 4.82785C15.9008 4.64435 16.0604 4.39053 16.11 4.1131C16.1881 3.67528 15.9954 3.10566 15.2201 2.81972C14.8973 2.70066 14.5955 2.57147 14.4818 2.52197C14.471 2.50985 14.4608 2.48978 14.4655 2.45766C14.4736 2.40085 14.5245 2.35435 14.6049 2.33016C14.935 2.2306 15.2527 2.47597 15.2664 2.48678C15.4646 2.65035 15.758 2.62397 15.9236 2.42685C16.0902 2.22866 16.0646 1.93297 15.8665 1.76635C15.6077 1.54885 14.9938 1.23378 14.3345 1.43241C13.9032 1.56235 13.5978 1.90416 13.5374 2.32447C13.4911 2.64678 13.6009 2.97678 13.8365 3.20266C13.9741 3.33453 14.1524 3.3896 14.3227 3.46328C14.5124 3.54541 14.7012 3.62785 14.8956 3.69953C15.0525 3.75735 15.2033 3.85672 15.187 3.94841C15.1705 4.04078 15.032 4.16885 14.8147 4.16885Z" fill="#E3E8EB"/>
<path d="M25.6812 3.23735C25.6812 2.20678 24.8428 1.36841 23.8122 1.36841C22.7817 1.36841 21.9432 2.20678 21.9432 3.23735C21.9432 4.26791 22.7817 5.10628 23.8122 5.10628C24.8427 5.10635 25.6812 4.26791 25.6812 3.23735ZM22.8808 3.23735C22.8808 2.72378 23.2986 2.30597 23.8122 2.30597C24.3257 2.30597 24.7436 2.72378 24.7436 3.23735C24.7436 3.75091 24.3258 4.16872 23.8122 4.16872C23.2986 4.16872 22.8808 3.75091 22.8808 3.23735Z" fill="#E3E8EB"/>
<path d="M28.9781 10.9214C29.4323 10.9214 29.8019 10.5519 29.8019 10.0977V8.17806C29.8019 7.72388 29.4324 7.35437 28.9781 7.35437H23.0247V6.47481H24.3446C26.1297 6.47481 27.5819 5.0225 27.5819 3.23744C27.5819 1.45237 26.1297 0 24.3446 0H22.6654C22.4064 0 22.1966 0.209875 22.1966 0.468812C22.1966 0.72775 22.4064 0.937625 22.6654 0.937625H24.3446C25.6127 0.937625 26.6443 1.96931 26.6443 3.23744C26.6443 4.50556 25.6126 5.53725 24.3446 5.53725H7.65544C6.38731 5.53725 5.35569 4.50556 5.35569 3.23744C5.35569 1.96931 6.38737 0.937625 7.65544 0.937625H20.4803C20.7393 0.937625 20.9491 0.72775 20.9491 0.468812C20.9491 0.209875 20.7393 0 20.4803 0H7.65544C5.87031 0 4.41806 1.45231 4.41806 3.23738C4.41806 5.02244 5.87031 6.47475 7.65544 6.47475H8.97525V7.35431H3.02187C2.56769 7.35431 2.19812 7.72381 2.19812 8.178V10.0976C2.19812 10.5518 2.56762 10.9214 3.02187 10.9214H3.68287V16.1167C3.68287 16.3756 3.89275 16.5855 4.15169 16.5855C4.41062 16.5855 4.6205 16.3756 4.6205 16.1167V10.9214H27.3796V19.9181H4.6205V18.3226C4.6205 18.0637 4.41062 17.8538 4.15169 17.8538C3.89275 17.8538 3.68287 18.0637 3.68287 18.3226V19.9181H3.02187C2.56769 19.9181 2.19812 20.2877 2.19812 20.7419V22.6615C2.19812 23.1157 2.56762 23.4852 3.02187 23.4852H3.68287V30.9992C3.68287 31.551 4.13181 31.9999 4.68362 31.9999H27.3163C27.8681 31.9999 28.3171 31.551 28.3171 30.9992V23.4852H28.9781C29.4322 23.4852 29.8018 23.1157 29.8018 22.6615V20.7419C29.8018 20.2877 29.4323 19.9181 28.9781 19.9181H28.3171V10.9214H28.9781ZM9.91287 6.47481H22.0872V7.35437H9.91287V6.47481ZM17.988 31.0624H14.012V27.5397C14.012 26.4436 14.9038 25.5518 16 25.5518C17.0962 25.5518 17.988 26.4436 17.988 27.5397V31.0624ZM27.3795 29.0617H26.3269V27.9876H27.3795V29.0617ZM27.3795 27.0499H24.5716V25.8269H27.3795V27.0499ZM25.3894 27.9876V29.0617H22.8162V27.9876H25.3894ZM27.3795 24.8893H21.5934C21.3345 24.8893 21.1246 25.0992 21.1246 25.3581C21.1246 25.6171 21.3345 25.8269 21.5934 25.8269H23.6339V27.0499H21.5934C21.3345 27.0499 21.1246 27.2598 21.1246 27.5187C21.1246 27.7777 21.3345 27.9876 21.5934 27.9876H21.8785V29.0617H20.052C19.7931 29.0617 19.5832 29.2716 19.5832 29.5305C19.5832 29.7894 19.7931 29.9993 20.052 29.9993H27.3794V30.9993C27.3794 31.0341 27.3511 31.0624 27.3162 31.0624H18.9256V27.5398C18.9256 25.9266 17.6132 24.6142 16 24.6142C14.3868 24.6142 13.0744 25.9266 13.0744 27.5398V31.0624H4.68362C4.64881 31.0624 4.62044 31.0341 4.62044 30.9993V27.9131H7.36494V29.6049C7.36494 29.8638 7.57481 30.0737 7.83375 30.0737C8.09269 30.0737 8.30256 29.8638 8.30256 29.6049V27.9131H10.3431C10.602 27.9131 10.8119 27.7033 10.8119 27.4443C10.8119 27.1854 10.602 26.9755 10.3431 26.9755H10.0579V25.9014H11.8844C12.1434 25.9014 12.3532 25.6915 12.3532 25.4326C12.3532 25.1736 12.1434 24.9638 11.8844 24.9638H4.6205V23.4851H27.3796V24.8893H27.3795ZM4.6205 26.9756V25.9014H5.60962V26.9756H4.6205ZM6.54719 26.9756V25.9014H9.12037V26.9756H6.54719ZM28.8643 20.8557V22.5476H3.13575V20.8557H28.8643ZM3.13575 9.98381V8.29194H28.8643V9.98381H3.13575Z" fill="#E3E8EB"/>
<path d="M5.87683 18.1567C5.87683 18.6603 6.28665 19.0702 6.79033 19.0702H10.5187C11.0224 19.0702 11.4322 18.6604 11.4322 18.1567C11.4322 18.1567 11.4322 14.3671 11.4322 14.3474C11.4322 13.887 11.2123 13.3737 10.9596 12.9987C10.4395 12.2267 9.58115 11.7693 8.65452 11.7693C7.74633 11.7693 6.87815 12.2293 6.36402 12.9772C6.10321 13.3566 5.8769 13.8786 5.87683 14.3474V18.1567ZM9.12333 12.7675C9.69377 12.9178 10.1567 13.336 10.369 13.8787H9.12333V12.7675ZM9.12333 14.8163H10.4946V16.0057H9.12333V14.8163ZM9.12333 16.9432H10.4946V18.1325H9.12333V16.9432ZM8.18571 12.7675V13.8787H6.94002C7.15233 13.3359 7.61527 12.9178 8.18571 12.7675ZM6.81446 14.8163H8.18577V16.0057H6.81446V14.8163ZM6.81446 16.9432H8.18577V18.1325H6.81446V16.9432Z" fill="#E3E8EB"/>
<path d="M13.2223 18.1567C13.2223 18.6604 13.6321 19.0702 14.1358 19.0702H17.8643C18.3679 19.0702 18.7778 18.6604 18.7778 18.1567C18.7778 18.1567 18.7778 14.3675 18.7778 14.3474C18.7778 13.3909 18.0782 12.4853 17.2487 12.0661C16.8627 11.871 16.4325 11.7693 16.0001 11.7693C15.4413 11.7693 14.8886 11.9406 14.4316 12.2566C13.7653 12.7173 13.2224 13.5128 13.2224 14.3474C13.2223 14.3676 13.2223 18.1567 13.2223 18.1567ZM16.4688 12.7675C17.0393 12.9179 17.5022 13.336 17.7145 13.8787H16.4688V12.7675ZM16.4688 14.8163H17.8401V16.0057H16.4688V14.8163ZM16.4688 16.9433H17.8401V18.1326H16.4688V16.9433ZM15.5312 12.7675V13.8787H14.2855C14.4978 13.3359 14.9607 12.9179 15.5312 12.7675ZM14.1599 14.8163H15.5312V16.0057H14.1599V14.8163ZM14.1599 16.9433H15.5312V18.1326H14.1599V16.9433Z" fill="#E3E8EB"/>
<path d="M20.5673 18.1567C20.5673 18.6604 20.9771 19.0702 21.4808 19.0702H25.2092C25.7129 19.0702 26.1227 18.6604 26.1227 18.1567C26.1227 18.1567 26.1227 14.3671 26.1227 14.3474C26.1227 13.8887 25.9034 13.3748 25.6504 12.9991C25.1399 12.2413 24.2584 11.7693 23.345 11.7693C22.4129 11.7693 21.5559 12.2312 21.0383 13.001C20.7866 13.3755 20.5673 13.8892 20.5673 14.3474V18.1567ZM23.8138 12.7675C24.3842 12.9179 24.8472 13.336 25.0595 13.8787H23.8138V12.7675ZM23.8138 14.8163H25.1851V16.0057H23.8138V14.8163ZM23.8138 16.9433H25.1851V18.1326H23.8138V16.9433ZM22.8762 12.7675V13.8787H21.6305C21.8428 13.3359 22.3057 12.9179 22.8762 12.7675ZM21.5049 14.8163H22.8762V16.0057H21.5049V14.8163ZM21.5049 16.9433H22.8762V18.1326H21.5049V16.9433Z" fill="#E3E8EB"/>
<path d="M4.22065 8.70527C4.01652 8.79046 3.89496 9.01152 3.93984 9.22933C3.96796 9.36602 4.0539 9.48227 4.1754 9.54858C4.30584 9.61977 4.46196 9.62458 4.59827 9.56077C4.79315 9.46958 4.8989 9.25665 4.85934 9.04615C4.80552 8.7604 4.48884 8.59333 4.22065 8.70527Z" fill="#E3E8EB"/>
<path d="M6.14838 8.70527C5.94426 8.79046 5.8227 9.01152 5.86757 9.22933C5.8957 9.36602 5.98163 9.48227 6.10313 9.54858C6.23357 9.61977 6.3897 9.62458 6.52601 9.56077C6.72088 9.46958 6.82663 9.25665 6.78701 9.04615C6.73326 8.7604 6.41657 8.59333 6.14838 8.70527Z" fill="#E3E8EB"/>
<path d="M8.05469 8.70524C7.85056 8.79043 7.729 9.01149 7.77387 9.2293C7.802 9.36599 7.88794 9.48224 8.00944 9.54855C8.13987 9.61974 8.296 9.62455 8.43231 9.56074C8.62719 9.46955 8.73294 9.25661 8.69337 9.04611C8.6395 8.76036 8.32287 8.5933 8.05469 8.70524Z" fill="#E3E8EB"/>
<path d="M10.0205 8.70527C9.81633 8.79046 9.69477 9.01152 9.73964 9.22933C9.76777 9.36602 9.8537 9.48227 9.9752 9.54858C10.1056 9.61977 10.2618 9.62458 10.3981 9.56077C10.593 9.46958 10.6987 9.25665 10.6591 9.04615C10.6053 8.7604 10.2886 8.59333 10.0205 8.70527Z" fill="#E3E8EB"/>
<path d="M11.954 8.70527C11.7499 8.79046 11.6284 9.01152 11.6732 9.22933C11.7014 9.36602 11.7873 9.48227 11.9088 9.54858C12.0392 9.61977 12.1954 9.62458 12.3317 9.56077C12.5265 9.46958 12.6323 9.25665 12.5927 9.04615C12.5389 8.7604 12.2222 8.59333 11.954 8.70527Z" fill="#E3E8EB"/>
<path d="M13.8876 8.70527C13.6835 8.79046 13.562 9.01152 13.6068 9.22933C13.635 9.36602 13.7209 9.48227 13.8424 9.54858C13.9728 9.61977 14.129 9.62458 14.2653 9.56077C14.4601 9.46958 14.5659 9.25665 14.5263 9.04615C14.4725 8.7604 14.1558 8.59333 13.8876 8.70527Z" fill="#E3E8EB"/>
<path d="M15.8212 8.70527C15.6171 8.79046 15.4955 9.01152 15.5404 9.22933C15.5685 9.36602 15.6545 9.48227 15.776 9.54858C15.9064 9.61977 16.0625 9.62458 16.1989 9.56077C16.3937 9.46958 16.4995 9.25665 16.4599 9.04615C16.4061 8.7604 16.0894 8.59333 15.8212 8.70527Z" fill="#E3E8EB"/>
<path d="M17.7548 8.70527C17.5507 8.79046 17.4291 9.01152 17.474 9.22933C17.5021 9.36602 17.5881 9.48227 17.7096 9.54858C17.84 9.61977 17.9961 9.62458 18.1325 9.56077C18.3273 9.46958 18.4331 9.25665 18.3935 9.04615C18.3397 8.7604 18.023 8.59333 17.7548 8.70527Z" fill="#E3E8EB"/>
<path d="M19.6884 8.70527C19.4843 8.79046 19.3627 9.01152 19.4076 9.22933C19.4357 9.36602 19.5217 9.48227 19.6432 9.54858C19.7736 9.61977 19.9297 9.62458 20.066 9.56077C20.2609 9.46958 20.3667 9.25665 20.327 9.04615C20.2733 8.7604 19.9566 8.59333 19.6884 8.70527Z" fill="#E3E8EB"/>
<path d="M21.6222 8.70524C21.4181 8.79043 21.2966 9.01149 21.3414 9.2293C21.3696 9.36599 21.4555 9.48224 21.577 9.54855C21.7074 9.61974 21.8636 9.62455 21.9999 9.56074C22.1947 9.46955 22.3005 9.25661 22.2609 9.04611C22.2071 8.76036 21.8904 8.5933 21.6222 8.70524Z" fill="#E3E8EB"/>
<path d="M23.5557 8.70524C23.3516 8.79043 23.2301 9.01149 23.2749 9.2293C23.3031 9.36599 23.389 9.48224 23.5105 9.54855C23.6409 9.61974 23.7971 9.62455 23.9334 9.56074C24.1282 9.46955 24.234 9.25661 24.1944 9.04611C24.1406 8.76036 23.8239 8.5933 23.5557 8.70524Z" fill="#E3E8EB"/>
<path d="M25.4754 8.70524C25.2712 8.79043 25.1497 9.01149 25.1946 9.2293C25.2227 9.36599 25.3086 9.48224 25.4301 9.54855C25.5606 9.61974 25.7167 9.62455 25.853 9.56074C26.0479 9.46955 26.1536 9.25661 26.114 9.04611C26.0603 8.76036 25.7436 8.5933 25.4754 8.70524Z" fill="#E3E8EB"/>
<path d="M27.4229 8.70524C27.2187 8.79043 27.0972 9.01149 27.1421 9.2293C27.1702 9.36599 27.2561 9.48224 27.3776 9.54855C27.5081 9.61974 27.6642 9.62455 27.8005 9.56074C27.9954 9.46955 28.1011 9.25661 28.0616 9.04611C28.0077 8.76036 27.6911 8.5933 27.4229 8.70524Z" fill="#E3E8EB"/>
<path d="M4.1754 22.1229C4.30584 22.1941 4.46196 22.1989 4.59827 22.1351C4.79315 22.0439 4.8989 21.8309 4.85934 21.6204C4.80552 21.3346 4.48884 21.1676 4.22065 21.2795C4.01652 21.3647 3.89496 21.5857 3.93984 21.8036C3.96796 21.9403 4.0539 22.0566 4.1754 22.1229Z" fill="#E3E8EB"/>
<path d="M6.1032 22.1229C6.23363 22.1941 6.38976 22.1989 6.52607 22.1351C6.72095 22.0439 6.8267 21.8309 6.78707 21.6204C6.73326 21.3346 6.41657 21.1676 6.14838 21.2795C5.94426 21.3647 5.8227 21.5857 5.86757 21.8036C5.89582 21.9403 5.98176 22.0566 6.1032 22.1229Z" fill="#E3E8EB"/>
<path d="M8.00944 22.1228C8.13987 22.194 8.296 22.1988 8.43231 22.135C8.62719 22.0438 8.73294 21.8309 8.69337 21.6204C8.63956 21.3345 8.32287 21.1675 8.05469 21.2794C7.85056 21.3646 7.729 21.5857 7.77387 21.8035C7.802 21.9402 7.88794 22.0565 8.00944 22.1228Z" fill="#E3E8EB"/>
<path d="M9.97527 22.1229C10.1057 22.1941 10.2618 22.1989 10.3981 22.1351C10.593 22.0439 10.6988 21.8309 10.6591 21.6204C10.6053 21.3346 10.2886 21.1676 10.0205 21.2795C9.81633 21.3647 9.69477 21.5857 9.73964 21.8036C9.76789 21.9403 9.85377 22.0566 9.97527 22.1229Z" fill="#E3E8EB"/>
<path d="M11.9088 22.1229C12.0392 22.1941 12.1954 22.1989 12.3317 22.1351C12.5265 22.0439 12.6323 21.8309 12.5927 21.6204C12.5389 21.3346 12.2222 21.1676 11.954 21.2795C11.7499 21.3647 11.6284 21.5857 11.6732 21.8036C11.7014 21.9403 11.7873 22.0566 11.9088 22.1229Z" fill="#E3E8EB"/>
<path d="M13.8424 22.1229C13.9728 22.1941 14.129 22.1989 14.2653 22.1351C14.4601 22.0439 14.5659 21.8309 14.5263 21.6204C14.4725 21.3346 14.1558 21.1676 13.8876 21.2795C13.6835 21.3647 13.562 21.5857 13.6068 21.8036C13.635 21.9403 13.7209 22.0566 13.8424 22.1229Z" fill="#E3E8EB"/>
<path d="M15.776 22.1229C15.9064 22.1941 16.0625 22.1989 16.1989 22.1351C16.3937 22.0439 16.4995 21.8309 16.4599 21.6204C16.4061 21.3346 16.0894 21.1676 15.8212 21.2795C15.6171 21.3647 15.4955 21.5857 15.5404 21.8036C15.5686 21.9403 15.6545 22.0566 15.776 22.1229Z" fill="#E3E8EB"/>
<path d="M17.7099 22.1228C17.8403 22.194 17.9964 22.1988 18.1327 22.135C18.3276 22.0438 18.4334 21.8309 18.3937 21.6204C18.3399 21.3345 18.0232 21.1675 17.7551 21.2794C17.5509 21.3646 17.4294 21.5857 17.4742 21.8035C17.5025 21.9402 17.5884 22.0565 17.7099 22.1228Z" fill="#E3E8EB"/>
<path d="M19.6434 22.1228C19.7739 22.194 19.93 22.1988 20.0663 22.135C20.2612 22.0438 20.3669 21.8309 20.3273 21.6204C20.2735 21.3345 19.9568 21.1675 19.6886 21.2794C19.4845 21.3646 19.3629 21.5857 19.4078 21.8035C19.4361 21.9402 19.5219 22.0565 19.6434 22.1228Z" fill="#E3E8EB"/>
<path d="M21.577 22.1228C21.7074 22.194 21.8636 22.1988 21.9999 22.135C22.1947 22.0438 22.3005 21.8309 22.2609 21.6204C22.2071 21.3345 21.8904 21.1675 21.6222 21.2794C21.4181 21.3646 21.2966 21.5857 21.3414 21.8035C21.3696 21.9402 21.4555 22.0565 21.577 22.1228Z" fill="#E3E8EB"/>
<path d="M23.5105 22.1228C23.6409 22.194 23.7971 22.1988 23.9334 22.135C24.1282 22.0438 24.234 21.8309 24.1944 21.6204C24.1406 21.3345 23.8239 21.1675 23.5557 21.2794C23.3516 21.3646 23.2301 21.5857 23.2749 21.8035C23.3031 21.9402 23.3891 22.0565 23.5105 22.1228Z" fill="#E3E8EB"/>
<path d="M25.4301 22.1228C25.5606 22.194 25.7167 22.1988 25.853 22.135C26.0479 22.0438 26.1536 21.8309 26.114 21.6204C26.0602 21.3345 25.7435 21.1675 25.4753 21.2794C25.2712 21.3646 25.1496 21.5857 25.1945 21.8035C25.2227 21.9402 25.3086 22.0565 25.4301 22.1228Z" fill="#E3E8EB"/>
<path d="M27.3776 22.1228C27.5081 22.194 27.6642 22.1988 27.8005 22.135C27.9954 22.0438 28.1011 21.8309 28.0616 21.6204C28.0077 21.3345 27.6911 21.1675 27.4229 21.2794C27.2187 21.3646 27.0972 21.5857 27.1421 21.8035C27.1702 21.9402 27.2561 22.0565 27.3776 22.1228Z" fill="#E3E8EB"/>
</g>
<defs>
<clipPath id="clip0_2676_30176">
<rect width="32" height="32" fill="white"/>
</clipPath>
</defs>
</svg>
