<svg width="32" height="32" viewBox="0 0 32 32" fill="none" xmlns="http://www.w3.org/2000/svg">
<path d="M11.9926 8.2235C12.0693 8.2235 12.1471 8.20456 12.219 8.16481L13.5777 7.41269C13.5777 7.41269 13.0928 9.10719 13.091 9.11363C12.9769 9.51225 13.31 9.95525 13.7255 9.95525C13.8623 9.95525 13.999 9.91281 14.1148 9.82825L15.8318 8.57438C15.8318 8.57438 17.5443 9.82506 17.5488 9.82825C18.0421 10.1885 18.7409 9.70188 18.5726 9.11369L18.0227 7.19188L19.7801 8.16475C19.852 8.20456 19.9299 8.22344 20.0066 8.22344C20.1714 8.22344 20.3314 8.13619 20.4169 7.98175C20.5422 7.75538 20.4603 7.47031 20.2339 7.345L18.5485 6.41206L19.6693 5.51538C19.8913 5.33781 19.9739 5.04975 19.8798 4.7815C19.7857 4.51325 19.5413 4.33994 19.257 4.33994H17.1321L16.4594 2.27156C16.2663 1.67738 15.3978 1.67619 15.2041 2.2715C15.2028 2.2755 14.5314 4.33994 14.5314 4.33994H12.4064C12.1222 4.33994 11.8778 4.51325 11.7836 4.78144C11.6895 5.04969 11.7722 5.33775 11.9941 5.51531L13.2522 6.52175L11.7651 7.34488C11.5388 7.47019 11.4568 7.75531 11.5821 7.98169C11.6678 8.13625 11.8276 8.2235 11.9926 8.2235ZM13.1961 5.277H14.7326C15.0193 5.277 15.2716 5.09381 15.3603 4.82113L15.8318 3.37125L16.3034 4.82113C16.3921 5.09381 16.6443 5.277 16.931 5.277H18.4675L17.2098 6.28319C17.0014 6.44988 16.9141 6.72344 16.9875 6.98019L17.4498 8.59581L16.2211 7.69856C15.9883 7.52838 15.6754 7.52838 15.4426 7.6985L14.2138 8.59581L14.6761 6.98031C14.7496 6.72369 14.6624 6.45006 14.4539 6.28325L13.1961 5.277Z" fill="#E3E8EB"/>
<path d="M25.81 11.5027L30.1346 13.8967C30.7157 14.2183 31.0626 14.8068 31.0626 15.4709C31.0626 16.1349 30.7157 16.7235 30.1346 17.0451L29.6602 17.3077C29.4338 17.4331 29.3519 17.7181 29.4772 17.9445C29.5627 18.099 29.7226 18.1862 29.8875 18.1862C29.9643 18.1862 30.0421 18.1672 30.114 18.1275L30.5884 17.8649C31.472 17.3757 31.9996 16.4808 31.9996 15.4709C31.9996 14.4609 31.472 13.5661 30.5884 13.0769L26.2638 10.683C26.0374 10.5577 25.7524 10.6396 25.6271 10.866C25.5018 11.0924 25.5836 11.3774 25.81 11.5027Z" fill="#E3E8EB"/>
<path d="M12.06 17.0714L10.7458 13.5889C10.7441 13.5846 10.7424 13.5803 10.7407 13.5761C10.6557 13.3696 10.4567 13.2362 10.2334 13.2362H10.2329C10.0094 13.2364 9.81031 13.3702 9.72569 13.5771C9.72425 13.5806 9.72281 13.5841 9.7215 13.5877L8.39519 17.0701C8.30312 17.3119 8.42444 17.5826 8.66625 17.6746C8.72113 17.6956 8.7775 17.7054 8.83288 17.7054C9.02163 17.7054 9.19956 17.5905 9.27075 17.4036L9.48612 16.838H10.9704L11.1833 17.4022C11.2746 17.6442 11.5449 17.7664 11.7871 17.6751C12.0292 17.5838 12.1514 17.3135 12.06 17.0714ZM9.84306 15.9011L10.2317 14.8806L10.6169 15.9011H9.84306Z" fill="#E3E8EB"/>
<path d="M22.7572 13.7001C22.7547 13.4429 22.5454 13.2362 22.2888 13.2362C22.2873 13.2362 22.2857 13.2362 22.2842 13.2362C22.0255 13.2387 21.8177 13.4504 21.8202 13.7092L21.8403 15.7737L20.2321 13.445C20.1156 13.2763 19.9029 13.203 19.7072 13.2639C19.5114 13.325 19.3781 13.5062 19.3781 13.7112V17.2368C19.3781 17.4955 19.5879 17.7053 19.8466 17.7053C20.1054 17.7053 20.3151 17.4955 20.3151 17.2368V15.2141L21.8451 17.4295C21.9817 17.6268 22.2099 17.7106 22.4266 17.6429C22.6475 17.5739 22.7903 17.3678 22.7903 17.1132L22.7572 13.7001Z" fill="#E3E8EB"/>
<path d="M18.1235 17.2367V13.7046C18.1235 13.4459 17.9138 13.2361 17.655 13.2361C17.3963 13.2361 17.1865 13.4459 17.1865 13.7046V17.2367C17.1865 17.4955 17.3963 17.7052 17.655 17.7052C17.9138 17.7052 18.1235 17.4955 18.1235 17.2367Z" fill="#E3E8EB"/>
<path d="M6.14681 14.1732C6.40694 14.1732 6.65769 14.2497 6.87194 14.3945C7.08631 14.5393 7.37756 14.483 7.52237 14.2686C7.66725 14.0542 7.61087 13.7629 7.3965 13.6181C7.02669 13.3683 6.59456 13.2362 6.14675 13.2362C4.91462 13.2362 3.91219 14.2386 3.91219 15.4708C3.91219 16.7029 4.91456 17.7053 6.14675 17.7053C6.64 17.7053 7.08287 17.543 7.42756 17.2361C7.49506 17.1759 7.55931 17.1098 7.61837 17.0393C7.78462 16.8411 7.75869 16.5456 7.56044 16.3793C7.36212 16.2131 7.06669 16.239 6.90044 16.4373C6.8705 16.4729 6.83819 16.5063 6.80444 16.5364C6.63156 16.6903 6.41025 16.7684 6.14675 16.7684C5.43125 16.7684 4.84919 16.1863 4.84919 15.4708C4.84919 14.7554 5.43137 14.1732 6.14681 14.1732Z" fill="#E3E8EB"/>
<path d="M16.0189 16.5537C16.1087 16.0505 15.8816 15.3936 14.9749 15.0591C14.5456 14.9008 14.1457 14.7284 14.0181 14.6726C13.9354 14.6039 13.9384 14.5094 13.9441 14.4698C13.9522 14.4126 13.9942 14.2726 14.2061 14.2088C14.6887 14.0636 15.1391 14.4172 15.1532 14.4286C15.3513 14.5927 15.645 14.5666 15.8108 14.3693C15.9773 14.1712 15.9517 13.8757 15.7536 13.7092C15.7199 13.6809 14.9147 13.0168 13.9358 13.3117C13.4381 13.4616 13.0858 13.8544 13.0166 14.3367C12.9515 14.7899 13.1479 15.2259 13.5292 15.4744C13.5499 15.4879 13.5717 15.4997 13.5942 15.5098C13.6147 15.5189 14.1019 15.7358 14.6506 15.9382C14.7664 15.9809 15.141 16.1397 15.0964 16.389C15.0632 16.5755 14.8332 16.7684 14.506 16.7684C14.1624 16.7684 13.8321 16.6302 13.6223 16.3987C13.4486 16.2069 13.1523 16.1924 12.9606 16.3661C12.7688 16.5399 12.7542 16.8361 12.928 17.0279C13.3182 17.4584 13.8933 17.7054 14.506 17.7054C15.2634 17.7054 15.8997 17.2211 16.0189 16.5537Z" fill="#E3E8EB"/>
<path d="M28.0873 15.4707C28.0873 14.2386 27.0849 13.2361 25.8527 13.2361C24.6206 13.2361 23.6182 14.2385 23.6182 15.4707C23.6182 16.7029 24.6206 17.7052 25.8527 17.7052C27.0849 17.7052 28.0873 16.7028 28.0873 15.4707ZM24.5552 15.4707C24.5552 14.7552 25.1373 14.1731 25.8527 14.1731C26.5682 14.1731 27.1503 14.7552 27.1503 15.4707C27.1503 16.1862 26.5682 16.7682 25.8527 16.7682C25.1373 16.7682 24.5552 16.1862 24.5552 15.4707Z" fill="#E3E8EB"/>
<path d="M31.862 26.3681C31.7618 26.0789 31.4993 25.8921 31.1933 25.8921H28.2701L28.8914 25.4227C29.0127 25.3311 29.0774 25.1876 29.0774 25.0376C29.0774 25.0352 29.0774 21.7159 29.0774 21.7159C29.0774 21.2478 28.6966 20.867 28.2284 20.867H25.1652L28.2094 19.1819C28.4358 19.0566 28.5177 18.7715 28.3924 18.5451C28.2671 18.3187 27.9819 18.2369 27.7556 18.3621L23.2305 20.867H8.76556C8.75412 20.8592 8.74225 20.8519 8.72994 20.8451L1.86487 17.045C1.28381 16.7234 0.936938 16.1349 0.936938 15.4707C0.936938 14.8067 1.28381 14.2182 1.86487 13.8966L6.1895 11.5026C6.41587 11.3773 6.49781 11.0922 6.3725 10.8659C6.24725 10.6395 5.96213 10.5576 5.73575 10.6829L1.41112 13.0768C0.527562 13.5659 0 14.4608 0 15.4707C0 16.4807 0.527562 17.3756 1.41112 17.8647L6.83481 20.8671H3.77206C3.30394 20.8671 2.92313 21.2479 2.92313 21.716V25.0244C2.91506 25.1771 2.98231 25.3274 3.10862 25.4228L3.72988 25.8921H0.80675C0.500687 25.8921 0.238187 26.079 0.138 26.3682C0.0378125 26.6574 0.128437 26.9666 0.368937 27.1559L1.48337 28.0333L0.368875 28.9107C0.128438 29.1 0.03775 29.4092 0.137938 29.6984C0.238125 29.9876 0.500625 30.1745 0.806687 30.1745H6.12875C6.79225 30.1745 7.332 29.6347 7.332 28.9712V25.5174H10.4918C10.7506 25.5174 10.9603 25.3077 10.9603 25.0489C10.9603 24.7902 10.7506 24.5804 10.4918 24.5804H3.86013V21.804H28.1404V24.5804H12.6318C12.373 24.5804 12.1632 24.7902 12.1632 25.0489C12.1632 25.3077 12.373 25.5174 12.6318 25.5174H24.668V28.9712C24.668 29.6347 25.2078 30.1745 25.8713 30.1745H31.1933C31.4993 30.1745 31.7618 29.9876 31.862 29.6984C31.9622 29.4092 31.8716 29.1 31.6311 28.9107L30.5166 28.0333L31.6311 27.1559C31.8716 26.9666 31.9622 26.6573 31.862 26.3681ZM6.395 25.5174V26.7311L4.78837 25.5174H6.395ZM4.97019 26.829L6.395 27.9053V28.9712C6.395 29.118 6.27556 29.2374 6.12875 29.2374H1.46844L2.5305 28.4013C2.64337 28.3124 2.70919 28.1768 2.70919 28.0332C2.70919 27.8896 2.64331 27.7539 2.5305 27.6651L1.46844 26.8289H4.97019V26.829ZM25.605 25.5174H27.2116L25.605 26.7311V25.5174ZM29.4695 27.6651C29.3566 27.754 29.2908 27.8896 29.2908 28.0332C29.2908 28.1769 29.3567 28.3125 29.4695 28.4014L30.5316 29.2375H25.8713C25.7244 29.2375 25.605 29.1181 25.605 28.9712V27.9054L27.0298 26.8291H30.5315L29.4695 27.6651Z" fill="#E3E8EB"/>
<path d="M19.5734 9.04013C19.4882 9.28288 19.566 9.55394 19.7669 9.71463L20.9469 10.6586C20.9469 10.6586 20.5166 12.1624 20.5139 12.1718C20.3569 12.7207 20.9927 13.1662 21.4549 12.8285L22.6161 11.9804C22.6161 11.9804 23.7736 12.8258 23.7773 12.8285C24.2349 13.1628 24.8749 12.7189 24.7183 12.1718L24.2854 10.6586L25.4654 9.71456C25.6662 9.55381 25.7439 9.28275 25.6588 9.04006C25.5736 8.79738 25.3436 8.63431 25.0864 8.63431H23.6489L23.1931 7.23281C23.1116 6.98219 22.8798 6.81381 22.6162 6.81375C22.3527 6.81375 22.1209 6.98213 22.0393 7.23275L21.5835 8.63425H20.1459C19.8887 8.63431 19.6586 8.79744 19.5734 9.04013ZM21.8234 9.57131C22.0869 9.57131 22.3187 9.403 22.4003 9.15231L22.6162 8.48863L22.8321 9.15244C22.9136 9.403 23.1454 9.57131 23.4089 9.57131H24.1446L23.5283 10.0644C23.3367 10.2177 23.2566 10.4691 23.3241 10.7049L23.5527 11.5042L22.9739 11.0814C22.8669 11.0033 22.7416 10.9643 22.6162 10.9643C22.4908 10.9643 22.3654 11.0033 22.2584 11.0814L21.6796 11.5042L21.9084 10.7048C21.9758 10.4689 21.8956 10.2175 21.7041 10.0643L21.0877 9.57125H21.8234V9.57131Z" fill="#E3E8EB"/>
<path d="M6.53419 9.71456L7.71419 10.6586C7.71419 10.6586 7.28225 12.1683 7.28125 12.1717C7.12644 12.7127 7.76375 13.1633 8.22225 12.8284L9.3835 11.9804C9.3835 11.9804 10.5424 12.8268 10.5447 12.8284C11.0009 13.1616 11.6406 12.7131 11.4857 12.1717L11.0528 10.6586L12.2328 9.71456C12.4337 9.55388 12.5114 9.28281 12.4262 9.04006C12.341 8.79738 12.111 8.63431 11.8538 8.63431H10.4162L9.96038 7.23281C9.87894 6.98219 9.64707 6.81375 9.3835 6.81375C9.11994 6.81375 8.88813 6.98213 8.80663 7.23275L8.35082 8.63431H6.91325C6.65607 8.63431 6.42607 8.79738 6.34088 9.04006C6.25557 9.28269 6.33325 9.55375 6.53419 9.71456ZM8.59069 9.57125C8.85413 9.57125 9.08594 9.40294 9.16757 9.15225L9.38344 8.4885L9.59932 9.15231C9.68088 9.40288 9.91269 9.57119 10.1762 9.57119H10.9119L10.2956 10.0643C10.1041 10.2174 10.0239 10.4688 10.0914 10.7048L10.3201 11.5041L9.74125 11.0813C9.52732 10.9251 9.23975 10.9249 9.02575 11.0813L8.44688 11.5041L8.67557 10.7049C8.74313 10.469 8.663 10.2175 8.47132 10.0642L7.855 9.57113H8.59069V9.57125Z" fill="#E3E8EB"/>
<path d="M7.66717 19.547C7.75142 19.674 7.89617 19.7545 8.05755 19.7545C8.31211 19.7545 8.52586 19.541 8.52586 19.2862C8.52586 19.0256 8.31499 18.8179 8.05755 18.8179C7.75555 18.8179 7.54336 19.086 7.59861 19.378C7.6103 19.4402 7.63405 19.4972 7.66717 19.547Z" fill="#E3E8EB"/>
<path d="M9.37496 19.378C9.38671 19.4402 9.41046 19.4972 9.44352 19.547C9.52777 19.674 9.67252 19.7545 9.8339 19.7545C10.0885 19.7545 10.3022 19.541 10.3022 19.2862C10.3022 19.0256 10.0913 18.8179 9.8339 18.8179C9.53196 18.8179 9.31977 19.0861 9.37496 19.378Z" fill="#E3E8EB"/>
<path d="M11.6093 18.8179C11.3073 18.8179 11.0951 19.086 11.1504 19.378C11.1621 19.4401 11.1859 19.4972 11.2189 19.547C11.3032 19.6739 11.4479 19.7545 11.6093 19.7545C11.8639 19.7545 12.0776 19.541 12.0776 19.2862C12.0776 19.0256 11.8667 18.8179 11.6093 18.8179Z" fill="#E3E8EB"/>
<path d="M12.8934 19.3779C12.9052 19.4401 12.9289 19.4971 12.962 19.5469C13.0463 19.6739 13.191 19.7544 13.3524 19.7544C13.6069 19.7544 13.8207 19.5409 13.8207 19.2861C13.8207 19.0255 13.6098 18.8178 13.3524 18.8178C13.0504 18.8178 12.8383 19.086 12.8934 19.3779Z" fill="#E3E8EB"/>
<path d="M14.6581 19.3779C14.6699 19.4401 14.6936 19.4971 14.7267 19.5469C14.8109 19.6739 14.9557 19.7544 15.1171 19.7544C15.3716 19.7544 15.5854 19.5409 15.5854 19.2861C15.5854 19.0255 15.3745 18.8178 15.1171 18.8178C14.8151 18.8178 14.6029 19.086 14.6581 19.3779Z" fill="#E3E8EB"/>
<path d="M16.8827 18.8179C16.5807 18.8179 16.3686 19.086 16.4238 19.378C16.4356 19.4401 16.4593 19.4972 16.4924 19.547C16.5766 19.6739 16.7214 19.7545 16.8827 19.7545C17.1373 19.7545 17.3511 19.541 17.3511 19.2862C17.351 19.0256 17.1401 18.8179 16.8827 18.8179Z" fill="#E3E8EB"/>
<path d="M18.1885 19.378C18.2002 19.4402 18.224 19.4972 18.2571 19.547C18.3413 19.674 18.4861 19.7545 18.6475 19.7545C18.902 19.7545 19.1158 19.541 19.1158 19.2862C19.1158 19.0256 18.9049 18.8179 18.6475 18.8179C18.3454 18.8179 18.1332 19.0861 18.1885 19.378Z" fill="#E3E8EB"/>
<path d="M19.9533 19.3779C19.9651 19.4401 19.9888 19.4971 20.0219 19.5469C20.1061 19.6739 20.2509 19.7544 20.4122 19.7544C20.6668 19.7544 20.8806 19.5409 20.8806 19.2861C20.8806 19.0255 20.6697 18.8178 20.4122 18.8178C20.1102 18.8178 19.8981 19.086 19.9533 19.3779Z" fill="#E3E8EB"/>
<path d="M22.1767 18.8179C21.8747 18.8179 21.6625 19.086 21.7178 19.378C21.7295 19.4401 21.7533 19.4972 21.7863 19.547C21.8706 19.6739 22.0153 19.7545 22.1767 19.7545C22.4313 19.7545 22.645 19.541 22.645 19.2862C22.6449 19.0256 22.4341 18.8179 22.1767 18.8179Z" fill="#E3E8EB"/>
<path d="M23.9422 18.8178C23.6402 18.8178 23.428 19.0859 23.4832 19.3779C23.495 19.44 23.5187 19.4971 23.5518 19.5469C23.6361 19.6738 23.7808 19.7544 23.9422 19.7544C24.1967 19.7544 24.4105 19.5409 24.4105 19.2861C24.4105 19.0255 24.1996 18.8178 23.9422 18.8178Z" fill="#E3E8EB"/>
</svg>
