<svg width="32" height="32" viewBox="0 0 32 32" fill="none" xmlns="http://www.w3.org/2000/svg">
<g clip-path="url(#clip0_2676_30142)">
<path d="M30.2493 17.7401H1.75075C0.983001 17.7401 0.358376 18.3647 0.358376 19.1325V21.8563C0.358376 22.624 0.983001 23.2487 1.75075 23.2487H14.3526V31.0684C14.3526 31.582 14.7706 32 15.2843 32H16.7159C17.2296 32 17.6476 31.582 17.6476 31.0684V23.2487H24.3191C24.5779 23.2487 24.7877 23.0389 24.7877 22.78C24.7877 22.5212 24.5779 22.3114 24.3191 22.3114H17.6476V20.7259C17.6476 20.2122 17.2296 19.7943 16.7159 19.7943H15.2843C14.7706 19.7943 14.3526 20.2122 14.3526 20.7259V22.3114H1.75075C1.49981 22.3114 1.29556 22.1072 1.29556 21.8562V19.1325C1.29556 18.8815 1.49975 18.6773 1.75075 18.6773H30.2493C30.5002 18.6773 30.7044 18.8815 30.7044 19.1325V21.8563C30.7044 22.1072 30.5002 22.3115 30.2493 22.3115H26.4768C26.218 22.3115 26.0082 22.5213 26.0082 22.7801C26.0082 23.0389 26.218 23.2487 26.4768 23.2487H30.2493C31.0171 23.2487 31.6417 22.6241 31.6417 21.8564V19.1325C31.6416 18.3647 31.017 17.7401 30.2493 17.7401ZM15.2898 20.7315H16.7103V31.0627H15.2898V20.7315Z" fill="#E3E8EB"/>
<path d="M11.8377 7.48758C10.2145 5.6349 7.47324 5.01777 5.21992 6.02133C3.62867 6.73008 2.4153 8.17615 2.00349 9.88196C1.94274 10.1336 2.09749 10.3867 2.34905 10.4475C2.6008 10.5084 2.8538 10.3535 2.91455 10.1019C2.98549 9.80808 3.08242 9.52646 3.20267 9.25915L4.2298 9.85208C4.05424 10.2746 3.9573 10.7377 3.9573 11.223C3.9573 11.7085 4.0543 12.1716 4.22992 12.5943L3.2028 13.1871C3.04474 12.8367 2.92724 12.4623 2.85674 12.0692C2.81105 11.8145 2.56717 11.6449 2.31274 11.6906C2.05799 11.7363 1.88849 11.9799 1.93417 12.2346C2.42099 14.9495 4.77917 16.92 7.54161 16.92C7.75105 16.92 7.96042 16.9073 8.16836 16.8822C10.9442 16.5475 13.2377 14.0281 13.2384 11.223C13.2385 9.85777 12.7379 8.51508 11.8377 7.48758ZM10.315 7.35683C10.7357 7.65952 11.1053 8.02915 11.408 8.4499L10.3837 9.04133C10.1932 8.79377 9.97117 8.57171 9.72367 8.38121L10.315 7.35683ZM10.1886 11.223C10.1886 12.6825 9.00117 13.87 7.54155 13.87C6.61242 13.87 5.7633 13.3887 5.28505 12.6026C4.6473 11.5544 4.81217 10.2169 5.66374 9.35902C6.1578 8.86133 6.84011 8.5759 7.54155 8.5759C9.00117 8.57596 10.1886 9.7634 10.1886 11.223ZM7.18661 6.47627C7.67286 6.44002 8.1908 6.48246 8.6638 6.5969C8.66667 6.59758 8.66961 6.59827 8.67324 6.59921C8.9613 6.66971 9.23911 6.76652 9.50411 6.88696L8.91274 7.9114C8.49017 7.73577 8.02699 7.63877 7.54155 7.63877C7.05624 7.63877 6.59311 7.73577 6.17055 7.91133L5.57867 6.8859C6.0848 6.65665 6.62967 6.51777 7.18661 6.47627ZM3.66974 8.44658C3.97355 8.02183 4.34424 7.65227 4.76505 7.35096L5.35961 8.38108C5.11211 8.57158 4.89005 8.79358 4.69961 9.04115L3.66974 8.44658ZM4.7663 15.0932C4.34524 14.7916 3.97455 14.4222 3.67099 13.999L4.69986 13.4051C4.89036 13.6526 5.11242 13.8746 5.35992 14.065L4.7663 15.0932ZM7.54155 15.9827C6.84517 15.9827 6.17949 15.8328 5.57824 15.5613L6.17086 14.5348C6.5933 14.7103 7.0563 14.8073 7.54155 14.8073C8.02692 14.8073 8.49005 14.7103 8.91255 14.5347L9.50392 15.5591C8.9053 15.8311 8.2408 15.9827 7.54155 15.9827ZM10.3149 15.0892L9.72349 14.0648C9.97099 13.8744 10.193 13.6523 10.3835 13.4048L11.4079 13.9962C11.1052 14.417 10.7356 14.7865 10.3149 15.0892ZM10.8533 12.5939C11.0289 12.1714 11.1258 11.7083 11.1258 11.223C11.1258 10.7378 11.0289 10.2748 10.8534 9.8524L11.8778 9.2609C12.1497 9.85946 12.3012 10.5239 12.3012 11.223C12.3012 11.9222 12.1497 12.5867 11.8777 13.1853L10.8533 12.5939Z" fill="#E3E8EB"/>
<path d="M29.2263 7.82356C28.7343 7.06512 28.057 6.41943 27.2703 5.97131C26.5637 5.56887 25.7632 5.31318 24.9104 5.24612C24.8247 4.15593 24.4157 3.09562 23.749 2.23181C23.1342 1.43524 22.312 0.799056 21.3792 0.420056C20.5732 0.0925557 19.7053 -0.0461318 18.8375 0.0133682C17.1837 0.126806 15.6383 0.980431 14.6517 2.31168C13.9308 3.28424 13.5342 4.48343 13.5342 5.69687C13.5342 7.06543 14.0591 8.44543 14.9655 9.46918C15.9172 10.5442 17.3432 11.2631 18.7803 11.3762C18.8746 12.5755 19.3502 13.714 20.1333 14.6269C21.21 15.8822 22.8043 16.6223 24.4596 16.6223C25.4801 16.6223 26.4388 16.3526 27.2681 15.8807C29.0287 14.8789 30.1573 12.9391 30.1565 10.9252C30.1565 9.82343 29.8201 8.73893 29.2263 7.82356ZM27.2329 7.05924C27.6537 7.36193 28.0232 7.73156 28.3259 8.15231L27.3016 8.74374C27.1112 8.49618 26.8891 8.27412 26.6416 8.08362L27.2329 7.05924ZM24.4595 8.27831C25.9191 8.27831 27.1065 9.46574 27.1065 10.9254C27.1065 12.385 25.9191 13.5724 24.4595 13.5724C22.9999 13.5724 21.8125 12.385 21.8125 10.9254C21.8125 9.46574 22.9999 8.27831 24.4595 8.27831ZM21.6176 8.74356L20.5932 8.15218C20.8959 7.73137 21.2655 7.36181 21.6863 7.05912L22.2776 8.08356C22.0301 8.27399 21.808 8.49599 21.6176 8.74356ZM26.422 6.58931L25.8307 7.61374C25.4081 7.43812 24.9449 7.34112 24.4595 7.34112C23.9741 7.34112 23.511 7.43812 23.0885 7.61368L22.4972 6.58924C23.0958 6.31724 23.7603 6.16568 24.4595 6.16568C25.1588 6.16568 25.8233 6.31724 26.422 6.58931ZM23.5673 3.73481C23.7805 4.20418 23.9197 4.71399 23.9699 5.24931C23.5696 5.28356 23.181 5.35931 22.8083 5.47237C22.7833 5.06881 22.6912 4.68312 22.543 4.32631L23.5673 3.73481ZM22.0045 1.83074C22.4252 2.13343 22.7948 2.50306 23.0975 2.92381L22.0732 3.51524C21.8827 3.26768 21.6607 3.04562 21.4132 2.85512L22.0045 1.83074ZM19.2311 0.937181C19.9304 0.937181 20.5949 1.08881 21.1936 1.36081L20.6023 2.38524C20.1797 2.20962 19.7165 2.11262 19.2311 2.11262C18.7457 2.11262 18.2827 2.20962 17.8601 2.38518L17.2688 1.36074C17.8674 1.08874 18.5318 0.937181 19.2311 0.937181ZM16.4578 1.83062L17.0492 2.85506C16.8017 3.04556 16.5797 3.26756 16.3892 3.51506L15.3648 2.92368C15.6675 2.50293 16.0371 2.13331 16.4578 1.83062ZM14.895 7.65943C14.6229 7.06074 14.4713 6.39618 14.4713 5.69687C14.4713 4.99768 14.6229 4.33318 14.8949 3.73456L15.9193 4.32593C15.7438 4.74843 15.6468 5.21156 15.6468 5.69687C15.6468 6.18231 15.7438 6.64549 15.9195 7.06812L14.895 7.65943ZM16.458 9.56331C16.0372 9.26062 15.6677 8.89106 15.365 8.47031L16.3894 7.87899C16.5799 8.12649 16.802 8.34849 17.0495 8.53893L16.458 9.56331ZM18.7835 10.4356C18.5343 10.4121 18.2878 10.3692 18.0466 10.3075C17.7775 10.2383 17.5175 10.1462 17.269 10.0332L17.8604 9.00887C18.2172 9.15706 18.6029 9.24924 19.0065 9.27431C18.8935 9.64674 18.8177 10.0353 18.7835 10.4356ZM19.3839 8.33962C19.333 8.34249 19.2819 8.34399 19.2311 8.34399C17.7715 8.34399 16.584 7.15656 16.584 5.69693C16.584 4.23731 17.7715 3.04987 19.2311 3.04987C20.6907 3.04987 21.8781 4.23731 21.8781 5.69693C21.8781 5.74781 21.8766 5.79893 21.8737 5.84981C21.7728 5.90137 21.6692 5.95856 21.5746 6.01431C20.7183 6.51924 19.9993 7.24824 19.5063 8.11299C19.4639 8.18749 19.4231 8.26306 19.3839 8.33962ZM20.1234 12.8879C19.8513 12.2892 19.6998 11.6247 19.6998 10.9254C19.6998 10.2262 19.8513 9.56168 20.1233 8.96306L21.1478 9.55443C20.9722 9.97693 20.8753 10.4401 20.8753 10.9254C20.8753 11.4108 20.9723 11.874 21.1479 12.2966L20.1234 12.8879ZM21.6864 14.7918C21.2656 14.4891 20.896 14.1196 20.5933 13.6988L21.6178 13.1075C21.8083 13.355 22.0303 13.577 22.2778 13.7674L21.6864 14.7918ZM24.4595 15.6851C23.7604 15.6851 23.096 15.5336 22.4974 15.2617L23.0888 14.2373C23.5113 14.4128 23.9743 14.5097 24.4595 14.5097C24.9448 14.5097 25.408 14.4127 25.8305 14.2372L26.4219 15.2616C25.8232 15.5336 25.1587 15.6851 24.4595 15.6851ZM27.2328 14.7916L26.6414 13.7672C26.8889 13.5768 27.1109 13.3547 27.3014 13.1072L28.3258 13.6986C28.0231 14.1194 27.6535 14.4889 27.2328 14.7916ZM28.7957 12.8877L27.7712 12.2963C27.9468 11.8738 28.0437 11.4107 28.0437 10.9254C28.0437 10.4402 27.9468 9.97718 27.7713 9.55481L28.7957 8.96331C29.0677 9.56187 29.2192 10.2263 29.2192 10.9254C29.2192 11.6246 29.0677 12.2891 28.7957 12.8877Z" fill="#E3E8EB"/>
</g>
<defs>
<clipPath id="clip0_2676_30142">
<rect width="32" height="32" fill="white"/>
</clipPath>
</defs>
</svg>
