<svg width="32" height="32" viewBox="0 0 32 32" fill="none" xmlns="http://www.w3.org/2000/svg">
<g clip-path="url(#clip0_2676_30217)">
<path d="M31.0305 12.1389H0.969451C0.434874 12.1389 0 12.5737 0 13.1083V14.5374C0 14.7964 0.209905 15.0063 0.468817 15.0063C0.727729 15.0063 0.937634 14.7964 0.937634 14.5374V13.1083C0.937634 13.0908 0.951886 13.0765 0.969451 13.0765H31.0305C31.0481 13.0765 31.0624 13.0908 31.0624 13.1083V24.3316H0.937634V16.6783C0.937634 16.4193 0.727729 16.2095 0.468817 16.2095C0.209905 16.2095 0 16.4193 0 16.6783V27.2664C0 27.801 0.434874 28.2358 0.969451 28.2358H23.5091C23.768 28.2358 23.9779 28.026 23.9779 27.767C23.9779 27.508 23.768 27.2982 23.5091 27.2982H0.969451C0.951886 27.2982 0.937634 27.2839 0.937634 27.2664V25.2705H31.0624V27.2664C31.0624 27.2839 31.0481 27.2982 31.0305 27.2982H25.6863C25.4274 27.2982 25.2175 27.508 25.2175 27.767C25.2175 28.026 25.4274 28.2358 25.6863 28.2358H31.0305C31.5651 28.2358 32 27.801 32 27.2664V13.1083C32 12.5737 31.5651 12.1389 31.0305 12.1389Z" fill="#E3E8EB"/>
<path d="M1.6953 13.8561C1.49121 13.9413 1.36969 14.1623 1.41457 14.3801C1.4427 14.5167 1.52865 14.633 1.65004 14.6993C1.78043 14.7705 1.93652 14.7753 2.07285 14.7115C2.26769 14.6203 2.37346 14.4075 2.33383 14.197C2.28001 13.9112 1.9634 13.7442 1.6953 13.8561Z" fill="#E3E8EB"/>
<path d="M3.36195 14.6991C3.49235 14.7703 3.64843 14.7751 3.78476 14.7113C3.9796 14.6201 4.08537 14.4072 4.04574 14.1968C3.99192 13.911 3.67531 13.744 3.40721 13.8559C3.20318 13.9411 3.0816 14.1621 3.12648 14.3799C3.15455 14.5166 3.2405 14.6328 3.36195 14.6991Z" fill="#E3E8EB"/>
<path d="M5.81145 14.197C5.75763 13.9112 5.44102 13.7441 5.17292 13.8561C4.9689 13.9413 4.84732 14.1623 4.8922 14.38C4.92033 14.5167 5.00621 14.633 5.12767 14.6993C5.25806 14.7705 5.41415 14.7753 5.55048 14.7115C5.74526 14.6203 5.85102 14.4074 5.81145 14.197Z" fill="#E3E8EB"/>
<path d="M6.89418 14.6991C7.02458 14.7703 7.18066 14.7751 7.31699 14.7113C7.51183 14.6201 7.6176 14.4072 7.57797 14.1968C7.52421 13.911 7.20754 13.744 6.93944 13.8559C6.73535 13.9411 6.61383 14.1621 6.65871 14.3799C6.68684 14.5166 6.77273 14.6328 6.89418 14.6991Z" fill="#E3E8EB"/>
<path d="M9.34383 14.197C9.29007 13.9112 8.9734 13.7441 8.7053 13.8561C8.50121 13.9413 8.37969 14.1623 8.42458 14.38C8.4527 14.5167 8.53859 14.633 8.66005 14.6993C8.79044 14.7705 8.94652 14.7753 9.08286 14.7115C9.2777 14.6203 9.38346 14.4074 9.34383 14.197Z" fill="#E3E8EB"/>
<path d="M12.2373 13.8561C12.0332 13.9413 11.9117 14.1623 11.9566 14.3801C11.9847 14.5167 12.0706 14.633 12.192 14.6993C12.3224 14.7705 12.4785 14.7753 12.6148 14.7115C12.8097 14.6203 12.9154 14.4075 12.8758 14.197C12.822 13.9112 12.5054 13.7442 12.2373 13.8561Z" fill="#E3E8EB"/>
<path d="M13.9587 14.6992C14.0891 14.7704 14.2452 14.7752 14.3815 14.7114C14.5763 14.6202 14.6821 14.4074 14.6425 14.1969C14.5887 13.9111 14.272 13.7441 14.0039 13.856C13.7998 13.9412 13.6783 14.1622 13.7232 14.38C13.7513 14.5167 13.8372 14.633 13.9587 14.6992Z" fill="#E3E8EB"/>
<path d="M15.7674 13.856C15.5633 13.9412 15.4418 14.1622 15.4867 14.38C15.5148 14.5166 15.6008 14.6329 15.7222 14.6992C15.8526 14.7704 16.0087 14.7752 16.145 14.7114C16.3398 14.6202 16.4456 14.4074 16.406 14.1969C16.3522 13.9111 16.0355 13.7442 15.7674 13.856Z" fill="#E3E8EB"/>
<path d="M17.486 14.6991C17.6164 14.7703 17.7725 14.7751 17.9088 14.7113C18.1036 14.6201 18.2094 14.4072 18.1698 14.1968C18.116 13.911 17.7993 13.744 17.5312 13.8559C17.3271 13.9411 17.2056 14.1621 17.2505 14.3799C17.2786 14.5166 17.3645 14.6328 17.486 14.6991Z" fill="#E3E8EB"/>
<path d="M19.3026 13.856C19.0985 13.9412 18.977 14.1622 19.0218 14.38C19.05 14.5166 19.1359 14.6329 19.2573 14.6992C19.3877 14.7704 19.5438 14.7752 19.6801 14.7114C19.875 14.6202 19.9807 14.4074 19.9411 14.1969C19.8873 13.9111 19.5707 13.7442 19.3026 13.856Z" fill="#E3E8EB"/>
<path d="M21.0231 14.6991C21.1535 14.7703 21.3096 14.7751 21.4459 14.7113C21.6407 14.6201 21.7465 14.4072 21.7069 14.1968C21.6531 13.911 21.3364 13.744 21.0683 13.8559C20.8643 13.9411 20.7427 14.1621 20.7876 14.3799C20.8157 14.5166 20.9016 14.6328 21.0231 14.6991Z" fill="#E3E8EB"/>
<path d="M22.8323 13.856C22.6282 13.9412 22.5066 14.1622 22.5515 14.38C22.5797 14.5166 22.6655 14.6329 22.787 14.6992C22.9174 14.7704 23.0735 14.7752 23.2098 14.7114C23.4046 14.6202 23.5104 14.4074 23.4708 14.1969C23.417 13.9111 23.1004 13.7442 22.8323 13.856Z" fill="#E3E8EB"/>
<path d="M24.5563 14.6991C24.6867 14.7703 24.8428 14.7751 24.9791 14.7113C25.1739 14.6201 25.2797 14.4072 25.2401 14.1968C25.1863 13.911 24.8696 13.744 24.6015 13.8559C24.3975 13.9411 24.2759 14.1621 24.3208 14.3799C24.3489 14.5166 24.4348 14.6328 24.5563 14.6991Z" fill="#E3E8EB"/>
<path d="M26.3642 13.8561C26.1602 13.9413 26.0386 14.1623 26.0835 14.3801C26.1116 14.5167 26.1975 14.633 26.319 14.6993C26.4494 14.7705 26.6055 14.7753 26.7418 14.7115C26.9366 14.6203 27.0424 14.4075 27.0028 14.197C26.949 13.9112 26.6323 13.7442 26.3642 13.8561Z" fill="#E3E8EB"/>
<path d="M28.0883 14.6992C28.2187 14.7704 28.3748 14.7752 28.5111 14.7114C28.706 14.6202 28.8117 14.4074 28.7721 14.1969C28.7183 13.9111 28.4017 13.7441 28.1336 13.856C27.9295 13.9412 27.808 14.1622 27.8528 14.38C27.881 14.5167 27.9669 14.633 28.0883 14.6992Z" fill="#E3E8EB"/>
<path d="M29.8922 14.6991C30.0226 14.7703 30.1787 14.7751 30.315 14.7113C30.5099 14.6201 30.6156 14.4072 30.576 14.1968C30.5223 13.911 30.2056 13.744 29.9375 13.8559C29.7334 13.9411 29.6119 14.1621 29.6568 14.3799C29.6849 14.5166 29.7708 14.6328 29.8922 14.6991Z" fill="#E3E8EB"/>
<path d="M10.4263 14.6992C10.5567 14.7704 10.7128 14.7752 10.8491 14.7114C11.044 14.6202 11.1497 14.4074 11.1101 14.1969C11.0563 13.9111 10.7397 13.7441 10.4716 13.856C10.2675 13.9412 10.1459 14.1622 10.1908 14.38C10.2189 14.5167 10.3048 14.633 10.4263 14.6992Z" fill="#E3E8EB"/>
<path d="M1.41455 23.2112C1.44268 23.3478 1.52863 23.4641 1.65002 23.5304C1.78041 23.6016 1.9365 23.6064 2.07283 23.5426C2.26767 23.4514 2.37343 23.2385 2.3338 23.0281C2.28005 22.7423 1.96338 22.5753 1.69527 22.6872C1.49125 22.7724 1.36973 22.9934 1.41455 23.2112Z" fill="#E3E8EB"/>
<path d="M3.40623 22.6872C3.2022 22.7724 3.08062 22.9934 3.1255 23.2112C3.15363 23.3478 3.23952 23.4641 3.36097 23.5304C3.49137 23.6016 3.64745 23.6064 3.78379 23.5426C3.97863 23.4514 4.08439 23.2385 4.04476 23.0281C3.991 22.7423 3.67439 22.5753 3.40623 22.6872Z" fill="#E3E8EB"/>
<path d="M5.17292 22.6871C4.9689 22.7723 4.84732 22.9933 4.8922 23.211C4.92033 23.3477 5.00621 23.464 5.12767 23.5303C5.25806 23.6015 5.41415 23.6063 5.55048 23.5425C5.74532 23.4513 5.85108 23.2384 5.81145 23.028C5.75763 22.7422 5.44102 22.5751 5.17292 22.6871Z" fill="#E3E8EB"/>
<path d="M6.93944 22.6872C6.73535 22.7724 6.61383 22.9934 6.65871 23.2112C6.68684 23.3478 6.77279 23.4641 6.89418 23.5304C7.02458 23.6016 7.18066 23.6064 7.31699 23.5426C7.51183 23.4514 7.6176 23.2385 7.57797 23.0281C7.52415 22.7423 7.20754 22.5753 6.93944 22.6872Z" fill="#E3E8EB"/>
<path d="M8.66005 23.5303C8.79044 23.6015 8.94652 23.6063 9.08286 23.5425C9.2777 23.4513 9.38346 23.2384 9.34383 23.028C9.29007 22.7422 8.9734 22.5751 8.7053 22.6871C8.50121 22.7723 8.37969 22.9933 8.42458 23.211C8.4527 23.3477 8.53859 23.464 8.66005 23.5303Z" fill="#E3E8EB"/>
<path d="M12.2373 22.6872C12.0332 22.7724 11.9117 22.9934 11.9566 23.2112C11.9847 23.3478 12.0706 23.4641 12.192 23.5304C12.3224 23.6016 12.4785 23.6064 12.6148 23.5426C12.8097 23.4514 12.9154 23.2385 12.8758 23.0281C12.822 22.7423 12.5054 22.5753 12.2373 22.6872Z" fill="#E3E8EB"/>
<path d="M14.0039 22.6871C13.7998 22.7723 13.6783 22.9933 13.7232 23.211C13.7513 23.3477 13.8372 23.464 13.9587 23.5303C14.0891 23.6015 14.2452 23.6063 14.3815 23.5425C14.5763 23.4513 14.6821 23.2384 14.6425 23.028C14.5887 22.7422 14.272 22.5751 14.0039 22.6871Z" fill="#E3E8EB"/>
<path d="M15.4867 23.211C15.5148 23.3477 15.6008 23.464 15.7222 23.5303C15.8526 23.6015 16.0087 23.6063 16.145 23.5425C16.3398 23.4513 16.4456 23.2384 16.406 23.028C16.3522 22.7422 16.0355 22.5751 15.7674 22.6871C15.5634 22.7722 15.4418 22.9933 15.4867 23.211Z" fill="#E3E8EB"/>
<path d="M17.5312 22.6872C17.3271 22.7724 17.2056 22.9934 17.2505 23.2112C17.2786 23.3478 17.3646 23.4641 17.486 23.5304C17.6164 23.6016 17.7725 23.6064 17.9088 23.5426C18.1036 23.4514 18.2094 23.2385 18.1698 23.0281C18.116 22.7423 17.7994 22.5753 17.5312 22.6872Z" fill="#E3E8EB"/>
<path d="M19.3026 22.6871C19.0985 22.7723 18.977 22.9933 19.0218 23.211C19.05 23.3477 19.1359 23.464 19.2573 23.5303C19.3877 23.6015 19.5438 23.6063 19.6801 23.5425C19.875 23.4513 19.9807 23.2384 19.9411 23.028C19.8873 22.7422 19.5707 22.5751 19.3026 22.6871Z" fill="#E3E8EB"/>
<path d="M21.0683 22.6872C20.8643 22.7724 20.7427 22.9934 20.7876 23.2112C20.8157 23.3478 20.9016 23.4641 21.0231 23.5304C21.1535 23.6016 21.3096 23.6064 21.4459 23.5426C21.6407 23.4514 21.7465 23.2385 21.7069 23.0281C21.6531 22.7423 21.3364 22.5753 21.0683 22.6872Z" fill="#E3E8EB"/>
<path d="M22.8323 22.6871C22.6282 22.7723 22.5066 22.9933 22.5515 23.211C22.5797 23.3477 22.6655 23.464 22.787 23.5303C22.9174 23.6015 23.0735 23.6063 23.2098 23.5425C23.4046 23.4513 23.5104 23.2384 23.4708 23.028C23.417 22.7422 23.1004 22.5751 22.8323 22.6871Z" fill="#E3E8EB"/>
<path d="M24.6015 22.6872C24.3975 22.7724 24.2759 22.9934 24.3208 23.2112C24.3489 23.3478 24.4348 23.4641 24.5563 23.5304C24.6867 23.6016 24.8428 23.6064 24.9791 23.5426C25.1739 23.4514 25.2797 23.2385 25.2401 23.0281C25.1863 22.7423 24.8696 22.5753 24.6015 22.6872Z" fill="#E3E8EB"/>
<path d="M26.0835 23.2112C26.1116 23.3478 26.1975 23.4641 26.319 23.5304C26.4494 23.6016 26.6055 23.6064 26.7418 23.5426C26.9366 23.4514 27.0424 23.2385 27.0028 23.0281C26.949 22.7423 26.6323 22.5753 26.3642 22.6872C26.1602 22.7724 26.0386 22.9934 26.0835 23.2112Z" fill="#E3E8EB"/>
<path d="M28.1336 22.6871C27.9295 22.7723 27.808 22.9933 27.8528 23.211C27.881 23.3477 27.9669 23.464 28.0883 23.5303C28.2187 23.6015 28.3748 23.6063 28.5111 23.5425C28.706 23.4513 28.8117 23.2384 28.7721 23.028C28.7183 22.7422 28.4017 22.5751 28.1336 22.6871Z" fill="#E3E8EB"/>
<path d="M29.6567 23.2112C29.6849 23.3478 29.7708 23.4641 29.8922 23.5304C30.0226 23.6016 30.1787 23.6064 30.315 23.5426C30.5099 23.4514 30.6156 23.2385 30.576 23.0281C30.5222 22.7423 30.2056 22.5753 29.9375 22.6872C29.7334 22.7724 29.6119 22.9934 29.6567 23.2112Z" fill="#E3E8EB"/>
<path d="M29.6567 21.4449C29.6849 21.5815 29.7708 21.6978 29.8922 21.764C30.0226 21.8352 30.1787 21.8401 30.315 21.7762C30.5099 21.685 30.6156 21.4722 30.576 21.2617C30.5222 20.9759 30.2056 20.8089 29.9375 20.9209C29.7334 21.0061 29.6119 21.2271 29.6567 21.4449Z" fill="#E3E8EB"/>
<path d="M29.6567 19.6788C29.6849 19.8154 29.7708 19.9317 29.8922 19.9979C30.0226 20.0691 30.1787 20.0739 30.315 20.0101C30.5099 19.9189 30.6156 19.7061 30.576 19.4956C30.5222 19.2098 30.2056 19.0428 29.9375 19.1547C29.7334 19.2399 29.6119 19.4609 29.6567 19.6788Z" fill="#E3E8EB"/>
<path d="M29.6567 17.9123C29.6849 18.049 29.7708 18.1652 29.8922 18.2316C30.0226 18.3028 30.1787 18.3076 30.315 18.2438C30.5099 18.1526 30.6156 17.9397 30.576 17.7292C30.5222 17.4435 30.2056 17.2764 29.9375 17.3884C29.7334 17.4735 29.6119 17.6946 29.6567 17.9123Z" fill="#E3E8EB"/>
<path d="M29.6567 16.1463C29.6849 16.2829 29.7708 16.3992 29.8922 16.4654C30.0226 16.5366 30.1787 16.5414 30.315 16.4776C30.5099 16.3864 30.6156 16.1736 30.576 15.9632C30.5222 15.6774 30.2056 15.5104 29.9375 15.6222C29.7334 15.7074 29.6119 15.9285 29.6567 16.1463Z" fill="#E3E8EB"/>
<path d="M1.70531 20.9209C1.50122 21.0061 1.3797 21.227 1.42458 21.4449C1.45271 21.5815 1.5386 21.6978 1.66005 21.764C1.79044 21.8352 1.94653 21.8401 2.08286 21.7762C2.2777 21.685 2.38347 21.4722 2.34384 21.2617C2.29008 20.9759 1.97347 20.809 1.70531 20.9209Z" fill="#E3E8EB"/>
<path d="M2.34384 19.4956C2.29008 19.2098 1.97341 19.0428 1.70531 19.1547C1.50122 19.2399 1.3797 19.4609 1.42458 19.6787C1.45271 19.8153 1.5386 19.9316 1.66005 19.9979C1.79044 20.0691 1.94653 20.0739 2.08286 20.0101C2.2777 19.9189 2.38347 19.706 2.34384 19.4956Z" fill="#E3E8EB"/>
<path d="M2.34384 17.7293C2.29008 17.4435 1.97341 17.2765 1.70531 17.3885C1.50122 17.4737 1.3797 17.6946 1.42458 17.9124C1.45271 18.0491 1.5386 18.1653 1.66005 18.2317C1.79044 18.3029 1.94653 18.3077 2.08286 18.2439C2.2777 18.1526 2.38347 17.9398 2.34384 17.7293Z" fill="#E3E8EB"/>
<path d="M2.34384 15.9631C2.29008 15.6773 1.97341 15.5103 1.70531 15.6222C1.50122 15.7074 1.3797 15.9284 1.42458 16.1462C1.45271 16.2829 1.5386 16.3991 1.66005 16.4654C1.79044 16.5366 1.94653 16.5414 2.08286 16.4776C2.2777 16.3864 2.38347 16.1736 2.34384 15.9631Z" fill="#E3E8EB"/>
<path d="M10.4715 22.6871C10.2674 22.7723 10.1459 22.9933 10.1908 23.211C10.2189 23.3477 10.3048 23.464 10.4262 23.5303C10.5566 23.6015 10.7127 23.6063 10.849 23.5425C11.0439 23.4513 11.1497 23.2384 11.11 23.028C11.0563 22.7422 10.7397 22.5751 10.4715 22.6871Z" fill="#E3E8EB"/>
<path d="M3.62382 19.9561C3.4071 19.8145 3.11662 19.8752 2.97498 20.0919C2.83321 20.3086 2.89403 20.5991 3.11069 20.7409C3.39498 20.9268 3.61113 21.013 3.85804 21.0502V21.3819C3.85804 21.6409 4.06795 21.8507 4.32686 21.8507C4.58577 21.8507 4.79568 21.6409 4.79568 21.3819V21C5.34738 20.8162 5.6998 20.3251 5.78125 19.8405C5.89346 19.1731 5.53191 18.5703 4.88175 18.3405C4.62003 18.248 4.29279 18.1897 4.08239 17.9976C3.87136 17.8049 3.98287 17.5002 4.25316 17.4415C4.43487 17.4021 4.6404 17.448 4.76467 17.556C4.96014 17.7259 5.25624 17.7051 5.42602 17.5096C5.59585 17.3141 5.57504 17.018 5.37957 16.8482C5.2143 16.7047 5.01252 16.6015 4.79568 16.5437V16.0259C4.79568 15.767 4.58577 15.5571 4.32686 15.5571C4.06795 15.5571 3.85804 15.767 3.85804 16.0259V16.5823C3.68683 16.6454 3.53312 16.7392 3.40623 16.8591C3.17319 17.0793 3.03574 17.3957 3.02899 17.7271C3.02224 18.0602 3.14782 18.384 3.37372 18.6156C3.67583 18.9252 4.06301 19.0544 4.40468 19.1685C4.65747 19.253 4.9095 19.37 4.85656 19.6851C4.75811 20.271 4.00369 20.2044 3.62382 19.9561Z" fill="#E3E8EB"/>
<path d="M9.37965 18.2824V19.7058C9.37965 20.4551 9.98924 21.0647 10.7385 21.0647C11.4878 21.0647 12.0974 20.4551 12.0974 19.7058V18.2824C12.0974 17.5332 11.4878 16.9236 10.7385 16.9236C9.98924 16.9236 9.37965 17.5331 9.37965 18.2824ZM10.3173 18.2824C10.3173 18.0501 10.5062 17.8612 10.7385 17.8612C10.9708 17.8612 11.1598 18.0501 11.1598 18.2824V19.7058C11.1598 19.9381 10.9708 20.127 10.7385 20.127C10.5062 20.127 10.3173 19.9381 10.3173 19.7058V18.2824Z" fill="#E3E8EB"/>
<path d="M12.6122 18.2824V19.7058C12.6122 20.4551 13.2218 21.0647 13.9711 21.0647C14.7204 21.0647 15.33 20.4551 15.33 19.7058V18.2824C15.33 17.5332 14.7204 16.9236 13.9711 16.9236C13.2218 16.9236 12.6122 17.5331 12.6122 18.2824ZM13.5499 18.2824C13.5499 18.0501 13.7388 17.8612 13.9711 17.8612C14.2034 17.8612 14.3924 18.0501 14.3924 18.2824V19.7058C14.3924 19.9381 14.2034 20.127 13.9711 20.127C13.7388 20.127 13.5499 19.9381 13.5499 19.7058V18.2824Z" fill="#E3E8EB"/>
<path d="M15.8448 18.2824V19.7058C15.8448 20.4551 16.4543 21.0647 17.2036 21.0647C17.9529 21.0647 18.5625 20.4551 18.5625 19.7058V18.2824C18.5625 17.5332 17.9529 16.9236 17.2036 16.9236C16.4543 16.9236 15.8448 17.5331 15.8448 18.2824ZM17.6249 18.2824V19.7058C17.6249 19.9381 17.4359 20.127 17.2036 20.127C16.9714 20.127 16.7824 19.9381 16.7824 19.7058V18.2824C16.7824 18.0501 16.9714 17.8612 17.2036 17.8612C17.4359 17.8612 17.6249 18.0501 17.6249 18.2824Z" fill="#E3E8EB"/>
<path d="M19.919 18.2824V19.7058C19.919 20.4551 20.5286 21.0647 21.2779 21.0647C22.0272 21.0647 22.6368 20.4551 22.6368 19.7058V18.2824C22.6368 17.5332 22.0272 16.9236 21.2779 16.9236C20.5286 16.9236 19.919 17.5331 19.919 18.2824ZM20.8567 18.2824C20.8567 18.0501 21.0456 17.8612 21.2779 17.8612C21.5102 17.8612 21.6992 18.0501 21.6992 18.2824V19.7058C21.6992 19.9381 21.5102 20.127 21.2779 20.127C21.0456 20.127 20.8567 19.9381 20.8567 19.7058V18.2824Z" fill="#E3E8EB"/>
<path d="M23.1516 18.2824V19.7058C23.1516 20.4551 23.7611 21.0647 24.5104 21.0647C25.2597 21.0647 25.8693 20.4551 25.8693 19.7058V18.2824C25.8693 17.5332 25.2597 16.9236 24.5104 16.9236C23.7611 16.9236 23.1516 17.5331 23.1516 18.2824ZM24.0892 18.2824C24.0892 18.0501 24.2781 17.8612 24.5104 17.8612C24.7427 17.8612 24.9317 18.0501 24.9317 18.2824V19.7058C24.9317 19.9381 24.7427 20.127 24.5104 20.127C24.2781 20.127 24.0892 19.9381 24.0892 19.7058V18.2824Z" fill="#E3E8EB"/>
<path d="M26.3838 18.2824V19.7058C26.3838 20.4551 26.9934 21.0647 27.7427 21.0647C28.492 21.0647 29.1016 20.4551 29.1016 19.7058V18.2824C29.1016 17.5332 28.492 16.9236 27.7427 16.9236C26.9934 16.9236 26.3838 17.5331 26.3838 18.2824ZM28.1639 18.2824V19.7058C28.1639 19.9381 27.9749 20.127 27.7426 20.127C27.5103 20.127 27.3214 19.9381 27.3214 19.7058V18.2824C27.3214 18.0501 27.5103 17.8612 27.7426 17.8612C27.9749 17.8612 28.1639 18.0501 28.1639 18.2824Z" fill="#E3E8EB"/>
<path d="M6.1875 17.4194C6.1875 17.6784 6.3974 17.8883 6.65632 17.8883H7.71972L6.58518 20.4692C6.48098 20.7063 6.58868 20.9829 6.82572 21.0871C6.8871 21.1142 6.95111 21.1269 7.01412 21.1269C7.19439 21.1269 7.36636 21.0223 7.44355 20.8467L8.86713 17.6082C8.93089 17.4632 8.91708 17.2958 8.83056 17.1632C8.74405 17.0306 8.59634 16.9507 8.43801 16.9507H6.65644C6.3974 16.9506 6.1875 17.1605 6.1875 17.4194Z" fill="#E3E8EB"/>
<path d="M8.80838 21.0808C9.00322 20.9896 9.10899 20.7768 9.06936 20.5663C9.0156 20.2805 8.69893 20.1135 8.43083 20.2255C8.22674 20.3107 8.10522 20.5316 8.1501 20.7494C8.17823 20.886 8.26412 21.0023 8.38557 21.0686C8.51596 21.1398 8.67211 21.1446 8.80838 21.0808Z" fill="#E3E8EB"/>
<path d="M18.7828 20.7494C18.8109 20.886 18.8968 21.0023 19.0183 21.0686C19.1487 21.1398 19.3048 21.1446 19.4411 21.0808C19.6359 20.9896 19.7417 20.7768 19.7021 20.5663C19.6483 20.2805 19.3316 20.1135 19.0635 20.2255C18.8595 20.3107 18.738 20.5316 18.7828 20.7494Z" fill="#E3E8EB"/>
<path d="M22.7534 7.72085L24.2153 8.8904C24.2153 8.8904 23.6804 10.7598 23.6796 10.7627C23.5639 11.1671 23.8701 11.5714 24.2895 11.5714C24.421 11.5714 24.5523 11.5306 24.6636 11.4493L26.1095 10.3934C26.1095 10.3934 27.5527 11.4473 27.5553 11.4493C28.0324 11.7977 28.7015 11.3294 28.5393 10.7626L28.0036 8.8904L29.4656 7.72085C29.6756 7.55283 29.7569 7.26935 29.6679 7.01557C29.5788 6.76178 29.3383 6.59126 29.0693 6.59126H27.2796L26.7127 4.84807C26.6275 4.58603 26.3851 4.40988 26.1095 4.40988C25.8339 4.40988 25.5915 4.58597 25.5063 4.84807L24.9394 6.59126H23.1497C22.8808 6.59126 22.6402 6.76184 22.5512 7.01557C22.4621 7.26935 22.5434 7.55277 22.7534 7.72085ZM25.1597 7.52883C25.4353 7.52883 25.6778 7.35274 25.7629 7.09064L26.1095 6.02486L26.4561 7.09076C26.5414 7.35274 26.7838 7.52883 27.0594 7.52883H28.2046L27.2602 8.28443C27.06 8.44458 26.9762 8.70749 27.0467 8.95415L27.3948 10.171L26.4837 9.50561C26.2598 9.34202 25.9591 9.34208 25.7354 9.50555L24.8242 10.171L25.1724 8.95403C25.2429 8.70743 25.1591 8.44458 24.9588 8.28437L24.0144 7.52883H25.1597Z" fill="#E3E8EB"/>
<path d="M1.6535 7.07194L3.11546 8.24155C3.11546 8.24155 2.58094 10.1096 2.57975 10.1138C2.41811 10.6787 3.08908 11.1472 3.56371 10.8005L5.0096 9.74445C5.0096 9.74445 6.45456 10.7997 6.45556 10.8005C6.93219 11.1485 7.60191 10.6815 7.43951 10.1137L6.90381 8.24149L8.36577 7.07194C8.83127 6.69945 8.56217 5.94235 7.96952 5.94235C7.96771 5.94235 6.17983 5.94235 6.17983 5.94235L5.61294 4.1991C5.42441 3.61976 4.59529 3.61858 4.40651 4.19916C4.4052 4.20329 3.83962 5.94235 3.83962 5.94235C3.83962 5.94235 2.05368 5.94235 2.04993 5.94235C1.47178 5.94235 1.19975 6.70895 1.6535 7.07194ZM4.05978 6.87998C4.33532 6.87998 4.57773 6.70395 4.66299 6.44185L5.0096 5.37601L5.35621 6.44192C5.44147 6.70389 5.68389 6.87998 5.95942 6.87998H7.10471L6.16026 7.63559C5.95999 7.7958 5.87622 8.05877 5.94673 8.30537L6.29491 9.52223L5.38372 8.85676C5.27176 8.77494 5.14062 8.73412 5.00948 8.73412C4.87839 8.73412 4.74725 8.77494 4.63542 8.8567L3.72417 9.52217L4.07234 8.30531C4.14291 8.05865 4.05909 7.79567 3.85875 7.63546L2.91436 6.87992L4.05978 6.87998Z" fill="#E3E8EB"/>
<path d="M17.1 6.44747L18.1317 7.27278C18.1317 7.27278 17.7541 8.5924 17.7528 8.59709C17.5978 9.13867 18.2234 9.56629 18.672 9.23856L19.6835 8.49995C19.6835 8.49995 20.6933 9.23743 20.6948 9.2385C20.8063 9.31988 20.9448 9.3602 21.0825 9.35132C21.4552 9.3272 21.7188 8.96289 21.6141 8.59703C21.614 8.5969 21.2351 7.27271 21.2351 7.27271C21.2351 7.27271 22.2665 6.4476 22.2667 6.44741C22.6933 6.10611 22.4465 5.39207 21.8966 5.39207C21.8936 5.39207 20.6442 5.39207 20.6442 5.39207L20.2469 4.17033C20.0727 3.6347 19.2945 3.63326 19.1198 4.17033C19.1193 4.17202 18.7225 5.39207 18.7225 5.39207C18.7225 5.39207 17.4725 5.39207 17.4702 5.39207C16.925 5.39213 16.6733 6.10611 17.1 6.44747ZM18.9732 6.32977C19.2307 6.32977 19.4571 6.16524 19.5367 5.92046L19.6834 5.46933L19.8301 5.92046C19.9097 6.16524 20.1362 6.32977 20.3936 6.32977H20.913L20.47 6.68419C20.2829 6.83396 20.2045 7.07956 20.2706 7.30991L20.4361 7.88855L20.033 7.59414C19.8239 7.44143 19.543 7.44155 19.334 7.59414L18.9308 7.88855L19.0964 7.30966C19.1623 7.07931 19.0839 6.83384 18.8969 6.68413L18.4539 6.32977H18.9732Z" fill="#E3E8EB"/>
</g>
<defs>
<clipPath id="clip0_2676_30217">
<rect width="32" height="32" fill="white"/>
</clipPath>
</defs>
</svg>
